g admin_body
v -0.24 0.48 0.16
v -0.24 0.08 0.16
v -0.24 0.08 -0.24
v -0.24 0.48 0.08
v -0.24 0.48 0
v -0.24 0.48 -0.08
v -0.24 0.48 -0.24
v -0.24 0.56 0
v -0.24 0.56 -0.08
v -0.24 0.56 0.08
v -0.24 0.48 0.08
v -0.24 0.48 0
v -0.24 0.56 0
v -0.16 0.08 0
v -0.16 0 0
v -0.16 0 -0.08
v -0.16 0.08 -0.08
v -0.08 0.56 0.24
v -0.08 0.48 0.24
v -0.08 0.48 0.16
v -0.08 0.48 0.08
v -0.08 0.56 0.08
v -0 0.48 0.24
v -0 0.39999998 0.24
v -0 0.39999998 0.16
v -0 0.48 0.16
v 0.08 0.08 0
v 0.08 0 0
v 0.08 0 -0.08
v 0.08 0.08 -0.08
v 0.16 0.56 0.08
v 0.16 0.48 0.08
v 0.16 0.48 0
v 0.16 0.56 0
v 0.16 0.56 0
v 0.16 0.48 0
v 0.16 0.48 -0.08
v 0.16 0.56 -0.08
v -0.16 0.48 0.08
v -0.16 0.56 0.08
v -0.16 0.48 0
v -0.16 0.56 0
v -0.16 0.48 0
v -0.16 0.56 0
v -0.16 0.48 -0.08
v -0.16 0.56 -0.08
v -0.08 0 0
v -0.08 0.08 0
v -0.08 0 -0.08
v -0.08 0.08 -0.08
v 0.08 0.39999998 0.24
v 0.08 0.48 0.16
v 0.08 0.39999998 0.16
v 0.08 0.56 0.24
v 0.08 0.48 0.08
v 0.08 0.56 0.08
v 0.16 0 0
v 0.16 0.08 0
v 0.16 0 -0.08
v 0.16 0.08 -0.08
v 0.24 0.08 0.16
v 0.24 0.48 0.16
v 0.24 0.08 -0.24
v 0.24 0.48 0.08
v 0.24 0.48 0
v 0.24 0.48 -0.08
v 0.24 0.48 -0.24
v 0.24 0.56 0
v 0.24 0.56 -0.08
v 0.24 0.48 0.08
v 0.24 0.56 0.08
v 0.24 0.48 0
v 0.24 0.56 0
v -0 0.48 0.24
v -0.08 0.48 0.24
v -0.08 0.56 0.24
v 0.08 0.56 0.24
v 0.08 0.39999998 0.24
v -0 0.39999998 0.24
v -0.08 0.32 0.16
v -0.16 0.32 0.16
v -0.16 0.39999998 0.16
v -0.08 0.39999998 0.16
v -0 0.48 0.16
v -0 0.39999998 0.16
v -0.08 0.48 0.16
v -0.08 0.39999998 0.16
v -0.24 0.48 0.16
v -0.16 0.39999998 0.16
v -0.16 0.32 0.16
v -0.08 0.32 0.16
v -0.24 0.08 0.16
v -0.08 0.24 0.16
v -0.08 0.16 0.16
v 0.08 0.16 0.16
v 0.08 0.24 0.16
v 0.24 0.08 0.16
v 0.08 0.32 0.16
v 0.08 0.39999998 0.16
v 0.16 0.32 0.16
v 0.16 0.39999998 0.16
v 0.08 0.48 0.16
v 0.24 0.48 0.16
v 0.08 0.16 0.16
v -0.08 0.16 0.16
v -0.08 0.24 0.16
v 0.08 0.24 0.16
v 0.16 0.32 0.16
v 0.08 0.32 0.16
v 0.08 0.39999998 0.16
v 0.16 0.39999998 0.16
v -0.16 0.48 0.08
v -0.24 0.48 0.08
v -0.24 0.56 0.08
v -0.16 0.56 0.08
v 0.24 0.48 0.08
v 0.16 0.48 0.08
v 0.16 0.56 0.08
v 0.24 0.56 0.08
v -0.08 0 0
v -0.16 0 0
v -0.16 0.08 0
v -0.08 0.08 0
v 0.16 0 0
v 0.08 0 0
v 0.08 0.08 0
v 0.16 0.08 0
v -0.08 0.48 0.08
v 0.08 0.48 0.08
v -0.08 0.56 0.08
v 0.08 0.56 0.08
v -0.24 0.48 -0.08
v -0.16 0.48 -0.08
v -0.24 0.56 -0.08
v -0.16 0.56 -0.08
v -0.16 0 -0.08
v -0.08 0 -0.08
v -0.16 0.08 -0.08
v -0.08 0.08 -0.08
v 0.08 0 -0.08
v 0.16 0 -0.08
v 0.08 0.08 -0.08
v 0.16 0.08 -0.08
v 0.16 0.48 -0.08
v 0.24 0.48 -0.08
v 0.16 0.56 -0.08
v 0.24 0.56 -0.08
v -0.24 0.08 -0.24
v 0.24 0.08 -0.24
v -0.24 0.48 -0.24
v 0.24 0.48 -0.24
v -0.16 0 -0.08
v -0.16 0 0
v -0.08 0 0
v -0.08 0 -0.08
v 0.08 0 -0.08
v 0.08 0 0
v 0.16 0 0
v 0.16 0 -0.08
v -0 0.39999998 0.16
v -0 0.39999998 0.24
v 0.08 0.39999998 0.24
v 0.08 0.39999998 0.16
v -0.08 0.48 0.16
v -0.08 0.48 0.24
v -0 0.48 0.24
v -0 0.48 0.16
v -0.24 0.48 0.16
v -0.24 0.48 0.08
v -0.08 0.48 0.16
v -0.16 0.48 0.08
v -0.08 0.48 0.08
v -0.16 0.48 0
v 0.08 0.48 0.08
v 0.16 0.48 0.08
v 0.24 0.48 0.16
v 0.08 0.48 0.16
v 0.24 0.48 0.08
v 0.16 0.48 0
v -0.16 0.48 -0.08
v 0.16 0.48 -0.08
v -0.24 0.48 -0.24
v -0.24 0.48 -0.08
v 0.24 0.48 -0.08
v 0.24 0.48 -0.24
v -0.08 0.56 0.24
v -0.08 0.56 0.08
v 0.08 0.56 0.24
v 0.08 0.56 0.08
v -0.24 0.56 0.08
v -0.24 0.56 0
v -0.16 0.56 0.08
v -0.16 0.56 0
v 0.16 0.56 0.08
v 0.16 0.56 0
v 0.24 0.56 0.08
v 0.24 0.56 0
v -0.24 0.56 0
v -0.24 0.56 -0.08
v -0.16 0.56 0
v -0.16 0.56 -0.08
v 0.16 0.56 0
v 0.16 0.56 -0.08
v 0.24 0.56 0
v 0.24 0.56 -0.08
v 0.16 0.08 0
v 0.08 0.08 0
v 0.24 0.08 0.16
v 0.16 0.08 -0.08
v 0.24 0.08 -0.24
v -0.24 0.08 -0.24
v 0.08 0.08 -0.08
v -0.08 0.08 -0.08
v -0.08 0.08 0
v -0.16 0.08 -0.08
v -0.16 0.08 0
v -0.24 0.08 0.16
vt 0.0253906 0.5
vt 0.0253906 0.5
vt 0.0253906 0.5
vt 0.0253906 0.5
vt 0.0253906 0.5
vt 0.0253906 0.5
vt 0.0253906 0.5
vt 0.0253906 0.5
vt 0.0253906 0.5
vt 0.994141 0.5
vt 0.994141 0.5
vt 0.994141 0.5
vt 0.994141 0.5
vt 0.0253906 0.5
vt 0.0253906 0.5
vt 0.0253906 0.5
vt 0.0253906 0.5
vt 0.0253906 0.5
vt 0.0253906 0.5
vt 0.0253906 0.5
vt 0.0253906 0.5
vt 0.0253906 0.5
vt 0.0253906 0.5
vt 0.0253906 0.5
vt 0.0253906 0.5
vt 0.0253906 0.5
vt 0.0253906 0.5
vt 0.0253906 0.5
vt 0.0253906 0.5
vt 0.0253906 0.5
vt 0.994141 0.5
vt 0.994141 0.5
vt 0.994141 0.5
vt 0.994141 0.5
vt 0.0253906 0.5
vt 0.0253906 0.5
vt 0.0253906 0.5
vt 0.0253906 0.5
vt 0.994141 0.5
vt 0.994141 0.5
vt 0.994141 0.5
vt 0.994141 0.5
vt 0.0253906 0.5
vt 0.0253906 0.5
vt 0.0253906 0.5
vt 0.0253906 0.5
vt 0.0253906 0.5
vt 0.0253906 0.5
vt 0.0253906 0.5
vt 0.0253906 0.5
vt 0.0253906 0.5
vt 0.0253906 0.5
vt 0.0253906 0.5
vt 0.0253906 0.5
vt 0.0253906 0.5
vt 0.0253906 0.5
vt 0.0253906 0.5
vt 0.0253906 0.5
vt 0.0253906 0.5
vt 0.0253906 0.5
vt 0.0253906 0.5
vt 0.0253906 0.5
vt 0.0253906 0.5
vt 0.0253906 0.5
vt 0.0253906 0.5
vt 0.0253906 0.5
vt 0.0253906 0.5
vt 0.0253906 0.5
vt 0.0253906 0.5
vt 0.994141 0.5
vt 0.994141 0.5
vt 0.994141 0.5
vt 0.994141 0.5
vt 0.0253906 0.5
vt 0.0253906 0.5
vt 0.0253906 0.5
vt 0.0253906 0.5
vt 0.0253906 0.5
vt 0.0253906 0.5
vt 0.705078 0.5
vt 0.705078 0.5
vt 0.705078 0.5
vt 0.705078 0.5
vt 0.0253906 0.5
vt 0.0253906 0.5
vt 0.0253906 0.5
vt 0.0253906 0.5
vt 0.0253906 0.5
vt 0.0253906 0.5
vt 0.0253906 0.5
vt 0.0253906 0.5
vt 0.0253906 0.5
vt 0.0253906 0.5
vt 0.0253906 0.5
vt 0.0253906 0.5
vt 0.0253906 0.5
vt 0.0253906 0.5
vt 0.0253906 0.5
vt 0.0253906 0.5
vt 0.0253906 0.5
vt 0.0253906 0.5
vt 0.0253906 0.5
vt 0.0253906 0.5
vt 0.0527344 0.5
vt 0.0527344 0.5
vt 0.0527344 0.5
vt 0.0527344 0.5
vt 0.705078 0.5
vt 0.705078 0.5
vt 0.705078 0.5
vt 0.705078 0.5
vt 0.994141 0.5
vt 0.994141 0.5
vt 0.994141 0.5
vt 0.994141 0.5
vt 0.994141 0.5
vt 0.994141 0.5
vt 0.994141 0.5
vt 0.994141 0.5
vt 0.0253906 0.5
vt 0.0253906 0.5
vt 0.0253906 0.5
vt 0.0253906 0.5
vt 0.0253906 0.5
vt 0.0253906 0.5
vt 0.0253906 0.5
vt 0.0253906 0.5
vt 0.0253906 0.5
vt 0.0253906 0.5
vt 0.0253906 0.5
vt 0.0253906 0.5
vt 0.0253906 0.5
vt 0.0253906 0.5
vt 0.0253906 0.5
vt 0.0253906 0.5
vt 0.0253906 0.5
vt 0.0253906 0.5
vt 0.0253906 0.5
vt 0.0253906 0.5
vt 0.0253906 0.5
vt 0.0253906 0.5
vt 0.0253906 0.5
vt 0.0253906 0.5
vt 0.0253906 0.5
vt 0.0253906 0.5
vt 0.0253906 0.5
vt 0.0253906 0.5
vt 0.0253906 0.5
vt 0.0253906 0.5
vt 0.0253906 0.5
vt 0.0253906 0.5
vt 0.0253906 0.5
vt 0.0253906 0.5
vt 0.0253906 0.5
vt 0.0253906 0.5
vt 0.0253906 0.5
vt 0.0253906 0.5
vt 0.0253906 0.5
vt 0.0253906 0.5
vt 0.0253906 0.5
vt 0.0253906 0.5
vt 0.0253906 0.5
vt 0.0253906 0.5
vt 0.0253906 0.5
vt 0.0253906 0.5
vt 0.0253906 0.5
vt 0.0253906 0.5
vt 0.0253906 0.5
vt 0.0253906 0.5
vt 0.0253906 0.5
vt 0.0253906 0.5
vt 0.0253906 0.5
vt 0.0253906 0.5
vt 0.0253906 0.5
vt 0.0253906 0.5
vt 0.0253906 0.5
vt 0.0253906 0.5
vt 0.0253906 0.5
vt 0.0253906 0.5
vt 0.0253906 0.5
vt 0.0253906 0.5
vt 0.0253906 0.5
vt 0.0253906 0.5
vt 0.0253906 0.5
vt 0.0253906 0.5
vt 0.0253906 0.5
vt 0.0253906 0.5
vt 0.0253906 0.5
vt 0.0253906 0.5
vt 0.994141 0.5
vt 0.994141 0.5
vt 0.994141 0.5
vt 0.994141 0.5
vt 0.994141 0.5
vt 0.994141 0.5
vt 0.994141 0.5
vt 0.994141 0.5
vt 0.0253906 0.5
vt 0.0253906 0.5
vt 0.0253906 0.5
vt 0.0253906 0.5
vt 0.0253906 0.5
vt 0.0253906 0.5
vt 0.0253906 0.5
vt 0.0253906 0.5
vt 0.0253906 0.5
vt 0.0253906 0.5
vt 0.0253906 0.5
vt 0.0253906 0.5
vt 0.0253906 0.5
vt 0.0253906 0.5
vt 0.0253906 0.5
vt 0.0253906 0.5
vt 0.0253906 0.5
vt 0.0253906 0.5
vt 0.0253906 0.5
vt 0.0253906 0.5
vn -1 0 0
vn -1 0 0
vn -1 0 0
vn -1 0 0
vn -1 0 0
vn -1 0 0
vn -1 0 0
vn -1 0 0
vn -1 0 0
vn -1 0 0
vn -1 0 0
vn -1 0 0
vn -1 0 0
vn -1 0 0
vn -1 0 0
vn -1 0 0
vn -1 0 0
vn -1 0 0
vn -1 0 0
vn -1 0 0
vn -1 0 0
vn -1 0 0
vn -1 0 0
vn -1 0 0
vn -1 0 0
vn -1 0 0
vn -1 0 0
vn -1 0 0
vn -1 0 0
vn -1 0 0
vn -1 0 0
vn -1 0 0
vn -1 0 0
vn -1 0 0
vn -1 0 0
vn -1 0 0
vn -1 0 0
vn -1 0 0
vn 1 0 0
vn 1 0 0
vn 1 0 0
vn 1 0 0
vn 1 0 0
vn 1 0 0
vn 1 0 0
vn 1 0 0
vn 1 0 0
vn 1 0 0
vn 1 0 0
vn 1 0 0
vn 1 0 0
vn 1 0 0
vn 1 0 0
vn 1 0 0
vn 1 0 0
vn 1 0 0
vn 1 0 0
vn 1 0 0
vn 1 0 0
vn 1 0 0
vn 1 0 0
vn 1 0 0
vn 1 0 0
vn 1 0 0
vn 1 0 0
vn 1 0 0
vn 1 0 0
vn 1 0 0
vn 1 0 0
vn 1 0 0
vn 1 0 0
vn 1 0 0
vn 1 0 0
vn -0 0 1
vn -0 0 1
vn -0 0 1
vn -0 0 1
vn -0 0 1
vn -0 0 1
vn -0 0 1
vn -0 0 1
vn -0 0 1
vn -0 0 1
vn -0 0 1
vn -0 0 1
vn -0 0 1
vn -0 0 1
vn -0 0 1
vn -0 0 1
vn -0 0 1
vn -0 0 1
vn -0 0 1
vn -0 0 1
vn -0 0 1
vn -0 0 1
vn -0 0 1
vn -0 0 1
vn -0 0 1
vn -0 0 1
vn -0 0 1
vn -0 0 1
vn -0 0 1
vn -0 0 1
vn -0 0 1
vn -0 0 1
vn -0 0 1
vn -0 0 1
vn -0 0 1
vn -0 0 1
vn -0 0 1
vn -0 0 1
vn -0 0 1
vn -0 0 1
vn -0 0 1
vn -0 0 1
vn -0 0 1
vn -0 0 1
vn -0 0 1
vn -0 0 1
vn -0 0 1
vn -0 0 1
vn -0 0 1
vn -0 0 1
vn -0 0 1
vn -0 0 1
vn -0 0 1
vn -0 0 1
vn -0 0 -1
vn -0 0 -1
vn -0 0 -1
vn -0 0 -1
vn -0 0 -1
vn -0 0 -1
vn -0 0 -1
vn -0 0 -1
vn -0 0 -1
vn -0 0 -1
vn -0 0 -1
vn -0 0 -1
vn -0 0 -1
vn -0 0 -1
vn -0 0 -1
vn -0 0 -1
vn -0 0 -1
vn -0 0 -1
vn -0 0 -1
vn -0 0 -1
vn -0 0 -1
vn -0 0 -1
vn -0 0 -1
vn -0 0 -1
vn -0 -1 0
vn -0 -1 0
vn -0 -1 0
vn -0 -1 0
vn -0 -1 0
vn -0 -1 0
vn -0 -1 0
vn -0 -1 0
vn -0 -1 0
vn -0 -1 0
vn -0 -1 0
vn -0 -1 0
vn -0 -1 0
vn -0 -1 0
vn -0 -1 0
vn -0 -1 0
vn -0 1 0
vn -0 1 0
vn -0 1 0
vn -0 1 0
vn -0 1 0
vn -0 1 0
vn -0 1 0
vn -0 1 0
vn -0 1 0
vn -0 1 0
vn -0 1 0
vn -0 1 0
vn -0 1 0
vn -0 1 0
vn -0 1 0
vn -0 1 0
vn -0 1 0
vn -0 1 0
vn -0 1 0
vn -0 1 0
vn -0 1 0
vn -0 1 0
vn -0 1 0
vn -0 1 0
vn -0 1 0
vn -0 1 0
vn -0 1 0
vn -0 1 0
vn -0 1 0
vn -0 1 0
vn -0 1 0
vn -0 1 0
vn -0 1 0
vn -0 1 0
vn -0 1 0
vn -0 1 0
vn -0 1 0
vn -0 1 0
vn -0 -1 0
vn -0 -1 0
vn -0 -1 0
vn -0 -1 0
vn -0 -1 0
vn -0 -1 0
vn -0 -1 0
vn -0 -1 0
vn -0 -1 0
vn -0 -1 0
vn -0 -1 0
vn -0 -1 0
g admin_body_0
f 3/3/3 2/2/2 1/1/1
f 3/3/3 1/1/1 4/4/4
f 3/3/3 4/4/4 5/5/5
f 3/3/3 5/5/5 6/6/6
f 3/3/3 6/6/6 7/7/7
f 6/6/6 5/5/5 8/8/8
f 6/6/6 8/8/8 9/9/9
f 12/12/12 11/11/11 10/10/10
f 12/12/12 10/10/10 13/13/13
f 16/16/16 15/15/15 14/14/14
f 16/16/16 14/14/14 17/17/17
f 20/20/20 19/19/19 18/18/18
f 21/21/21 20/20/20 18/18/18
f 21/21/21 18/18/18 22/22/22
f 25/25/25 24/24/24 23/23/23
f 25/25/25 23/23/23 26/26/26
f 29/29/29 28/28/28 27/27/27
f 29/29/29 27/27/27 30/30/30
f 33/33/33 32/32/32 31/31/31
f 33/33/33 31/31/31 34/34/34
f 37/37/37 36/36/36 35/35/35
f 37/37/37 35/35/35 38/38/38
f 41/41/41 40/40/40 39/39/39
f 41/41/41 42/42/42 40/40/40
f 45/45/45 44/44/44 43/43/43
f 45/45/45 46/46/46 44/44/44
f 49/49/49 48/48/48 47/47/47
f 49/49/49 50/50/50 48/48/48
f 53/53/53 52/52/52 51/51/51
f 52/52/52 54/54/54 51/51/51
f 55/55/55 54/54/54 52/52/52
f 55/55/55 56/56/56 54/54/54
f 59/59/59 58/58/58 57/57/57
f 59/59/59 60/60/60 58/58/58
f 63/63/63 62/62/62 61/61/61
f 63/63/63 64/64/64 62/62/62
f 63/63/63 65/65/65 64/64/64
f 63/63/63 66/66/66 65/65/65
f 63/63/63 67/67/67 66/66/66
f 66/66/66 68/68/68 65/65/65
f 66/66/66 69/69/69 68/68/68
f 72/72/72 71/71/71 70/70/70
f 72/72/72 73/73/73 71/71/71
f 76/76/76 75/75/75 74/74/74
f 76/76/76 74/74/74 77/77/77
f 74/74/74 78/78/78 77/77/77
f 74/74/74 79/79/79 78/78/78
f 82/82/82 81/81/81 80/80/80
f 82/82/82 80/80/80 83/83/83
f 86/86/86 85/85/85 84/84/84
f 86/86/86 87/87/87 85/85/85
f 88/88/88 87/87/87 86/86/86
f 88/88/88 89/89/89 87/87/87
f 88/88/88 90/90/90 89/89/89
f 87/87/87 91/91/91 85/85/85
f 88/88/88 92/92/92 90/90/90
f 90/90/90 93/93/93 91/91/91
f 91/91/91 93/93/93 85/85/85
f 90/90/90 94/94/94 93/93/93
f 90/90/90 92/92/92 94/94/94
f 94/94/94 92/92/92 95/95/95
f 85/85/85 93/93/93 96/96/96
f 95/95/95 92/92/92 97/97/97
f 85/85/85 96/96/96 98/98/98
f 85/85/85 98/98/98 99/99/99
f 98/98/98 96/96/96 100/100/100
f 96/96/96 95/95/95 100/100/100
f 100/100/100 95/95/95 97/97/97
f 101/101/101 100/100/100 97/97/97
f 102/102/102 99/99/99 101/101/101
f 101/101/101 97/97/97 103/103/103
f 102/102/102 101/101/101 103/103/103
f 106/106/106 105/105/105 104/104/104
f 106/106/106 104/104/104 107/107/107
f 110/110/110 109/109/109 108/108/108
f 110/110/110 108/108/108 111/111/111
f 114/114/114 113/113/113 112/112/112
f 114/114/114 112/112/112 115/115/115
f 118/118/118 117/117/117 116/116/116
f 118/118/118 116/116/116 119/119/119
f 122/122/122 121/121/121 120/120/120
f 122/122/122 120/120/120 123/123/123
f 126/126/126 125/125/125 124/124/124
f 126/126/126 124/124/124 127/127/127
f 130/130/130 129/129/129 128/128/128
f 130/130/130 131/131/131 129/129/129
f 134/134/134 133/133/133 132/132/132
f 134/134/134 135/135/135 133/133/133
f 138/138/138 137/137/137 136/136/136
f 138/138/138 139/139/139 137/137/137
f 142/142/142 141/141/141 140/140/140
f 142/142/142 143/143/143 141/141/141
f 146/146/146 145/145/145 144/144/144
f 146/146/146 147/147/147 145/145/145
f 150/150/150 149/149/149 148/148/148
f 150/150/150 151/151/151 149/149/149
f 154/154/154 153/153/153 152/152/152
f 154/154/154 152/152/152 155/155/155
f 158/158/158 157/157/157 156/156/156
f 158/158/158 156/156/156 159/159/159
f 162/162/162 161/161/161 160/160/160
f 162/162/162 160/160/160 163/163/163
f 166/166/166 165/165/165 164/164/164
f 166/166/166 164/164/164 167/167/167
f 170/170/170 169/169/169 168/168/168
f 170/170/170 171/171/171 169/169/169
f 170/170/170 172/172/172 171/171/171
f 172/172/172 173/173/173 171/171/171
f 174/174/174 173/173/173 172/172/172
f 175/175/175 173/173/173 174/174/174
f 176/176/176 175/175/175 174/174/174
f 176/176/176 174/174/174 177/177/177
f 176/176/176 178/178/178 175/175/175
f 175/175/175 179/179/179 173/173/173
f 179/179/179 180/180/180 173/173/173
f 179/179/179 181/181/181 180/180/180
f 181/181/181 182/182/182 180/180/180
f 180/180/180 182/182/182 183/183/183
f 184/184/184 182/182/182 181/181/181
f 184/184/184 185/185/185 182/182/182
f 188/188/188 187/187/187 186/186/186
f 188/188/188 189/189/189 187/187/187
f 192/192/192 191/191/191 190/190/190
f 192/192/192 193/193/193 191/191/191
f 196/196/196 195/195/195 194/194/194
f 196/196/196 197/197/197 195/195/195
f 200/200/200 199/199/199 198/198/198
f 200/200/200 201/201/201 199/199/199
f 204/204/204 203/203/203 202/202/202
f 204/204/204 205/205/205 203/203/203
f 208/208/208 207/207/207 206/206/206
f 208/208/208 206/206/206 209/209/209
f 208/208/208 209/209/209 210/210/210
f 209/209/209 211/211/211 210/210/210
f 209/209/209 212/212/212 211/211/211
f 207/207/207 213/213/213 212/212/212
f 212/212/212 213/213/213 211/211/211
f 207/207/207 214/214/214 213/213/213
f 208/208/208 214/214/214 207/207/207
f 213/213/213 215/215/215 211/211/211
f 208/208/208 216/216/216 214/214/214
f 215/215/215 217/217/217 211/211/211
f 208/208/208 217/217/217 216/216/216
f 216/216/216 217/217/217 215/215/215
