g cone
v 0.5 0 0
v -0 0 0.5
v 0.47552827 0.1545085 0
v 0.47552827 0.1545085 0
v -0 0 0.5
v 0.4045085 0.29389262 0
v 0.4045085 0.29389262 0
v -0 0 0.5
v 0.29389262 0.4045085 0
v -0 0 0.5
v 0.15450849 0.47552827 0
v 0.15450849 0.47552827 0
v -0 0 0.5
v -2.1855694E-08 0.5 0
v -2.1855694E-08 0.5 0
v -0 0 0.5
v -0.15450852 0.47552824 0
v -0.15450852 0.47552824 0
v -0 0 0.5
v -0.2938926 0.4045085 0
v -0 0 0.5
v -0.40450853 0.2938926 0
v -0.40450853 0.2938926 0
v -0 0 0.5
v -0.4755283 0.1545084 0
v -0.4755283 0.1545084 0
v -0 0 0.5
v -0.5 -1.6292068E-07 0
v -0.5 -1.6292068E-07 0
v -0 0 0.5
v -0.47552818 -0.15450871 0
v -0.47552818 -0.15450871 0
v -0 0 0.5
v -0.40450832 -0.29389286 0
v -0.40450832 -0.29389286 0
v -0 0 0.5
v -0.29389235 -0.4045087 0
v -0 0 0.5
v -0.1545081 -0.4755284 0
v -0.1545081 -0.4755284 0
v -0 0 0.5
v 4.827996E-07 -0.5 0
v 4.827996E-07 -0.5 0
v -0 0 0.5
v 0.15450902 -0.4755281 0
v -0 0 0.5
v 0.29389313 -0.40450814 0
v -0 0 0.5
v 0.4045089 -0.2938921 0
v 0.4045089 -0.2938921 0
v -0 0 0.5
v 0.47552848 -0.1545078 0
v 0.47552848 -0.1545078 0
v -0 0 0.5
v 0.5 0 0
v 0.47552848 -0.1545078 0
v 0.5 0 0
v 0.47552827 0.1545085 0
v 0.4045089 -0.2938921 0
v 0.4045085 0.29389262 0
v 0.29389313 -0.40450814 0
v 0.29389262 0.4045085 0
v 0.15450902 -0.4755281 0
v 0.15450849 0.47552827 0
v 4.827996E-07 -0.5 0
v -2.1855694E-08 0.5 0
v -0.1545081 -0.4755284 0
v -0.15450852 0.47552824 0
v -0.29389235 -0.4045087 0
v -0.2938926 0.4045085 0
v -0.40450832 -0.29389286 0
v -0.40450853 0.2938926 0
v -0.47552818 -0.15450871 0
v -0.4755283 0.1545084 0
v -0.5 -1.6292068E-07 0
vt 0.75 0
vt 0.5 1
vt 0.8 0
vt 0.34549147 0.97552824
vt 0.5 0.5
vt 0.20610735 0.9045085
vt 0.20610735 0.9045085
vt 0.5 0.5
vt 0.0954915 0.7938926
vt 0.5 0.5
vt 0.02447173 0.6545085
vt 0.95 0
vt 0.5 1
vt 1 0
vt 3.7945494E-08 0
vt 0.5 1
vt 0.05000002 0
vt 0.02447176 0.34549147
vt 0.5 0.5
vt 0.0954915 0.20610738
vt 0.5 0.5
vt 0.20610744 0.09549147
vt 0.20610744 0.09549147
vt 0.5 0.5
vt 0.34549162 0.0244717
vt 0.20000003 0
vt 0.5 1
vt 0.25000006 0
vt 0.5000002 0
vt 0.5 0.5
vt 0.6545087 0.02447182
vt 0.6545087 0.02447182
vt 0.5 0.5
vt 0.79389286 0.09549168
vt 0.79389286 0.09549168
vt 0.5 0.5
vt 0.9045087 0.20610768
vt 0.5 0.5
vt 0.97552836 0.34549192
vt 0.45000014 0
vt 0.5 1
vt 0.5000002 0
vt 1 0.5000005
vt 0.5 0.5
vt 0.9755281 0.65450907
vt 0.5 0.5
vt 0.9045081 0.79389316
vt 0.5 0.5
vt 0.793892 0.9045089
vt 0.793892 0.9045089
vt 0.5 0.5
vt 0.65450776 0.9755285
vt 0.7000002 0
vt 0.5 1
vt 0.75 0
vt 0.65450776 0.9755285
vt 0.49999997 1
vt 0.34549147 0.97552824
vt 0.793892 0.9045089
vt 0.20610735 0.9045085
vt 0.9045081 0.79389316
vt 0.0954915 0.7938926
vt 0.9755281 0.65450907
vt 0.02447173 0.6545085
vt 1 0.5000005
vt 0 0.49999997
vt 0.97552836 0.34549192
vt 0.02447176 0.34549147
vt 0.9045087 0.20610768
vt 0.0954915 0.20610738
vt 0.79389286 0.09549168
vt 0.20610744 0.09549147
vt 0.6545087 0.02447182
vt 0.34549162 0.0244717
vt 0.5000002 0
vn 0.70710677 0 0.70710677
vn 0.67249846 0.218508 0.7071068
vn 0.67249846 0.21850802 0.70710677
vn 0.67249846 0.21850802 0.70710677
vn 0.57206136 0.41562697 0.70710677
vn 0.57206136 0.41562697 0.70710677
vn 0.57206136 0.41562697 0.70710677
vn 0.4156269 0.57206136 0.70710677
vn 0.41562697 0.57206136 0.70710677
vn 0.21850799 0.67249846 0.70710677
vn 0.21850802 0.67249846 0.70710677
vn 0.21850802 0.67249846 0.70710677
vn -0 0.70710677 0.70710677
vn -0 0.70710677 0.70710677
vn -0 0.70710677 0.70710677
vn -0.21850805 0.67249846 0.70710677
vn -0.21850805 0.6724985 0.70710677
vn -0.21850805 0.6724985 0.70710677
vn -0.41562688 0.5720614 0.70710677
vn -0.4156269 0.5720614 0.70710677
vn -0.57206136 0.4156269 0.70710677
vn -0.5720614 0.4156269 0.70710677
vn -0.5720614 0.4156269 0.70710677
vn -0.6724985 0.2185079 0.7071068
vn -0.6724985 0.21850789 0.70710677
vn -0.6724985 0.21850789 0.70710677
vn -0.70710677 0 0.70710677
vn -0.70710677 0 0.70710677
vn -0.70710677 0 0.70710677
vn -0.6724984 -0.2185083 0.70710677
vn -0.6724984 -0.21850829 0.70710677
vn -0.6724984 -0.21850829 0.70710677
vn -0.5720612 -0.4156272 0.70710677
vn -0.5720611 -0.4156272 0.70710677
vn -0.5720611 -0.4156272 0.70710677
vn -0.4156265 -0.57206166 0.70710677
vn -0.4156265 -0.57206166 0.70710677
vn -0.21850742 -0.6724987 0.70710677
vn -0.21850742 -0.6724987 0.70710677
vn -0.21850742 -0.6724987 0.70710677
vn -0 -0.70710677 0.70710677
vn -0 -0.70710677 0.7071067
vn -0 -0.70710677 0.7071067
vn 0.2185087 -0.6724983 0.7071067
vn 0.21850874 -0.6724983 0.70710677
vn 0.41562763 -0.5720609 0.70710677
vn 0.4156276 -0.5720609 0.70710677
vn 0.57206196 -0.41562617 0.70710677
vn 0.57206196 -0.41562617 0.70710677
vn 0.57206196 -0.41562617 0.70710677
vn 0.6724987 -0.21850733 0.70710677
vn 0.6724987 -0.2185073 0.70710677
vn 0.6724987 -0.2185073 0.70710677
vn 0.70710677 0 0.70710677
vn 0.70710677 0 0.70710677
vn -0 0 -1
vn -0 0 -1
vn -0 0 -1
vn -0 0 -1
vn -0 0 -1
vn -0 0 -1
vn -0 0 -1
vn -0 0 -1
vn -0 0 -1
vn -0 0 -1
vn -0 0 -1
vn -0 0 -1
vn -0 0 -1
vn -0 0 -1
vn -0 0 -1
vn -0 0 -1
vn -0 0 -1
vn -0 0 -1
vn -0 0 -1
vn -0 0 -1
g cone_0
f 3/3/3 2/2/2 1/1/1
f 6/6/6 5/5/5 4/4/4
f 9/9/9 8/8/8 7/7/7
f 11/11/11 10/10/10 9/9/9
f 14/14/14 13/13/13 12/12/12
f 17/17/17 16/16/16 15/15/15
f 20/20/20 19/19/19 18/18/18
f 22/22/22 21/21/21 20/20/20
f 25/25/25 24/24/24 23/23/23
f 28/28/28 27/27/27 26/26/26
f 31/31/31 30/30/30 29/29/29
f 34/34/34 33/33/33 32/32/32
f 37/37/37 36/36/36 35/35/35
f 39/39/39 38/38/38 37/37/37
f 42/42/42 41/41/41 40/40/40
f 45/45/45 44/44/44 43/43/43
f 47/47/47 46/46/46 45/45/45
f 49/49/49 48/48/48 47/47/47
f 52/52/52 51/51/51 50/50/50
f 55/55/55 54/54/54 53/53/53
f 58/58/58 57/57/57 56/56/56
f 56/56/56 59/59/59 58/58/58
f 59/59/59 60/60/60 58/58/58
f 59/59/59 61/61/61 60/60/60
f 61/61/61 62/62/62 60/60/60
f 61/61/61 63/63/63 62/62/62
f 63/63/63 64/64/64 62/62/62
f 63/63/63 65/65/65 64/64/64
f 65/65/65 66/66/66 64/64/64
f 65/65/65 67/67/67 66/66/66
f 67/67/67 68/68/68 66/66/66
f 67/67/67 69/69/69 68/68/68
f 69/69/69 70/70/70 68/68/68
f 69/69/69 71/71/71 70/70/70
f 71/71/71 72/72/72 70/70/70
f 71/71/71 73/73/73 72/72/72
f 73/73/73 74/74/74 72/72/72
f 73/73/73 75/75/75 74/74/74
