g default
v -0.24 0.12 0.04
v -0.24 0.04 0.04
v -0.24 0.04 -0.04
v -0.24 0.12 -0.04
v 0.24 0 0.08
v 0.24 0.12 0.08
v 0.24 0 -0.08
v 0.24 0.12 -0.08
v 0.24 0.12 0.08
v 0.24 0.16 0.08
v 0.24 0.12 -0.08
v 0.24 0.16 -0.08
v -0.12 0 0.08
v -0.16 0 0.08
v -0.16 0.16 0.08
v -0.12 0.12 0.08
v 0.24 0.12 0.08
v 0.24 0.16 0.08
v 0.24 0 0.08
v -0.12 0 0.08
v -0.12 0.12 0.08
v 0.24 0.12 0.08
v -0.16 0.04 0.04
v -0.24 0.04 0.04
v -0.24 0.12 0.04
v -0.16 0.12 0.04
v -0.24 0.04 -0.04
v -0.16 0.04 -0.04
v -0.24 0.12 -0.04
v -0.16 0.12 -0.04
v -0.16 0 -0.08
v -0.12 0 -0.08
v -0.16 0.16 -0.08
v -0.12 0.12 -0.08
v 0.24 0.12 -0.08
v 0.24 0.16 -0.08
v -0.12 0 -0.08
v 0.24 0 -0.08
v -0.12 0.12 -0.08
v 0.24 0.12 -0.08
v -0.16 0 -0.08
v -0.16 0 0.08
v -0.12 0 0.08
v -0.12 0 -0.08
v -0.12 0 -0.08
v -0.12 0 0.08
v 0.24 0 0.08
v 0.24 0 -0.08
v -0.24 0.04 -0.04
v -0.24 0.04 0.04
v -0.16 0.04 0.04
v -0.16 0.04 -0.04
v -0.24 0.12 0.04
v -0.24 0.12 -0.04
v -0.16 0.12 0.04
v -0.16 0.12 -0.04
v -0.16 0.16 0.08
v -0.16 0.16 -0.08
v 0.24 0.16 0.08
v 0.24 0.16 -0.08
v -0.16 0.04 -0.04
v -0.16 0.04 0.04
v -0.16 0 -0.08
v -0.16 0.12 -0.04
v -0.16 0 0.08
v -0.16 0.16 -0.08
v -0.16 0.12 0.04
v -0.16 0.16 0.08
vt 0.0332031 0.5
vt 0.0332031 0.5
vt 0.0332031 0.5
vt 0.0332031 0.5
vt 0.00195313 0.5
vt 0.00195313 0.5
vt 0.00195313 0.5
vt 0.00195313 0.5
vt 0.564453 0.5
vt 0.564453 0.5
vt 0.564453 0.5
vt 0.564453 0.5
vt 0.564453 0.5
vt 0.564453 0.5
vt 0.564453 0.5
vt 0.564453 0.5
vt 0.564453 0.5
vt 0.564453 0.5
vt 0.00195313 0.5
vt 0.00195313 0.5
vt 0.00195313 0.5
vt 0.00195313 0.5
vt 0.0332031 0.5
vt 0.0332031 0.5
vt 0.0332031 0.5
vt 0.0332031 0.5
vt 0.0332031 0.5
vt 0.0332031 0.5
vt 0.0332031 0.5
vt 0.0332031 0.5
vt 0.564453 0.5
vt 0.564453 0.5
vt 0.564453 0.5
vt 0.564453 0.5
vt 0.564453 0.5
vt 0.564453 0.5
vt 0.00195313 0.5
vt 0.00195313 0.5
vt 0.00195313 0.5
vt 0.00195313 0.5
vt 0.564453 0.5
vt 0.564453 0.5
vt 0.564453 0.5
vt 0.564453 0.5
vt 0.00195313 0.5
vt 0.00195313 0.5
vt 0.00195313 0.5
vt 0.00195313 0.5
vt 0.0332031 0.5
vt 0.0332031 0.5
vt 0.0332031 0.5
vt 0.0332031 0.5
vt 0.0332031 0.5
vt 0.0332031 0.5
vt 0.0332031 0.5
vt 0.0332031 0.5
vt 0.564453 0.5
vt 0.564453 0.5
vt 0.564453 0.5
vt 0.564453 0.5
vt 0.564453 0.5
vt 0.564453 0.5
vt 0.564453 0.5
vt 0.564453 0.5
vt 0.564453 0.5
vt 0.564453 0.5
vt 0.564453 0.5
vt 0.564453 0.5
vn -1 0 0
vn -1 0 0
vn -1 0 0
vn -1 0 0
vn 1 0 0
vn 1 0 0
vn 1 0 0
vn 1 0 0
vn 1 0 0
vn 1 0 0
vn 1 0 0
vn 1 0 0
vn -0 0 1
vn -0 0 1
vn -0 0 1
vn -0 0 1
vn -0 0 1
vn -0 0 1
vn -0 0 1
vn -0 0 1
vn -0 0 1
vn -0 0 1
vn -0 0 1
vn -0 0 1
vn -0 0 1
vn -0 0 1
vn -0 0 -1
vn -0 0 -1
vn -0 0 -1
vn -0 0 -1
vn -0 0 -1
vn -0 0 -1
vn -0 0 -1
vn -0 0 -1
vn -0 0 -1
vn -0 0 -1
vn -0 0 -1
vn -0 0 -1
vn -0 0 -1
vn -0 0 -1
vn -0 -1 0
vn -0 -1 0
vn -0 -1 0
vn -0 -1 0
vn -0 -1 0
vn -0 -1 0
vn -0 -1 0
vn -0 -1 0
vn -0 -1 0
vn -0 -1 0
vn -0 -1 0
vn -0 -1 0
vn -0 1 0
vn -0 1 0
vn -0 1 0
vn -0 1 0
vn -0 1 0
vn -0 1 0
vn -0 1 0
vn -0 1 0
vn -1 0 0
vn -1 0 0
vn -1 0 0
vn -1 0 0
vn -1 0 0
vn -1 0 0
vn -1 0 0
vn -1 0 0
g default_0
f 3/3/3 2/2/2 1/1/1
f 3/3/3 1/1/1 4/4/4
f 7/7/7 6/6/6 5/5/5
f 7/7/7 8/8/8 6/6/6
f 11/11/11 10/10/10 9/9/9
f 11/11/11 12/12/12 10/10/10
f 15/15/15 14/14/14 13/13/13
f 15/15/15 13/13/13 16/16/16
f 15/15/15 16/16/16 17/17/17
f 15/15/15 17/17/17 18/18/18
f 21/21/21 20/20/20 19/19/19
f 21/21/21 19/19/19 22/22/22
f 25/25/25 24/24/24 23/23/23
f 25/25/25 23/23/23 26/26/26
f 29/29/29 28/28/28 27/27/27
f 29/29/29 30/30/30 28/28/28
f 33/33/33 32/32/32 31/31/31
f 33/33/33 34/34/34 32/32/32
f 33/33/33 35/35/35 34/34/34
f 33/33/33 36/36/36 35/35/35
f 39/39/39 38/38/38 37/37/37
f 39/39/39 40/40/40 38/38/38
f 43/43/43 42/42/42 41/41/41
f 43/43/43 41/41/41 44/44/44
f 47/47/47 46/46/46 45/45/45
f 47/47/47 45/45/45 48/48/48
f 51/51/51 50/50/50 49/49/49
f 51/51/51 49/49/49 52/52/52
f 55/55/55 54/54/54 53/53/53
f 55/55/55 56/56/56 54/54/54
f 59/59/59 58/58/58 57/57/57
f 59/59/59 60/60/60 58/58/58
f 63/63/63 62/62/62 61/61/61
f 63/63/63 61/61/61 64/64/64
f 63/63/63 65/65/65 62/62/62
f 63/63/63 64/64/64 66/66/66
f 62/62/62 65/65/65 67/67/67
f 64/64/64 68/68/68 66/66/66
f 67/67/67 65/65/65 68/68/68
f 64/64/64 67/67/67 68/68/68
