g Mesh
v 0.48 0 -0.48
v -0.48 0 -0.48
v 0.48 0 0.48
v -0.48 0 0.48
v 0.48 0 -0.48
v -0.48 0 -0.48
v 0.48 0.59999996 -0.48
v -0.48 0.59999996 -0.48
v 0.48 0 -0.48
v 0.48 0 -0.42
v 0.48 0.59999996 -0.48
v 0.48 0.59999996 -0.42
v 0.48 0.48 -0.42
v -0.48 0.48 -0.42
v 0.48 0.59999996 -0.42
v -0.48 0.59999996 -0.42
v 0.48 0.59999996 -0.48
v -0.48 0.59999996 -0.48
v 0.48 0.59999996 -0.42
v -0.48 0.59999996 -0.42
v 0.48 0 -0.42
v 0.48 0 0.48
v 0.48 0.48 -0.42
v 0.48 0.48 0.48
v 0.48 0.48 -0.42
v -0.48 0.48 -0.42
v 0.48 0.48 0.42
v -0.48 0.48 0.42
v 0.48 0 0.48
v -0.48 0 0.48
v 0.48 0.59999996 0.48
v -0.48 0.59999996 0.48
v 0.48 0.48 0.42
v -0.48 0.48 0.42
v 0.48 0.59999996 0.42
v -0.48 0.59999996 0.42
v 0.48 0.48 0.42
v 0.48 0.48 0.48
v 0.48 0.59999996 0.42
v 0.48 0.59999996 0.48
v 0.48 0.59999996 0.42
v -0.48 0.59999996 0.42
v 0.48 0.59999996 0.48
v -0.48 0.59999996 0.48
v -0.48 0 -0.48
v -0.48 0 -0.42
v -0.48 0.59999996 -0.48
v -0.48 0.59999996 -0.42
v -0.48 0 -0.42
v -0.48 0 0.48
v -0.48 0.48 -0.42
v -0.48 0.48 0.48
v -0.48 0.48 0.42
v -0.48 0.48 0.48
v -0.48 0.59999996 0.42
v -0.48 0.59999996 0.48
vt 0.9047619 0.027777778
vt 0.95238096 0.027777778
vt 0.9047619 0.05555556
vt 0.95238096 0.05555556
vt 0.9047619 0.027777778
vt 0.95238096 0.027777778
vt 0.9047619 0.05555556
vt 0.95238096 0.05555556
vt 0.9047619 0.027777778
vt 0.95238096 0.027777778
vt 0.9047619 0.05555556
vt 0.95238096 0.05555556
vt 0.9047619 0.027777778
vt 0.95238096 0.027777778
vt 0.9047619 0.05555556
vt 0.95238096 0.05555556
vt 0.9047619 0.027777778
vt 0.95238096 0.027777778
vt 0.9047619 0.05555556
vt 0.95238096 0.05555556
vt 0.04761905 0.75
vt 0.7619048 0.75
vt 0.04761905 0.9722222
vt 0.7619048 0.9722222
vt 0.04761905 0.027777778
vt 0.8095238 0.027777778
vt 0.04761905 0.41666666
vt 0.8095238 0.41666666
vt 0.9047619 0.027777778
vt 0.95238096 0.027777778
vt 0.9047619 0.05555556
vt 0.95238096 0.05555556
vt 0.9047619 0.027777778
vt 0.95238096 0.027777778
vt 0.9047619 0.05555556
vt 0.95238096 0.05555556
vt 0.9047619 0.027777778
vt 0.95238096 0.027777778
vt 0.9047619 0.05555556
vt 0.95238096 0.05555556
vt 0.9047619 0.027777778
vt 0.95238096 0.027777778
vt 0.9047619 0.05555556
vt 0.95238096 0.05555556
vt 0.9047619 0.027777778
vt 0.95238096 0.027777778
vt 0.9047619 0.05555556
vt 0.95238096 0.05555556
vt 0.04761905 0.47222224
vt 0.7619048 0.47222224
vt 0.04761905 0.6944444
vt 0.7619048 0.6944444
vt 0.9047619 0.027777778
vt 0.95238096 0.027777778
vt 0.9047619 0.05555556
vt 0.95238096 0.05555556
vn -0 -0.99999994 0
vn -0 -0.99999994 0
vn -0 -0.99999994 0
vn -0 -0.99999994 0
vn -0 0 -1
vn -0 0 -1
vn -0 0 -1
vn -0 0 -1
vn 1 0 0
vn 1 0 0
vn 1 0 0
vn 1 0 0
vn -0 0 1
vn -0 0 1
vn -0 0 1
vn -0 0 1
vn -0 1 0
vn -0 1 0
vn -0 1 0
vn -0 1 0
vn 0.99999994 0 0
vn 0.99999994 0 0
vn 0.99999994 0 0
vn 0.99999994 0 0
vn -0 0.99999994 0
vn -0 0.99999994 0
vn -0 0.99999994 0
vn -0 0.99999994 0
vn -0 0 1
vn -0 0 1
vn -0 0 1
vn -0 0 1
vn -0 0 -1
vn -0 0 -1
vn -0 0 -1
vn -0 0 -1
vn 1 0 0
vn 1 0 0
vn 1 0 0
vn 1 0 0
vn -0 1 0
vn -0 1 0
vn -0 1 0
vn -0 1 0
vn -1 0 0
vn -1 0 0
vn -1 0 0
vn -1 0 0
vn -0.99999994 0 0
vn -0.99999994 0 0
vn -0.99999994 0 0
vn -0.99999994 0 0
vn -1 0 0
vn -1 0 0
vn -1 0 0
vn -1 0 0
g Mesh_0
f 2/2/2 1/1/1 3/3/3
f 2/2/2 3/3/3 4/4/4
f 5/5/5 6/6/6 7/7/7
f 7/7/7 6/6/6 8/8/8
f 10/10/10 9/9/9 11/11/11
f 10/10/10 11/11/11 12/12/12
f 14/14/14 13/13/13 15/15/15
f 14/14/14 15/15/15 16/16/16
f 17/17/17 18/18/18 19/19/19
f 19/19/19 18/18/18 20/20/20
f 22/22/22 21/21/21 23/23/23
f 22/22/22 23/23/23 24/24/24
f 25/25/25 26/26/26 27/27/27
f 27/27/27 26/26/26 28/28/28
f 30/30/30 29/29/29 31/31/31
f 30/30/30 31/31/31 32/32/32
f 33/33/33 34/34/34 35/35/35
f 35/35/35 34/34/34 36/36/36
f 38/38/38 37/37/37 39/39/39
f 38/38/38 39/39/39 40/40/40
f 41/41/41 42/42/42 43/43/43
f 43/43/43 42/42/42 44/44/44
f 45/45/45 46/46/46 47/47/47
f 47/47/47 46/46/46 48/48/48
f 49/49/49 50/50/50 51/51/51
f 51/51/51 50/50/50 52/52/52
f 53/53/53 54/54/54 55/55/55
f 55/55/55 54/54/54 56/56/56
