g Mesh_0
v 0.1 0 -0.1
v -0.1 0 -0.1
v 0.1 0 0.1
v -0.1 0 0.1
v 0.1 0 -0.1
v -0.1 0 -0.1
v 0.1 0.5 -0.1
v -0.1 0.5 -0.1
v 0.1 0 -0.1
v 0.1 0 0.1
v 0.1 0.5 -0.1
v 0.1 0.5 0.1
v 0.1 0.5 -0.1
v -0.1 0.5 -0.1
v 0.1 0.5 0
v -0.1 0.5 0
v 0.1 0 0.1
v -0.1 0 0.1
v 0.1 0.6 0.1
v -0.1 0.6 0.1
v 0.1 0.6 0
v -0.1 0.6 0
v 0.1 0.6 0.1
v -0.1 0.6 0.1
v 0.1 0.5 0
v -0.1 0.5 0
v 0.1 0.6 0
v -0.1 0.6 0
v 0.1 0.5 0
v 0.1 0.5 0.1
v 0.1 0.6 0
v 0.1 0.6 0.1
v -0.1 0 -0.1
v -0.1 0 0.1
v -0.1 0.5 -0.1
v -0.1 0.5 0.1
v -0.1 0.5 0
v -0.1 0.5 0.1
v -0.1 0.6 0
v -0.1 0.6 0.1
vt 0.8666667 0.06666667
vt 0.93333334 0.06666667
vt 0.8666667 0.13333333
vt 0.93333334 0.13333333
vt 0.06666667 0.6
vt 0.20000002 0.6
vt 0.06666667 0.93333334
vt 0.20000002 0.93333334
vt 0.33333334 0.06666667
vt 0.4666667 0.06666667
vt 0.33333334 0.4
vt 0.4666667 0.4
vt 0.8666667 0.26666668
vt 0.93333334 0.26666668
vt 0.8666667 0.33333334
vt 0.93333334 0.33333334
vt 0.06666667 0.06666667
vt 0.20000002 0.06666667
vt 0.06666667 0.4666667
vt 0.20000002 0.4666667
vt 0.8666667 0.26666668
vt 0.93333334 0.26666668
vt 0.8666667 0.33333334
vt 0.93333334 0.33333334
vt 0.8666667 0.26666668
vt 0.93333334 0.26666668
vt 0.8666667 0.33333334
vt 0.93333334 0.33333334
vt 0.8666667 0.26666668
vt 0.93333334 0.26666668
vt 0.8666667 0.33333334
vt 0.93333334 0.33333334
vt 0.6 0.06666667
vt 0.7333334 0.06666667
vt 0.6 0.4
vt 0.7333334 0.4
vt 0.8666667 0.26666668
vt 0.93333334 0.26666668
vt 0.8666667 0.33333334
vt 0.93333334 0.33333334
vn -0 -1 0
vn -0 -1 0
vn -0 -1 0
vn -0 -1 0
vn -0 0 -1
vn -0 0 -1
vn -0 0 -1
vn -0 0 -1
vn 1 0 0
vn 1 0 0
vn 1 0 0
vn 1 0 0
vn -0 1 0
vn -0 1 0
vn -0 1 0
vn -0 1 0
vn -0 0 1
vn -0 0 1
vn -0 0 1
vn -0 0 1
vn -0 1 0
vn -0 1 0
vn -0 1 0
vn -0 1 0
vn -0 0 -1
vn -0 0 -1
vn -0 0 -1
vn -0 0 -1
vn 1 0 0
vn 1 0 0
vn 1 0 0
vn 1 0 0
vn -1 0 0
vn -1 0 0
vn -1 0 0
vn -1 0 0
vn -1 0 0
vn -1 0 0
vn -1 0 0
vn -1 0 0
g Mesh_0_0
f 2/2/2 1/1/1 3/3/3
f 2/2/2 3/3/3 4/4/4
f 5/5/5 6/6/6 7/7/7
f 7/7/7 6/6/6 8/8/8
f 10/10/10 9/9/9 11/11/11
f 10/10/10 11/11/11 12/12/12
f 13/13/13 14/14/14 15/15/15
f 15/15/15 14/14/14 16/16/16
f 18/18/18 17/17/17 19/19/19
f 18/18/18 19/19/19 20/20/20
f 21/21/21 22/22/22 23/23/23
f 23/23/23 22/22/22 24/24/24
f 25/25/25 26/26/26 27/27/27
f 27/27/27 26/26/26 28/28/28
f 30/30/30 29/29/29 31/31/31
f 30/30/30 31/31/31 32/32/32
f 33/33/33 34/34/34 35/35/35
f 35/35/35 34/34/34 36/36/36
f 37/37/37 38/38/38 39/39/39
f 39/39/39 38/38/38 40/40/40
