g Mesh_0
v 0.05 0.1 -0.15
v -0.05 0.1 -0.15
v 0.05 0.1 -0.05
v -0.05 0.1 -0.05
v 0.05 0 -0.15
v -0.05 0 -0.15
v 0.05 0 0.05
v -0.05 0 0.05
v 0.05 0 -0.15
v -0.05 0 -0.15
v 0.05 0.1 -0.15
v -0.05 0.1 -0.15
v 0.05 0 -0.15
v 0.05 0 0.05
v 0.05 0.1 -0.15
v 0.05 0.1 0.05
v -0.05 0 -0.15
v -0.05 0 0.05
v -0.05 0.1 -0.15
v -0.05 0.1 0.05
v 0.05 0 0.05
v -0.05 0 0.05
v 0.05 0.1 0.05
v -0.05 0.1 0.05
v 0.05 0.2 -0.05
v -0.05 0.2 -0.05
v 0.05 0.2 0.05
v -0.05 0.2 0.05
v 0.05 0.1 -0.05
v -0.05 0.1 -0.05
v 0.05 0.2 -0.05
v -0.05 0.2 -0.05
v 0.05 0.1 -0.05
v 0.05 0.1 0.15
v 0.05 0.2 -0.05
v 0.05 0.2 0.15
v -0.05 0.1 -0.05
v -0.05 0.1 0.15
v -0.05 0.2 -0.05
v -0.05 0.2 0.15
v 0.05 0.1 0.05
v -0.05 0.1 0.05
v 0.05 0.1 0.15
v -0.05 0.1 0.15
v 0.05 0.1 0.15
v -0.05 0.1 0.15
v 0.05 0.5 0.15
v -0.05 0.5 0.15
v 0.05 0.2 0.05
v -0.05 0.2 0.05
v 0.05 0.5 0.05
v -0.05 0.5 0.05
v 0.05 0.2 0.05
v 0.05 0.2 0.15
v 0.05 0.5 0.05
v 0.05 0.5 0.15
v -0.05 0.2 0.05
v -0.05 0.2 0.15
v -0.05 0.5 0.05
v -0.05 0.5 0.15
v 0.05 0.5 0.05
v -0.05 0.5 0.05
v 0.05 0.5 0.15
v -0.05 0.5 0.15
vt 0.125 0.6666667
vt 0.25 0.6666667
vt 0.125 0.8333333
vt 0.25 0.8333333
vt 0.125 0.6666667
vt 0.25 0.6666667
vt 0.125 0.8333333
vt 0.25 0.8333333
vt 0.125 0.6666667
vt 0.25 0.6666667
vt 0.125 0.8333333
vt 0.25 0.8333333
vt 0.125 0.6666667
vt 0.25 0.6666667
vt 0.125 0.8333333
vt 0.25 0.8333333
vt 0.125 0.6666667
vt 0.25 0.6666667
vt 0.125 0.8333333
vt 0.25 0.8333333
vt 0.125 0.6666667
vt 0.25 0.6666667
vt 0.125 0.8333333
vt 0.25 0.8333333
vt 0.125 0.6666667
vt 0.25 0.6666667
vt 0.125 0.8333333
vt 0.25 0.8333333
vt 0.125 0.6666667
vt 0.25 0.6666667
vt 0.125 0.8333333
vt 0.25 0.8333333
vt 0.125 0.16666667
vt 0.375 0.16666667
vt 0.125 0.3333333
vt 0.375 0.3333333
vt 0.625 0.16666667
vt 0.875 0.16666667
vt 0.625 0.3333333
vt 0.875 0.3333333
vt 0.5 0.6666667
vt 0.625 0.6666667
vt 0.5 0.8333333
vt 0.625 0.8333333
vt 0.5 0.6666667
vt 0.625 0.6666667
vt 0.5 0.8333333
vt 0.625 0.8333333
vt 0.5 0.6666667
vt 0.625 0.6666667
vt 0.5 0.8333333
vt 0.625 0.8333333
vt 0.5 0.6666667
vt 0.625 0.6666667
vt 0.5 0.8333333
vt 0.625 0.8333333
vt 0.5 0.6666667
vt 0.625 0.6666667
vt 0.5 0.8333333
vt 0.625 0.8333333
vt 0.5 0.6666667
vt 0.625 0.6666667
vt 0.5 0.8333333
vt 0.625 0.8333333
vn -0 1 0
vn -0 1 0
vn -0 1 0
vn -0 1 0
vn -0 -1 0
vn -0 -1 0
vn -0 -1 0
vn -0 -1 0
vn -0 0 -1
vn -0 0 -1
vn -0 0 -1
vn -0 0 -1
vn 1 0 0
vn 1 0 0
vn 1 0 0
vn 1 0 0
vn -1 0 0
vn -1 0 0
vn -1 0 0
vn -1 0 0
vn -0 0 1
vn -0 0 1
vn -0 0 1
vn -0 0 1
vn -0 1 0
vn -0 1 0
vn -0 1 0
vn -0 1 0
vn -0 0 -1
vn -0 0 -1
vn -0 0 -1
vn -0 0 -1
vn 1 0 0
vn 1 0 0
vn 1 0 0
vn 1 0 0
vn -1 0 0
vn -1 0 0
vn -1 0 0
vn -1 0 0
vn -0 -1 0
vn -0 -1 0
vn -0 -1 0
vn -0 -1 0
vn -0 0 1
vn -0 0 1
vn -0 0 1
vn -0 0 1
vn -0 0 -1
vn -0 0 -1
vn -0 0 -1
vn -0 0 -1
vn 0.99999994 0 0
vn 0.99999994 0 0
vn 0.99999994 0 0
vn 0.99999994 0 0
vn -0.99999994 0 0
vn -0.99999994 0 0
vn -0.99999994 0 0
vn -0.99999994 0 0
vn -0 1 0
vn -0 1 0
vn -0 1 0
vn -0 1 0
g Mesh_0_0
f 1/1/1 2/2/2 3/3/3
f 3/3/3 2/2/2 4/4/4
f 6/6/6 5/5/5 7/7/7
f 6/6/6 7/7/7 8/8/8
f 9/9/9 10/10/10 11/11/11
f 11/11/11 10/10/10 12/12/12
f 14/14/14 13/13/13 15/15/15
f 14/14/14 15/15/15 16/16/16
f 17/17/17 18/18/18 19/19/19
f 19/19/19 18/18/18 20/20/20
f 22/22/22 21/21/21 23/23/23
f 22/22/22 23/23/23 24/24/24
f 25/25/25 26/26/26 27/27/27
f 27/27/27 26/26/26 28/28/28
f 29/29/29 30/30/30 31/31/31
f 31/31/31 30/30/30 32/32/32
f 34/34/34 33/33/33 35/35/35
f 34/34/34 35/35/35 36/36/36
f 37/37/37 38/38/38 39/39/39
f 39/39/39 38/38/38 40/40/40
f 42/42/42 41/41/41 43/43/43
f 42/42/42 43/43/43 44/44/44
f 46/46/46 45/45/45 47/47/47
f 46/46/46 47/47/47 48/48/48
f 49/49/49 50/50/50 51/51/51
f 51/51/51 50/50/50 52/52/52
f 54/54/54 53/53/53 55/55/55
f 54/54/54 55/55/55 56/56/56
f 57/57/57 58/58/58 59/59/59
f 59/59/59 58/58/58 60/60/60
f 61/61/61 62/62/62 63/63/63
f 63/63/63 62/62/62 64/64/64
