g Mesh
v 0.22 0 -0.08
v -0.14 0 -0.08
v 0.22 0 0.08
v -0.14 0 0.08
v 0.22 0 -0.08
v -0.14 0 -0.08
v 0.22 0.16 -0.08
v -0.14 0.16 -0.08
v 0.22 0 -0.08
v 0.22 0 0.08
v 0.22 0.16 -0.08
v 0.22 0.16 0.08
v 0.22 0.16 -0.08
v -0.14 0.16 -0.08
v 0.22 0.16 0.08
v -0.14 0.16 0.08
v 0.22 0 0.08
v -0.14 0 0.08
v 0.22 0.16 0.08
v -0.14 0.16 0.08
v -0.14 0 -0.08
v -0.14 0 -0.04
v -0.14 0.16 -0.08
v -0.14 0.16 -0.04
v -0.14 0 -0.04
v -0.14 0 0.08
v -0.14 0.04 -0.04
v -0.14 0.04 0.08
v -0.14 0.12 -0.04
v -0.14 0.12 0.08
v -0.14 0.16 -0.04
v -0.14 0.16 0.08
v -0.14 0.04 0.04
v -0.14 0.04 0.08
v -0.14 0.12 0.04
v -0.14 0.12 0.08
v -0.14 0.04 -0.04
v -0.22 0.04 -0.04
v -0.14 0.04 0.04
v -0.22 0.04 0.04
v -0.14 0.04 -0.04
v -0.22 0.04 -0.04
v -0.14 0.12 -0.04
v -0.22 0.12 -0.04
v -0.14 0.12 -0.04
v -0.22 0.12 -0.04
v -0.14 0.12 0.04
v -0.22 0.12 0.04
v -0.14 0.04 0.04
v -0.22 0.04 0.04
v -0.14 0.12 0.04
v -0.22 0.12 0.04
v -0.22 0.04 -0.04
v -0.22 0.04 0.04
v -0.22 0.12 -0.04
v -0.22 0.12 0.04
vt 0.8181819 0.8666667
vt 0.9090909 0.8666667
vt 0.8181819 0.93333334
vt 0.9090909 0.93333334
vt 0.8181819 0.8666667
vt 0.9090909 0.8666667
vt 0.8181819 0.93333334
vt 0.9090909 0.93333334
vt 0.8181819 0.8666667
vt 0.9090909 0.8666667
vt 0.8181819 0.93333334
vt 0.9090909 0.93333334
vt 0.09090909 0.46666667
vt 0.9090909 0.46666667
vt 0.09090909 0.73333335
vt 0.9090909 0.73333335
vt 0.09090909 0.06666667
vt 0.9090909 0.06666667
vt 0.09090909 0.33333334
vt 0.9090909 0.33333334
vt 0.8181819 0.8666667
vt 0.9090909 0.8666667
vt 0.8181819 0.93333334
vt 0.9090909 0.93333334
vt 0.8181819 0.8666667
vt 0.9090909 0.8666667
vt 0.8181819 0.93333334
vt 0.9090909 0.93333334
vt 0.36363637 0.8666667
vt 0.6363636 0.8666667
vt 0.36363637 0.93333334
vt 0.6363636 0.93333334
vt 0.8181819 0.8666667
vt 0.9090909 0.8666667
vt 0.8181819 0.93333334
vt 0.9090909 0.93333334
vt 0.09090909 0.8666667
vt 0.18181819 0.8666667
vt 0.09090909 0.93333334
vt 0.18181819 0.93333334
vt 0.09090909 0.8666667
vt 0.18181819 0.8666667
vt 0.09090909 0.93333334
vt 0.18181819 0.93333334
vt 0.09090909 0.8666667
vt 0.18181819 0.8666667
vt 0.09090909 0.93333334
vt 0.18181819 0.93333334
vt 0.09090909 0.8666667
vt 0.18181819 0.8666667
vt 0.09090909 0.93333334
vt 0.18181819 0.93333334
vt 0.09090909 0.8666667
vt 0.18181819 0.8666667
vt 0.09090909 0.93333334
vt 0.18181819 0.93333334
vn -0 -1 0
vn -0 -1 0
vn -0 -1 0
vn -0 -1 0
vn -0 0 -1
vn -0 0 -1
vn -0 0 -1
vn -0 0 -1
vn 1 0 0
vn 1 0 0
vn 1 0 0
vn 1 0 0
vn -0 1 0
vn -0 1 0
vn -0 1 0
vn -0 1 0
vn -0 0 1
vn -0 0 1
vn -0 0 1
vn -0 0 1
vn -1 0 0
vn -1 0 0
vn -1 0 0
vn -1 0 0
vn -1 0 0
vn -1 0 0
vn -1 0 0
vn -1 0 0
vn -1 0 0
vn -1 0 0
vn -1 0 0
vn -1 0 0
vn -1 0 0
vn -1 0 0
vn -1 0 0
vn -1 0 0
vn -0 -1 0
vn -0 -1 0
vn -0 -1 0
vn -0 -1 0
vn -0 0 -1
vn -0 0 -1
vn -0 0 -1
vn -0 0 -1
vn -0 1 0
vn -0 1 0
vn -0 1 0
vn -0 1 0
vn -0 0 1
vn -0 0 1
vn -0 0 1
vn -0 0 1
vn -1 0 0
vn -1 0 0
vn -1 0 0
vn -1 0 0
g Mesh_0
f 2/2/2 1/1/1 3/3/3
f 2/2/2 3/3/3 4/4/4
f 5/5/5 6/6/6 7/7/7
f 7/7/7 6/6/6 8/8/8
f 10/10/10 9/9/9 11/11/11
f 10/10/10 11/11/11 12/12/12
f 13/13/13 14/14/14 15/15/15
f 15/15/15 14/14/14 16/16/16
f 18/18/18 17/17/17 19/19/19
f 18/18/18 19/19/19 20/20/20
f 21/21/21 22/22/22 23/23/23
f 23/23/23 22/22/22 24/24/24
f 25/25/25 26/26/26 27/27/27
f 27/27/27 26/26/26 28/28/28
f 29/29/29 30/30/30 31/31/31
f 31/31/31 30/30/30 32/32/32
f 33/33/33 34/34/34 35/35/35
f 35/35/35 34/34/34 36/36/36
f 38/38/38 37/37/37 39/39/39
f 38/38/38 39/39/39 40/40/40
f 41/41/41 42/42/42 43/43/43
f 43/43/43 42/42/42 44/44/44
f 45/45/45 46/46/46 47/47/47
f 47/47/47 46/46/46 48/48/48
f 50/50/50 49/49/49 51/51/51
f 50/50/50 51/51/51 52/52/52
f 53/53/53 54/54/54 55/55/55
f 55/55/55 54/54/54 56/56/56
