g Mesh
v 0.099999994 0.12 -0.02
v 0.06 0.12 -0.02
v 0.099999994 0.12 0.02
v 0.06 0.12 0.02
v 0.099999994 0.08 -0.02
v 0.06 0.08 -0.02
v 0.099999994 0.08 0.02
v 0.06 0.08 0.02
v 0.099999994 0.08 -0.02
v 0.06 0.08 -0.02
v 0.099999994 0.12 -0.02
v 0.06 0.12 -0.02
v 0.099999994 0.08 0.02
v 0.06 0.08 0.02
v 0.099999994 0.12 0.02
v 0.06 0.12 0.02
v 0.099999994 0.08 -0.02
v 0.099999994 0.08 0.02
v 0.099999994 0.12 -0.02
v 0.099999994 0.12 0.02
v 0.06 0.12 -0.06
v 0.02 0.12 -0.06
v 0.06 0.12 -0.02
v 0.02 0.12 -0.02
v 0.06 0.08 -0.06
v 0.02 0.08 -0.06
v 0.06 0.08 -0.02
v 0.02 0.08 -0.02
v 0.06 0.08 -0.06
v 0.02 0.08 -0.06
v 0.06 0.12 -0.06
v 0.02 0.12 -0.06
v 0.06 0.08 -0.06
v 0.06 0.08 -0.02
v 0.06 0.12 -0.06
v 0.06 0.12 -0.02
v 0.06 0.04 -0.02
v 0.02 0.04 -0.02
v 0.06 0.04 0.02
v 0.02 0.04 0.02
v 0.06 0.04 -0.02
v 0.02 0.04 -0.02
v 0.06 0.08 -0.02
v 0.02 0.08 -0.02
v 0.06 0.04 0.02
v 0.02 0.04 0.02
v 0.06 0.08 0.02
v 0.02 0.08 0.02
v 0.06 0.04 -0.02
v 0.06 0.04 0.02
v 0.06 0.08 -0.02
v 0.06 0.08 0.02
v 0.06 0.16 -0.02
v 0.02 0.16 -0.02
v 0.06 0.16 0.02
v 0.02 0.16 0.02
v 0.06 0.12 -0.02
v 0.02 0.12 -0.02
v 0.06 0.16 -0.02
v 0.02 0.16 -0.02
v 0.06 0.12 0.02
v 0.02 0.12 0.02
v 0.06 0.16 0.02
v 0.02 0.16 0.02
v 0.06 0.12 -0.02
v 0.06 0.12 0.02
v 0.06 0.16 -0.02
v 0.06 0.16 0.02
v 0.06 0.12 0.02
v 0.02 0.12 0.02
v 0.06 0.12 0.06
v 0.02 0.12 0.06
v 0.06 0.08 0.02
v 0.02 0.08 0.02
v 0.06 0.08 0.06
v 0.02 0.08 0.06
v 0.06 0.08 0.06
v 0.02 0.08 0.06
v 0.06 0.12 0.06
v 0.02 0.12 0.06
v 0.06 0.08 0.02
v 0.06 0.08 0.06
v 0.06 0.12 0.02
v 0.06 0.12 0.06
v 0.02 0.12 -0.099999994
v -0.02 0.12 -0.099999994
v 0.02 0.12 -0.06
v -0.02 0.12 -0.06
v 0.02 0.08 -0.099999994
v -0.02 0.08 -0.099999994
v 0.02 0.08 -0.06
v -0.02 0.08 -0.06
v 0.02 0.08 -0.099999994
v -0.02 0.08 -0.099999994
v 0.02 0.12 -0.099999994
v -0.02 0.12 -0.099999994
v 0.02 0.08 -0.099999994
v 0.02 0.08 -0.06
v 0.02 0.12 -0.099999994
v 0.02 0.12 -0.06
v -0.02 0.08 -0.099999994
v -0.02 0.08 -0.06
v -0.02 0.12 -0.099999994
v -0.02 0.12 -0.06
v 0.02 0.04 -0.06
v -0.02 0.04 -0.06
v 0.02 0.04 -0.02
v -0.02 0.04 -0.02
v 0.02 0.04 -0.06
v -0.02 0.04 -0.06
v 0.02 0.08 -0.06
v -0.02 0.08 -0.06
v 0.02 0.04 -0.06
v 0.02 0.04 -0.02
v 0.02 0.08 -0.06
v 0.02 0.08 -0.02
v -0.02 0.04 -0.06
v -0.02 0.04 -0.02
v -0.02 0.08 -0.06
v -0.02 0.08 -0.02
v 0.02 0.16 -0.06
v -0.02 0.16 -0.06
v 0.02 0.16 -0.02
v -0.02 0.16 -0.02
v 0.02 0.12 -0.06
v -0.02 0.12 -0.06
v 0.02 0.16 -0.06
v -0.02 0.16 -0.06
v 0.02 0.12 -0.06
v 0.02 0.12 -0.02
v 0.02 0.16 -0.06
v 0.02 0.16 -0.02
v -0.02 0.12 -0.06
v -0.02 0.12 -0.02
v -0.02 0.16 -0.06
v -0.02 0.16 -0.02
v 0.02 0 -0.02
v -0.02 0 -0.02
v 0.02 0 0.02
v -0.02 0 0.02
v 0.02 0 -0.02
v -0.02 0 -0.02
v 0.02 0.04 -0.02
v -0.02 0.04 -0.02
v 0.02 0 0.02
v -0.02 0 0.02
v 0.02 0.04 0.02
v -0.02 0.04 0.02
v 0.02 0 -0.02
v 0.02 0 0.02
v 0.02 0.04 -0.02
v 0.02 0.04 0.02
v -0.02 0 -0.02
v -0.02 0 0.02
v -0.02 0.04 -0.02
v -0.02 0.04 0.02
v 0.02 0.19999999 -0.02
v -0.02 0.19999999 -0.02
v 0.02 0.19999999 0.02
v -0.02 0.19999999 0.02
v 0.02 0.16 -0.02
v -0.02 0.16 -0.02
v 0.02 0.19999999 -0.02
v -0.02 0.19999999 -0.02
v 0.02 0.16 0.02
v -0.02 0.16 0.02
v 0.02 0.19999999 0.02
v -0.02 0.19999999 0.02
v 0.02 0.16 -0.02
v 0.02 0.16 0.02
v 0.02 0.19999999 -0.02
v 0.02 0.19999999 0.02
v -0.02 0.16 -0.02
v -0.02 0.16 0.02
v -0.02 0.19999999 -0.02
v -0.02 0.19999999 0.02
v 0.02 0.04 0.02
v -0.02 0.04 0.02
v 0.02 0.04 0.06
v -0.02 0.04 0.06
v 0.02 0.04 0.06
v -0.02 0.04 0.06
v 0.02 0.08 0.06
v -0.02 0.08 0.06
v 0.02 0.04 0.02
v 0.02 0.04 0.06
v 0.02 0.08 0.02
v 0.02 0.08 0.06
v -0.02 0.04 0.02
v -0.02 0.04 0.06
v -0.02 0.08 0.02
v -0.02 0.08 0.06
v 0.02 0.16 0.02
v -0.02 0.16 0.02
v 0.02 0.16 0.06
v -0.02 0.16 0.06
v 0.02 0.12 0.06
v -0.02 0.12 0.06
v 0.02 0.16 0.06
v -0.02 0.16 0.06
v 0.02 0.12 0.02
v 0.02 0.12 0.06
v 0.02 0.16 0.02
v 0.02 0.16 0.06
v -0.02 0.12 0.02
v -0.02 0.12 0.06
v -0.02 0.16 0.02
v -0.02 0.16 0.06
v 0.02 0.12 0.06
v -0.02 0.12 0.06
v 0.02 0.12 0.099999994
v -0.02 0.12 0.099999994
v 0.02 0.08 0.06
v -0.02 0.08 0.06
v 0.02 0.08 0.099999994
v -0.02 0.08 0.099999994
v 0.02 0.08 0.099999994
v -0.02 0.08 0.099999994
v 0.02 0.12 0.099999994
v -0.02 0.12 0.099999994
v 0.02 0.08 0.06
v 0.02 0.08 0.099999994
v 0.02 0.12 0.06
v 0.02 0.12 0.099999994
v -0.02 0.08 0.06
v -0.02 0.08 0.099999994
v -0.02 0.12 0.06
v -0.02 0.12 0.099999994
v -0.02 0.12 -0.06
v -0.06 0.12 -0.06
v -0.02 0.12 -0.02
v -0.06 0.12 -0.02
v -0.02 0.08 -0.06
v -0.06 0.08 -0.06
v -0.02 0.08 -0.02
v -0.06 0.08 -0.02
v -0.02 0.08 -0.06
v -0.06 0.08 -0.06
v -0.02 0.12 -0.06
v -0.06 0.12 -0.06
v -0.06 0.08 -0.06
v -0.06 0.08 -0.02
v -0.06 0.12 -0.06
v -0.06 0.12 -0.02
v -0.02 0.04 -0.02
v -0.06 0.04 -0.02
v -0.02 0.04 0.02
v -0.06 0.04 0.02
v -0.02 0.04 -0.02
v -0.06 0.04 -0.02
v -0.02 0.08 -0.02
v -0.06 0.08 -0.02
v -0.02 0.04 0.02
v -0.06 0.04 0.02
v -0.02 0.08 0.02
v -0.06 0.08 0.02
v -0.06 0.04 -0.02
v -0.06 0.04 0.02
v -0.06 0.08 -0.02
v -0.06 0.08 0.02
v -0.02 0.16 -0.02
v -0.06 0.16 -0.02
v -0.02 0.16 0.02
v -0.06 0.16 0.02
v -0.02 0.12 -0.02
v -0.06 0.12 -0.02
v -0.02 0.16 -0.02
v -0.06 0.16 -0.02
v -0.02 0.12 0.02
v -0.06 0.12 0.02
v -0.02 0.16 0.02
v -0.06 0.16 0.02
v -0.06 0.12 -0.02
v -0.06 0.12 0.02
v -0.06 0.16 -0.02
v -0.06 0.16 0.02
v -0.02 0.12 0.02
v -0.06 0.12 0.02
v -0.02 0.12 0.06
v -0.06 0.12 0.06
v -0.02 0.08 0.02
v -0.06 0.08 0.02
v -0.02 0.08 0.06
v -0.06 0.08 0.06
v -0.02 0.08 0.06
v -0.06 0.08 0.06
v -0.02 0.12 0.06
v -0.06 0.12 0.06
v -0.06 0.08 0.02
v -0.06 0.08 0.06
v -0.06 0.12 0.02
v -0.06 0.12 0.06
v -0.06 0.12 -0.02
v -0.099999994 0.12 -0.02
v -0.06 0.12 0.02
v -0.099999994 0.12 0.02
v -0.06 0.08 -0.02
v -0.099999994 0.08 -0.02
v -0.06 0.08 0.02
v -0.099999994 0.08 0.02
v -0.06 0.08 -0.02
v -0.099999994 0.08 -0.02
v -0.06 0.12 -0.02
v -0.099999994 0.12 -0.02
v -0.06 0.08 0.02
v -0.099999994 0.08 0.02
v -0.06 0.12 0.02
v -0.099999994 0.12 0.02
v -0.099999994 0.08 -0.02
v -0.099999994 0.08 0.02
v -0.099999994 0.12 -0.02
v -0.099999994 0.12 0.02
vt 0.33333334 0.33333334
vt 0.6666666 0.33333334
vt 0.33333334 0.6666666
vt 0.6666666 0.6666666
vt 0.33333334 0.33333334
vt 0.6666666 0.33333334
vt 0.33333334 0.6666666
vt 0.6666666 0.6666666
vt 0.33333334 0.33333334
vt 0.6666666 0.33333334
vt 0.33333334 0.6666666
vt 0.6666666 0.6666666
vt 0.33333334 0.33333334
vt 0.6666666 0.33333334
vt 0.33333334 0.6666666
vt 0.6666666 0.6666666
vt 0.33333334 0.33333334
vt 0.6666666 0.33333334
vt 0.33333334 0.6666666
vt 0.6666666 0.6666666
vt 0.33333334 0.33333334
vt 0.6666666 0.33333334
vt 0.33333334 0.6666666
vt 0.6666666 0.6666666
vt 0.33333334 0.33333334
vt 0.6666666 0.33333334
vt 0.33333334 0.6666666
vt 0.6666666 0.6666666
vt 0.33333334 0.33333334
vt 0.6666666 0.33333334
vt 0.33333334 0.6666666
vt 0.6666666 0.6666666
vt 0.33333334 0.33333334
vt 0.6666666 0.33333334
vt 0.33333334 0.6666666
vt 0.6666666 0.6666666
vt 0.33333334 0.33333334
vt 0.6666666 0.33333334
vt 0.33333334 0.6666666
vt 0.6666666 0.6666666
vt 0.33333334 0.33333334
vt 0.6666666 0.33333334
vt 0.33333334 0.6666666
vt 0.6666666 0.6666666
vt 0.33333334 0.33333334
vt 0.6666666 0.33333334
vt 0.33333334 0.6666666
vt 0.6666666 0.6666666
vt 0.33333334 0.33333334
vt 0.6666666 0.33333334
vt 0.33333334 0.6666666
vt 0.6666666 0.6666666
vt 0.33333334 0.33333334
vt 0.6666666 0.33333334
vt 0.33333334 0.6666666
vt 0.6666666 0.6666666
vt 0.33333334 0.33333334
vt 0.6666666 0.33333334
vt 0.33333334 0.6666666
vt 0.6666666 0.6666666
vt 0.33333334 0.33333334
vt 0.6666666 0.33333334
vt 0.33333334 0.6666666
vt 0.6666666 0.6666666
vt 0.33333334 0.33333334
vt 0.6666666 0.33333334
vt 0.33333334 0.6666666
vt 0.6666666 0.6666666
vt 0.33333334 0.33333334
vt 0.6666666 0.33333334
vt 0.33333334 0.6666666
vt 0.6666666 0.6666666
vt 0.33333334 0.33333334
vt 0.6666666 0.33333334
vt 0.33333334 0.6666666
vt 0.6666666 0.6666666
vt 0.33333334 0.33333334
vt 0.6666666 0.33333334
vt 0.33333334 0.6666666
vt 0.6666666 0.6666666
vt 0.33333334 0.33333334
vt 0.6666666 0.33333334
vt 0.33333334 0.6666666
vt 0.6666666 0.6666666
vt 0.33333334 0.33333334
vt 0.6666666 0.33333334
vt 0.33333334 0.6666666
vt 0.6666666 0.6666666
vt 0.33333334 0.33333334
vt 0.6666666 0.33333334
vt 0.33333334 0.6666666
vt 0.6666666 0.6666666
vt 0.33333334 0.33333334
vt 0.6666666 0.33333334
vt 0.33333334 0.6666666
vt 0.6666666 0.6666666
vt 0.33333334 0.33333334
vt 0.6666666 0.33333334
vt 0.33333334 0.6666666
vt 0.6666666 0.6666666
vt 0.33333334 0.33333334
vt 0.6666666 0.33333334
vt 0.33333334 0.6666666
vt 0.6666666 0.6666666
vt 0.33333334 0.33333334
vt 0.6666666 0.33333334
vt 0.33333334 0.6666666
vt 0.6666666 0.6666666
vt 0.33333334 0.33333334
vt 0.6666666 0.33333334
vt 0.33333334 0.6666666
vt 0.6666666 0.6666666
vt 0.33333334 0.33333334
vt 0.6666666 0.33333334
vt 0.33333334 0.6666666
vt 0.6666666 0.6666666
vt 0.33333334 0.33333334
vt 0.6666666 0.33333334
vt 0.33333334 0.6666666
vt 0.6666666 0.6666666
vt 0.33333334 0.33333334
vt 0.6666666 0.33333334
vt 0.33333334 0.6666666
vt 0.6666666 0.6666666
vt 0.33333334 0.33333334
vt 0.6666666 0.33333334
vt 0.33333334 0.6666666
vt 0.6666666 0.6666666
vt 0.33333334 0.33333334
vt 0.6666666 0.33333334
vt 0.33333334 0.6666666
vt 0.6666666 0.6666666
vt 0.33333334 0.33333334
vt 0.6666666 0.33333334
vt 0.33333334 0.6666666
vt 0.6666666 0.6666666
vt 0.33333334 0.33333334
vt 0.6666666 0.33333334
vt 0.33333334 0.6666666
vt 0.6666666 0.6666666
vt 0.33333334 0.33333334
vt 0.6666666 0.33333334
vt 0.33333334 0.6666666
vt 0.6666666 0.6666666
vt 0.33333334 0.33333334
vt 0.6666666 0.33333334
vt 0.33333334 0.6666666
vt 0.6666666 0.6666666
vt 0.33333334 0.33333334
vt 0.6666666 0.33333334
vt 0.33333334 0.6666666
vt 0.6666666 0.6666666
vt 0.33333334 0.33333334
vt 0.6666666 0.33333334
vt 0.33333334 0.6666666
vt 0.6666666 0.6666666
vt 0.33333334 0.33333334
vt 0.6666666 0.33333334
vt 0.33333334 0.6666666
vt 0.6666666 0.6666666
vt 0.33333334 0.33333334
vt 0.6666666 0.33333334
vt 0.33333334 0.6666666
vt 0.6666666 0.6666666
vt 0.33333334 0.33333334
vt 0.6666666 0.33333334
vt 0.33333334 0.6666666
vt 0.6666666 0.6666666
vt 0.33333334 0.33333334
vt 0.6666666 0.33333334
vt 0.33333334 0.6666666
vt 0.6666666 0.6666666
vt 0.33333334 0.33333334
vt 0.6666666 0.33333334
vt 0.33333334 0.6666666
vt 0.6666666 0.6666666
vt 0.33333334 0.33333334
vt 0.6666666 0.33333334
vt 0.33333334 0.6666666
vt 0.6666666 0.6666666
vt 0.33333334 0.33333334
vt 0.6666666 0.33333334
vt 0.33333334 0.6666666
vt 0.6666666 0.6666666
vt 0.33333334 0.33333334
vt 0.6666666 0.33333334
vt 0.33333334 0.6666666
vt 0.6666666 0.6666666
vt 0.33333334 0.33333334
vt 0.6666666 0.33333334
vt 0.33333334 0.6666666
vt 0.6666666 0.6666666
vt 0.33333334 0.33333334
vt 0.6666666 0.33333334
vt 0.33333334 0.6666666
vt 0.6666666 0.6666666
vt 0.33333334 0.33333334
vt 0.6666666 0.33333334
vt 0.33333334 0.6666666
vt 0.6666666 0.6666666
vt 0.33333334 0.33333334
vt 0.6666666 0.33333334
vt 0.33333334 0.6666666
vt 0.6666666 0.6666666
vt 0.33333334 0.33333334
vt 0.6666666 0.33333334
vt 0.33333334 0.6666666
vt 0.6666666 0.6666666
vt 0.33333334 0.33333334
vt 0.6666666 0.33333334
vt 0.33333334 0.6666666
vt 0.6666666 0.6666666
vt 0.33333334 0.33333334
vt 0.6666666 0.33333334
vt 0.33333334 0.6666666
vt 0.6666666 0.6666666
vt 0.33333334 0.33333334
vt 0.6666666 0.33333334
vt 0.33333334 0.6666666
vt 0.6666666 0.6666666
vt 0.33333334 0.33333334
vt 0.6666666 0.33333334
vt 0.33333334 0.6666666
vt 0.6666666 0.6666666
vt 0.33333334 0.33333334
vt 0.6666666 0.33333334
vt 0.33333334 0.6666666
vt 0.6666666 0.6666666
vt 0.33333334 0.33333334
vt 0.6666666 0.33333334
vt 0.33333334 0.6666666
vt 0.6666666 0.6666666
vt 0.33333334 0.33333334
vt 0.6666666 0.33333334
vt 0.33333334 0.6666666
vt 0.6666666 0.6666666
vt 0.33333334 0.33333334
vt 0.6666666 0.33333334
vt 0.33333334 0.6666666
vt 0.6666666 0.6666666
vt 0.33333334 0.33333334
vt 0.6666666 0.33333334
vt 0.33333334 0.6666666
vt 0.6666666 0.6666666
vt 0.33333334 0.33333334
vt 0.6666666 0.33333334
vt 0.33333334 0.6666666
vt 0.6666666 0.6666666
vt 0.33333334 0.33333334
vt 0.6666666 0.33333334
vt 0.33333334 0.6666666
vt 0.6666666 0.6666666
vt 0.33333334 0.33333334
vt 0.6666666 0.33333334
vt 0.33333334 0.6666666
vt 0.6666666 0.6666666
vt 0.33333334 0.33333334
vt 0.6666666 0.33333334
vt 0.33333334 0.6666666
vt 0.6666666 0.6666666
vt 0.33333334 0.33333334
vt 0.6666666 0.33333334
vt 0.33333334 0.6666666
vt 0.6666666 0.6666666
vt 0.33333334 0.33333334
vt 0.6666666 0.33333334
vt 0.33333334 0.6666666
vt 0.6666666 0.6666666
vt 0.33333334 0.33333334
vt 0.6666666 0.33333334
vt 0.33333334 0.6666666
vt 0.6666666 0.6666666
vt 0.33333334 0.33333334
vt 0.6666666 0.33333334
vt 0.33333334 0.6666666
vt 0.6666666 0.6666666
vt 0.33333334 0.33333334
vt 0.6666666 0.33333334
vt 0.33333334 0.6666666
vt 0.6666666 0.6666666
vt 0.33333334 0.33333334
vt 0.6666666 0.33333334
vt 0.33333334 0.6666666
vt 0.6666666 0.6666666
vt 0.33333334 0.33333334
vt 0.6666666 0.33333334
vt 0.33333334 0.6666666
vt 0.6666666 0.6666666
vt 0.33333334 0.33333334
vt 0.6666666 0.33333334
vt 0.33333334 0.6666666
vt 0.6666666 0.6666666
vt 0.33333334 0.33333334
vt 0.6666666 0.33333334
vt 0.33333334 0.6666666
vt 0.6666666 0.6666666
vt 0.33333334 0.33333334
vt 0.6666666 0.33333334
vt 0.33333334 0.6666666
vt 0.6666666 0.6666666
vt 0.33333334 0.33333334
vt 0.6666666 0.33333334
vt 0.33333334 0.6666666
vt 0.6666666 0.6666666
vt 0.33333334 0.33333334
vt 0.6666666 0.33333334
vt 0.33333334 0.6666666
vt 0.6666666 0.6666666
vt 0.33333334 0.33333334
vt 0.6666666 0.33333334
vt 0.33333334 0.6666666
vt 0.6666666 0.6666666
vn -0 1 0
vn -0 1 0
vn -0 1 0
vn -0 1 0
vn -0 -1 0
vn -0 -1 0
vn -0 -1 0
vn -0 -1 0
vn -0 0 -1
vn -0 0 -1
vn -0 0 -1
vn -0 0 -1
vn -0 0 1
vn -0 0 1
vn -0 0 1
vn -0 0 1
vn 1 0 0
vn 1 0 0
vn 1 0 0
vn 1 0 0
vn -0 1 0
vn -0 1 0
vn -0 1 0
vn -0 1 0
vn -0 -1 0
vn -0 -1 0
vn -0 -1 0
vn -0 -1 0
vn -0 0 -1
vn -0 0 -1
vn -0 0 -1
vn -0 0 -1
vn 1 0 0
vn 1 0 0
vn 1 0 0
vn 1 0 0
vn -0 -1 0
vn -0 -1 0
vn -0 -1 0
vn -0 -1 0
vn -0 0 -1
vn -0 0 -1
vn -0 0 -1
vn -0 0 -1
vn -0 0 1
vn -0 0 1
vn -0 0 1
vn -0 0 1
vn 1 0 0
vn 1 0 0
vn 1 0 0
vn 1 0 0
vn -0 1 0
vn -0 1 0
vn -0 1 0
vn -0 1 0
vn -0 0 -1
vn -0 0 -1
vn -0 0 -1
vn -0 0 -1
vn -0 0 1
vn -0 0 1
vn -0 0 1
vn -0 0 1
vn 1 0 0
vn 1 0 0
vn 1 0 0
vn 1 0 0
vn -0 1 0
vn -0 1 0
vn -0 1 0
vn -0 1 0
vn -0 -1 0
vn -0 -1 0
vn -0 -1 0
vn -0 -1 0
vn -0 0 1
vn -0 0 1
vn -0 0 1
vn -0 0 1
vn 1 0 0
vn 1 0 0
vn 1 0 0
vn 1 0 0
vn -0 1 0
vn -0 1 0
vn -0 1 0
vn -0 1 0
vn -0 -1 0
vn -0 -1 0
vn -0 -1 0
vn -0 -1 0
vn -0 0 -1
vn -0 0 -1
vn -0 0 -1
vn -0 0 -1
vn 1 0 0
vn 1 0 0
vn 1 0 0
vn 1 0 0
vn -1 0 0
vn -1 0 0
vn -1 0 0
vn -1 0 0
vn -0 -1 0
vn -0 -1 0
vn -0 -1 0
vn -0 -1 0
vn -0 0 -1
vn -0 0 -1
vn -0 0 -1
vn -0 0 -1
vn 1 0 0
vn 1 0 0
vn 1 0 0
vn 1 0 0
vn -1 0 0
vn -1 0 0
vn -1 0 0
vn -1 0 0
vn -0 1 0
vn -0 1 0
vn -0 1 0
vn -0 1 0
vn -0 0 -1
vn -0 0 -1
vn -0 0 -1
vn -0 0 -1
vn 1 0 0
vn 1 0 0
vn 1 0 0
vn 1 0 0
vn -1 0 0
vn -1 0 0
vn -1 0 0
vn -1 0 0
vn -0 -1 0
vn -0 -1 0
vn -0 -1 0
vn -0 -1 0
vn -0 0 -1
vn -0 0 -1
vn -0 0 -1
vn -0 0 -1
vn -0 0 1
vn -0 0 1
vn -0 0 1
vn -0 0 1
vn 1 0 0
vn 1 0 0
vn 1 0 0
vn 1 0 0
vn -1 0 0
vn -1 0 0
vn -1 0 0
vn -1 0 0
vn -0 1 0
vn -0 1 0
vn -0 1 0
vn -0 1 0
vn -0 0 -0.99999994
vn -0 0 -0.99999994
vn -0 0 -0.99999994
vn -0 0 -0.99999994
vn -0 0 0.99999994
vn -0 0 0.99999994
vn -0 0 0.99999994
vn -0 0 0.99999994
vn 0.99999994 0 0
vn 0.99999994 0 0
vn 0.99999994 0 0
vn 0.99999994 0 0
vn -0.99999994 0 0
vn -0.99999994 0 0
vn -0.99999994 0 0
vn -0.99999994 0 0
vn -0 -1 0
vn -0 -1 0
vn -0 -1 0
vn -0 -1 0
vn -0 0 1
vn -0 0 1
vn -0 0 1
vn -0 0 1
vn 1 0 0
vn 1 0 0
vn 1 0 0
vn 1 0 0
vn -1 0 0
vn -1 0 0
vn -1 0 0
vn -1 0 0
vn -0 1 0
vn -0 1 0
vn -0 1 0
vn -0 1 0
vn -0 0 1
vn -0 0 1
vn -0 0 1
vn -0 0 1
vn 1 0 0
vn 1 0 0
vn 1 0 0
vn 1 0 0
vn -1 0 0
vn -1 0 0
vn -1 0 0
vn -1 0 0
vn -0 1 0
vn -0 1 0
vn -0 1 0
vn -0 1 0
vn -0 -1 0
vn -0 -1 0
vn -0 -1 0
vn -0 -1 0
vn -0 0 1
vn -0 0 1
vn -0 0 1
vn -0 0 1
vn 1 0 0
vn 1 0 0
vn 1 0 0
vn 1 0 0
vn -1 0 0
vn -1 0 0
vn -1 0 0
vn -1 0 0
vn -0 1 0
vn -0 1 0
vn -0 1 0
vn -0 1 0
vn -0 -1 0
vn -0 -1 0
vn -0 -1 0
vn -0 -1 0
vn -0 0 -1
vn -0 0 -1
vn -0 0 -1
vn -0 0 -1
vn -1 0 0
vn -1 0 0
vn -1 0 0
vn -1 0 0
vn -0 -1 0
vn -0 -1 0
vn -0 -1 0
vn -0 -1 0
vn -0 0 -1
vn -0 0 -1
vn -0 0 -1
vn -0 0 -1
vn -0 0 1
vn -0 0 1
vn -0 0 1
vn -0 0 1
vn -1 0 0
vn -1 0 0
vn -1 0 0
vn -1 0 0
vn -0 1 0
vn -0 1 0
vn -0 1 0
vn -0 1 0
vn -0 0 -1
vn -0 0 -1
vn -0 0 -1
vn -0 0 -1
vn -0 0 1
vn -0 0 1
vn -0 0 1
vn -0 0 1
vn -1 0 0
vn -1 0 0
vn -1 0 0
vn -1 0 0
vn -0 1 0
vn -0 1 0
vn -0 1 0
vn -0 1 0
vn -0 -1 0
vn -0 -1 0
vn -0 -1 0
vn -0 -1 0
vn -0 0 1
vn -0 0 1
vn -0 0 1
vn -0 0 1
vn -1 0 0
vn -1 0 0
vn -1 0 0
vn -1 0 0
vn -0 1 0
vn -0 1 0
vn -0 1 0
vn -0 1 0
vn -0 -1 0
vn -0 -1 0
vn -0 -1 0
vn -0 -1 0
vn -0 0 -1
vn -0 0 -1
vn -0 0 -1
vn -0 0 -1
vn -0 0 1
vn -0 0 1
vn -0 0 1
vn -0 0 1
vn -1 0 0
vn -1 0 0
vn -1 0 0
vn -1 0 0
g Mesh_0
f 1/1/1 2/2/2 3/3/3
f 3/3/3 2/2/2 4/4/4
f 6/6/6 5/5/5 7/7/7
f 6/6/6 7/7/7 8/8/8
f 9/9/9 10/10/10 11/11/11
f 11/11/11 10/10/10 12/12/12
f 14/14/14 13/13/13 15/15/15
f 14/14/14 15/15/15 16/16/16
f 18/18/18 17/17/17 19/19/19
f 18/18/18 19/19/19 20/20/20
f 21/21/21 22/22/22 23/23/23
f 23/23/23 22/22/22 24/24/24
f 26/26/26 25/25/25 27/27/27
f 26/26/26 27/27/27 28/28/28
f 29/29/29 30/30/30 31/31/31
f 31/31/31 30/30/30 32/32/32
f 34/34/34 33/33/33 35/35/35
f 34/34/34 35/35/35 36/36/36
f 38/38/38 37/37/37 39/39/39
f 38/38/38 39/39/39 40/40/40
f 41/41/41 42/42/42 43/43/43
f 43/43/43 42/42/42 44/44/44
f 46/46/46 45/45/45 47/47/47
f 46/46/46 47/47/47 48/48/48
f 50/50/50 49/49/49 51/51/51
f 50/50/50 51/51/51 52/52/52
f 53/53/53 54/54/54 55/55/55
f 55/55/55 54/54/54 56/56/56
f 57/57/57 58/58/58 59/59/59
f 59/59/59 58/58/58 60/60/60
f 62/62/62 61/61/61 63/63/63
f 62/62/62 63/63/63 64/64/64
f 66/66/66 65/65/65 67/67/67
f 66/66/66 67/67/67 68/68/68
f 69/69/69 70/70/70 71/71/71
f 71/71/71 70/70/70 72/72/72
f 74/74/74 73/73/73 75/75/75
f 74/74/74 75/75/75 76/76/76
f 78/78/78 77/77/77 79/79/79
f 78/78/78 79/79/79 80/80/80
f 82/82/82 81/81/81 83/83/83
f 82/82/82 83/83/83 84/84/84
f 85/85/85 86/86/86 87/87/87
f 87/87/87 86/86/86 88/88/88
f 90/90/90 89/89/89 91/91/91
f 90/90/90 91/91/91 92/92/92
f 93/93/93 94/94/94 95/95/95
f 95/95/95 94/94/94 96/96/96
f 98/98/98 97/97/97 99/99/99
f 98/98/98 99/99/99 100/100/100
f 101/101/101 102/102/102 103/103/103
f 103/103/103 102/102/102 104/104/104
f 106/106/106 105/105/105 107/107/107
f 106/106/106 107/107/107 108/108/108
f 109/109/109 110/110/110 111/111/111
f 111/111/111 110/110/110 112/112/112
f 114/114/114 113/113/113 115/115/115
f 114/114/114 115/115/115 116/116/116
f 117/117/117 118/118/118 119/119/119
f 119/119/119 118/118/118 120/120/120
f 121/121/121 122/122/122 123/123/123
f 123/123/123 122/122/122 124/124/124
f 125/125/125 126/126/126 127/127/127
f 127/127/127 126/126/126 128/128/128
f 130/130/130 129/129/129 131/131/131
f 130/130/130 131/131/131 132/132/132
f 133/133/133 134/134/134 135/135/135
f 135/135/135 134/134/134 136/136/136
f 138/138/138 137/137/137 139/139/139
f 138/138/138 139/139/139 140/140/140
f 141/141/141 142/142/142 143/143/143
f 143/143/143 142/142/142 144/144/144
f 146/146/146 145/145/145 147/147/147
f 146/146/146 147/147/147 148/148/148
f 150/150/150 149/149/149 151/151/151
f 150/150/150 151/151/151 152/152/152
f 153/153/153 154/154/154 155/155/155
f 155/155/155 154/154/154 156/156/156
f 157/157/157 158/158/158 159/159/159
f 159/159/159 158/158/158 160/160/160
f 161/161/161 162/162/162 163/163/163
f 163/163/163 162/162/162 164/164/164
f 166/166/166 165/165/165 167/167/167
f 166/166/166 167/167/167 168/168/168
f 170/170/170 169/169/169 171/171/171
f 170/170/170 171/171/171 172/172/172
f 173/173/173 174/174/174 175/175/175
f 175/175/175 174/174/174 176/176/176
f 178/178/178 177/177/177 179/179/179
f 178/178/178 179/179/179 180/180/180
f 182/182/182 181/181/181 183/183/183
f 182/182/182 183/183/183 184/184/184
f 186/186/186 185/185/185 187/187/187
f 186/186/186 187/187/187 188/188/188
f 189/189/189 190/190/190 191/191/191
f 191/191/191 190/190/190 192/192/192
f 193/193/193 194/194/194 195/195/195
f 195/195/195 194/194/194 196/196/196
f 198/198/198 197/197/197 199/199/199
f 198/198/198 199/199/199 200/200/200
f 202/202/202 201/201/201 203/203/203
f 202/202/202 203/203/203 204/204/204
f 205/205/205 206/206/206 207/207/207
f 207/207/207 206/206/206 208/208/208
f 209/209/209 210/210/210 211/211/211
f 211/211/211 210/210/210 212/212/212
f 214/214/214 213/213/213 215/215/215
f 214/214/214 215/215/215 216/216/216
f 218/218/218 217/217/217 219/219/219
f 218/218/218 219/219/219 220/220/220
f 222/222/222 221/221/221 223/223/223
f 222/222/222 223/223/223 224/224/224
f 225/225/225 226/226/226 227/227/227
f 227/227/227 226/226/226 228/228/228
f 229/229/229 230/230/230 231/231/231
f 231/231/231 230/230/230 232/232/232
f 234/234/234 233/233/233 235/235/235
f 234/234/234 235/235/235 236/236/236
f 237/237/237 238/238/238 239/239/239
f 239/239/239 238/238/238 240/240/240
f 241/241/241 242/242/242 243/243/243
f 243/243/243 242/242/242 244/244/244
f 246/246/246 245/245/245 247/247/247
f 246/246/246 247/247/247 248/248/248
f 249/249/249 250/250/250 251/251/251
f 251/251/251 250/250/250 252/252/252
f 254/254/254 253/253/253 255/255/255
f 254/254/254 255/255/255 256/256/256
f 257/257/257 258/258/258 259/259/259
f 259/259/259 258/258/258 260/260/260
f 261/261/261 262/262/262 263/263/263
f 263/263/263 262/262/262 264/264/264
f 265/265/265 266/266/266 267/267/267
f 267/267/267 266/266/266 268/268/268
f 270/270/270 269/269/269 271/271/271
f 270/270/270 271/271/271 272/272/272
f 273/273/273 274/274/274 275/275/275
f 275/275/275 274/274/274 276/276/276
f 277/277/277 278/278/278 279/279/279
f 279/279/279 278/278/278 280/280/280
f 282/282/282 281/281/281 283/283/283
f 282/282/282 283/283/283 284/284/284
f 286/286/286 285/285/285 287/287/287
f 286/286/286 287/287/287 288/288/288
f 289/289/289 290/290/290 291/291/291
f 291/291/291 290/290/290 292/292/292
f 293/293/293 294/294/294 295/295/295
f 295/295/295 294/294/294 296/296/296
f 298/298/298 297/297/297 299/299/299
f 298/298/298 299/299/299 300/300/300
f 301/301/301 302/302/302 303/303/303
f 303/303/303 302/302/302 304/304/304
f 306/306/306 305/305/305 307/307/307
f 306/306/306 307/307/307 308/308/308
f 309/309/309 310/310/310 311/311/311
f 311/311/311 310/310/310 312/312/312
