g Mesh_0
v 0.05 0 -0.05
v -0.05 0 -0.05
v 0.05 0 0.05
v -0.05 0 0.05
v 0.05 0 -0.05
v -0.05 0 -0.05
v 0.05 0.4 -0.05
v -0.05 0.4 -0.05
v 0.05 0 0.05
v -0.05 0 0.05
v 0.05 0.4 0.05
v -0.05 0.4 0.05
v 0.05 0 -0.05
v 0.05 0 0.05
v 0.05 0.4 -0.05
v 0.05 0.4 0.05
v -0.05 0 -0.05
v -0.05 0 0.05
v -0.05 0.4 -0.05
v -0.05 0.4 0.05
v 0.05 0.4 -0.05
v -0.05 0.4 -0.05
v 0.05 0.4 0.05
v -0.05 0.4 0.05
vt 0.33333334 0.33333334
vt 0.6666666 0.33333334
vt 0.33333334 0.6666666
vt 0.6666666 0.6666666
vt 0.33333334 0.33333334
vt 0.6666666 0.33333334
vt 0.33333334 0.6666666
vt 0.6666666 0.6666666
vt 0.33333334 0.33333334
vt 0.6666666 0.33333334
vt 0.33333334 0.6666666
vt 0.6666666 0.6666666
vt 0.33333334 0.33333334
vt 0.6666666 0.33333334
vt 0.33333334 0.6666666
vt 0.6666666 0.6666666
vt 0.33333334 0.33333334
vt 0.6666666 0.33333334
vt 0.33333334 0.6666666
vt 0.6666666 0.6666666
vt 0.33333334 0.33333334
vt 0.6666666 0.33333334
vt 0.33333334 0.6666666
vt 0.6666666 0.6666666
vn -0 -1 0
vn -0 -1 0
vn -0 -1 0
vn -0 -1 0
vn -0 0 -1
vn -0 0 -1
vn -0 0 -1
vn -0 0 -1
vn -0 0 1
vn -0 0 1
vn -0 0 1
vn -0 0 1
vn 1 0 0
vn 1 0 0
vn 1 0 0
vn 1 0 0
vn -1 0 0
vn -1 0 0
vn -1 0 0
vn -1 0 0
vn -0 1 0
vn -0 1 0
vn -0 1 0
vn -0 1 0
g Mesh_0_0
f 2/2/2 1/1/1 3/3/3
f 2/2/2 3/3/3 4/4/4
f 5/5/5 6/6/6 7/7/7
f 7/7/7 6/6/6 8/8/8
f 10/10/10 9/9/9 11/11/11
f 10/10/10 11/11/11 12/12/12
f 14/14/14 13/13/13 15/15/15
f 14/14/14 15/15/15 16/16/16
f 17/17/17 18/18/18 19/19/19
f 19/19/19 18/18/18 20/20/20
f 21/21/21 22/22/22 23/23/23
f 23/23/23 22/22/22 24/24/24
