g Mesh
v 0.06 0.24 0
v -0 0.24 0
v 0.06 0.24 0.06
v -0 0.24 0.06
v 0.06 0.17999999 0
v -0 0.17999999 0
v 0.06 0.17999999 0.06
v -0 0.17999999 0.06
v 0.06 0.17999999 0
v -0.12 0.17999999 0
v 0.06 0.24 0
v -0.12 0.24 0
v 0.06 0.17999999 0.06
v -0.12 0.17999999 0.06
v 0.06 0.24 0.06
v -0.12 0.24 0.06
v 0.06 0.17999999 0
v 0.06 0.17999999 0.06
v 0.06 0.24 0
v 0.06 0.24 0.06
v -0 0 0
v -0.06 0 0
v -0 0 0.06
v -0.06 0 0.06
v -0 0 0
v -0.06 0 0
v -0 0.17999999 0
v -0.06 0.17999999 0
v -0 0 0.06
v -0.06 0 0.06
v -0 0.17999999 0.06
v -0.06 0.17999999 0.06
v -0 0 0
v -0 0 0.06
v -0 0.17999999 0
v -0 0.17999999 0.06
v -0.06 0 0
v -0.06 0 0.06
v -0.06 0.17999999 0
v -0.06 0.17999999 0.06
v -0 0.24 0
v -0.06 0.24 0
v -0 0.84 0
v -0.06 0.84 0
v -0 0.24 0.06
v -0.06 0.24 0.06
v -0 0.84 0.06
v -0.06 0.84 0.06
v -0 0.24 0
v -0 0.24 0.06
v -0 0.84 0
v -0 0.84 0.06
v -0.06 0.24 0
v -0.06 0.24 0.06
v -0.06 0.84 0
v -0.06 0.84 0.06
v -0 0.84 0
v -0.06 0.84 0
v -0 0.84 0.06
v -0.06 0.84 0.06
v -0.06 0.24 0
v -0.12 0.24 0
v -0.06 0.24 0.06
v -0.12 0.24 0.06
v -0.06 0.17999999 0
v -0.12 0.17999999 0
v -0.06 0.17999999 0.06
v -0.12 0.17999999 0.06
v -0.12 0.17999999 0
v -0.12 0.17999999 0.06
v -0.12 0.24 0
v -0.12 0.24 0.06
vt 0.7777778 0.6
vt 0.8888889 0.6
vt 0.7777778 0.7
vt 0.8888889 0.7
vt 0.7777778 0.6
vt 0.8888889 0.6
vt 0.7777778 0.7
vt 0.8888889 0.7
vt 0.7777778 0.6
vt 0.8888889 0.6
vt 0.7777778 0.7
vt 0.8888889 0.7
vt 0.7777778 0.6
vt 0.8888889 0.6
vt 0.7777778 0.7
vt 0.8888889 0.7
vt 0.7777778 0.6
vt 0.8888889 0.6
vt 0.7777778 0.7
vt 0.8888889 0.7
vt 0.7777778 0.6
vt 0.8888889 0.6
vt 0.7777778 0.7
vt 0.8888889 0.7
vt 0.11111111 0.6
vt 0.22222224 0.6
vt 0.11111111 0.9
vt 0.22222224 0.9
vt 0.7777778 0.1
vt 0.8888889 0.1
vt 0.7777778 0.4
vt 0.8888889 0.4
vt 0.11111111 0.1
vt 0.22222224 0.1
vt 0.11111111 0.4
vt 0.22222224 0.4
vt 0.44444445 0.1
vt 0.5555556 0.1
vt 0.44444445 0.4
vt 0.5555556 0.4
vt 0.44444445 0.6
vt 0.5555556 0.6
vt 0.44444445 0.7
vt 0.5555556 0.7
vt 0.44444445 0.6
vt 0.5555556 0.6
vt 0.44444445 0.7
vt 0.5555556 0.7
vt 0.44444445 0.6
vt 0.5555556 0.6
vt 0.44444445 0.7
vt 0.5555556 0.7
vt 0.44444445 0.6
vt 0.5555556 0.6
vt 0.44444445 0.7
vt 0.5555556 0.7
vt 0.44444445 0.6
vt 0.5555556 0.6
vt 0.44444445 0.7
vt 0.5555556 0.7
vt 0.7777778 0.6
vt 0.8888889 0.6
vt 0.7777778 0.7
vt 0.8888889 0.7
vt 0.7777778 0.6
vt 0.8888889 0.6
vt 0.7777778 0.7
vt 0.8888889 0.7
vt 0.7777778 0.6
vt 0.8888889 0.6
vt 0.7777778 0.7
vt 0.8888889 0.7
vn -0 0.99999994 0
vn -0 0.99999994 0
vn -0 0.99999994 0
vn -0 0.99999994 0
vn -0 -0.99999994 0
vn -0 -0.99999994 0
vn -0 -0.99999994 0
vn -0 -0.99999994 0
vn -0 0 -1
vn -0 0 -1
vn -0 0 -1
vn -0 0 -1
vn -0 0 1
vn -0 0 1
vn -0 0 1
vn -0 0 1
vn 1 0 0
vn 1 0 0
vn 1 0 0
vn 1 0 0
vn -0 -0.99999994 0
vn -0 -0.99999994 0
vn -0 -0.99999994 0
vn -0 -0.99999994 0
vn -0 0 -1
vn -0 0 -1
vn -0 0 -1
vn -0 0 -1
vn -0 0 1
vn -0 0 1
vn -0 0 1
vn -0 0 1
vn 1 0 0
vn 1 0 0
vn 1 0 0
vn 1 0 0
vn -1 0 0
vn -1 0 0
vn -1 0 0
vn -1 0 0
vn -0 0 -1
vn -0 0 -1
vn -0 0 -1
vn -0 0 -1
vn -0 0 1
vn -0 0 1
vn -0 0 1
vn -0 0 1
vn 1 0 0
vn 1 0 0
vn 1 0 0
vn 1 0 0
vn -1 0 0
vn -1 0 0
vn -1 0 0
vn -1 0 0
vn -0 0.99999994 0
vn -0 0.99999994 0
vn -0 0.99999994 0
vn -0 0.99999994 0
vn -0 0.99999994 0
vn -0 0.99999994 0
vn -0 0.99999994 0
vn -0 0.99999994 0
vn -0 -0.99999994 0
vn -0 -0.99999994 0
vn -0 -0.99999994 0
vn -0 -0.99999994 0
vn -1 0 0
vn -1 0 0
vn -1 0 0
vn -1 0 0
g Mesh_0
f 1/1/1 2/2/2 3/3/3
f 3/3/3 2/2/2 4/4/4
f 6/6/6 5/5/5 7/7/7
f 6/6/6 7/7/7 8/8/8
f 9/9/9 10/10/10 11/11/11
f 11/11/11 10/10/10 12/12/12
f 14/14/14 13/13/13 15/15/15
f 14/14/14 15/15/15 16/16/16
f 18/18/18 17/17/17 19/19/19
f 18/18/18 19/19/19 20/20/20
f 22/22/22 21/21/21 23/23/23
f 22/22/22 23/23/23 24/24/24
f 25/25/25 26/26/26 27/27/27
f 27/27/27 26/26/26 28/28/28
f 30/30/30 29/29/29 31/31/31
f 30/30/30 31/31/31 32/32/32
f 34/34/34 33/33/33 35/35/35
f 34/34/34 35/35/35 36/36/36
f 37/37/37 38/38/38 39/39/39
f 39/39/39 38/38/38 40/40/40
f 41/41/41 42/42/42 43/43/43
f 43/43/43 42/42/42 44/44/44
f 46/46/46 45/45/45 47/47/47
f 46/46/46 47/47/47 48/48/48
f 50/50/50 49/49/49 51/51/51
f 50/50/50 51/51/51 52/52/52
f 53/53/53 54/54/54 55/55/55
f 55/55/55 54/54/54 56/56/56
f 57/57/57 58/58/58 59/59/59
f 59/59/59 58/58/58 60/60/60
f 61/61/61 62/62/62 63/63/63
f 63/63/63 62/62/62 64/64/64
f 66/66/66 65/65/65 67/67/67
f 66/66/66 67/67/67 68/68/68
f 69/69/69 70/70/70 71/71/71
f 71/71/71 70/70/70 72/72/72
