g Mesh
v 0.17999999 0 -0.06
v 0.12 0 -0.06
v 0.17999999 0 0.06
v 0.12 0 0.06
v 0.17999999 0 -0.06
v 0.12 0 -0.06
v 0.17999999 0.12 -0.06
v 0.12 0.12 -0.06
v 0.17999999 0 -0.06
v 0.17999999 0 0.06
v 0.17999999 0.12 -0.06
v 0.17999999 0.12 0.06
v 0.12 0 -0.06
v 0.12 0 0.06
v 0.12 0.06 -0.06
v 0.12 0.06 0.06
v 0.17999999 0.12 -0.06
v 0.12 0.12 -0.06
v 0.17999999 0.12 0.06
v 0.12 0.12 0.06
v 0.17999999 0 0.06
v 0.12 0 0.06
v 0.17999999 0.12 0.06
v 0.12 0.12 0.06
v 0.12 0.06 -0.06
v -0.12 0.06 -0.06
v 0.12 0.06 0.06
v -0.12 0.06 0.06
v 0.12 0.06 -0.06
v 0.06 0.06 -0.06
v 0.12 0.96 -0.06
v 0.06 0.96 -0.06
v 0.12 0.12 -0.06
v 0.12 0.12 0.06
v 0.12 0.96 -0.06
v 0.12 0.96 0.06
v 0.12 0.96 -0.06
v 0.06 0.96 -0.06
v 0.12 0.96 0.06
v 0.06 0.96 0.06
v 0.12 0.06 0.06
v 0.06 0.06 0.06
v 0.12 0.96 0.06
v 0.06 0.96 0.06
v 0.06 0 -0.17999999
v -0.06 0 -0.17999999
v 0.06 0 -0.12
v -0.06 0 -0.12
v 0.06 0 -0.17999999
v -0.06 0 -0.17999999
v 0.06 0.12 -0.17999999
v -0.06 0.12 -0.17999999
v 0.06 0 -0.12
v -0.06 0 -0.12
v 0.06 0.06 -0.12
v -0.06 0.06 -0.12
v 0.06 0 -0.17999999
v 0.06 0 -0.12
v 0.06 0.12 -0.17999999
v 0.06 0.12 -0.12
v 0.06 0.12 -0.17999999
v -0.06 0.12 -0.17999999
v 0.06 0.12 -0.12
v -0.06 0.12 -0.12
v 0.06 0.06 -0.12
v -0.06 0.06 -0.12
v 0.06 0.06 -0.06
v -0.06 0.06 -0.06
v 0.06 0.06 -0.12
v 0.06 0.06 -0.06
v 0.06 0.96 -0.12
v 0.06 0.96 -0.06
v 0.06 0.12 -0.12
v -0.06 0.12 -0.12
v 0.06 0.96 -0.12
v -0.06 0.96 -0.12
v 0.06 0.96 -0.12
v -0.06 0.96 -0.12
v 0.06 0.96 -0.06
v -0.06 0.96 -0.06
v 0.06 1.02 -0.06
v -0.06 1.02 -0.06
v 0.06 1.02 0.06
v -0.06 1.02 0.06
v 0.06 0.96 -0.06
v -0.06 0.96 -0.06
v 0.06 1.02 -0.06
v -0.06 1.02 -0.06
v 0.06 0.96 -0.06
v 0.06 0.96 0.06
v 0.06 1.02 -0.06
v 0.06 1.02 0.06
v 0.06 0.96 0.06
v -0.06 0.96 0.06
v 0.06 1.02 0.06
v -0.06 1.02 0.06
v 0.06 0.06 0.06
v -0.06 0.06 0.06
v 0.06 0.06 0.12
v -0.06 0.06 0.12
v 0.06 0.06 0.06
v 0.06 0.06 0.12
v 0.06 0.96 0.06
v 0.06 0.96 0.12
v 0.06 0.12 0.12
v -0.06 0.12 0.12
v 0.06 0.96 0.12
v -0.06 0.96 0.12
v 0.06 0.96 0.06
v -0.06 0.96 0.06
v 0.06 0.96 0.12
v -0.06 0.96 0.12
v 0.06 0 0.12
v -0.06 0 0.12
v 0.06 0 0.17999999
v -0.06 0 0.17999999
v 0.06 0 0.12
v -0.06 0 0.12
v 0.06 0.06 0.12
v -0.06 0.06 0.12
v 0.06 0 0.17999999
v -0.06 0 0.17999999
v 0.06 0.12 0.17999999
v -0.06 0.12 0.17999999
v 0.06 0 0.12
v 0.06 0 0.17999999
v 0.06 0.12 0.12
v 0.06 0.12 0.17999999
v 0.06 0.12 0.12
v -0.06 0.12 0.12
v 0.06 0.12 0.17999999
v -0.06 0.12 0.17999999
v -0.06 0 -0.17999999
v -0.06 0 -0.12
v -0.06 0.12 -0.17999999
v -0.06 0.12 -0.12
v -0.06 0.06 -0.12
v -0.06 0.06 -0.06
v -0.06 0.96 -0.12
v -0.06 0.96 -0.06
v -0.06 0.96 -0.06
v -0.06 0.96 0.06
v -0.06 1.02 -0.06
v -0.06 1.02 0.06
v -0.06 0.06 0.06
v -0.06 0.06 0.12
v -0.06 0.96 0.06
v -0.06 0.96 0.12
v -0.06 0 0.12
v -0.06 0 0.17999999
v -0.06 0.12 0.12
v -0.06 0.12 0.17999999
v -0.06 0.06 -0.06
v -0.12 0.06 -0.06
v -0.06 0.96 -0.06
v -0.12 0.96 -0.06
v -0.12 0.12 -0.06
v -0.12 0.12 0.06
v -0.12 0.96 -0.06
v -0.12 0.96 0.06
v -0.06 0.96 -0.06
v -0.12 0.96 -0.06
v -0.06 0.96 0.06
v -0.12 0.96 0.06
v -0.06 0.06 0.06
v -0.12 0.06 0.06
v -0.06 0.96 0.06
v -0.12 0.96 0.06
v -0.12 0 -0.06
v -0.17999999 0 -0.06
v -0.12 0 0.06
v -0.17999999 0 0.06
v -0.12 0 -0.06
v -0.17999999 0 -0.06
v -0.12 0.12 -0.06
v -0.17999999 0.12 -0.06
v -0.12 0 -0.06
v -0.12 0 0.06
v -0.12 0.06 -0.06
v -0.12 0.06 0.06
v -0.17999999 0 -0.06
v -0.17999999 0 0.06
v -0.17999999 0.12 -0.06
v -0.17999999 0.12 0.06
v -0.12 0.12 -0.06
v -0.17999999 0.12 -0.06
v -0.12 0.12 0.06
v -0.17999999 0.12 0.06
v -0.12 0 0.06
v -0.17999999 0 0.06
v -0.12 0.12 0.06
v -0.17999999 0.12 0.06
vt 0.9259259 0.030303031
vt 0.962963 0.030303031
vt 0.9259259 0.060606062
vt 0.962963 0.060606062
vt 0.9259259 0.030303031
vt 0.962963 0.030303031
vt 0.9259259 0.060606062
vt 0.962963 0.060606062
vt 0.9259259 0.030303031
vt 0.962963 0.030303031
vt 0.9259259 0.060606062
vt 0.962963 0.060606062
vt 0.9259259 0.030303031
vt 0.962963 0.030303031
vt 0.9259259 0.060606062
vt 0.962963 0.060606062
vt 0.9259259 0.030303031
vt 0.962963 0.030303031
vt 0.9259259 0.060606062
vt 0.962963 0.060606062
vt 0.9259259 0.030303031
vt 0.962963 0.030303031
vt 0.9259259 0.060606062
vt 0.962963 0.060606062
vt 0.6296296 0.5454545
vt 0.7777778 0.5454545
vt 0.6296296 0.6060606
vt 0.7777778 0.6060606
vt 0.7037037 0.030303031
vt 0.7407408 0.030303031
vt 0.7037037 0.48484847
vt 0.7407408 0.48484847
vt 0.33333334 0.5454545
vt 0.4074074 0.5454545
vt 0.33333334 0.969697
vt 0.4074074 0.969697
vt 0.9259259 0.121212125
vt 0.962963 0.121212125
vt 0.9259259 0.15151516
vt 0.962963 0.15151516
vt 0.14814815 0.030303031
vt 0.1851852 0.030303031
vt 0.14814815 0.48484847
vt 0.1851852 0.48484847
vt 0.9259259 0.030303031
vt 0.962963 0.030303031
vt 0.9259259 0.060606062
vt 0.962963 0.060606062
vt 0.9259259 0.030303031
vt 0.962963 0.030303031
vt 0.9259259 0.060606062
vt 0.962963 0.060606062
vt 0.9259259 0.030303031
vt 0.962963 0.030303031
vt 0.9259259 0.060606062
vt 0.962963 0.060606062
vt 0.9259259 0.030303031
vt 0.962963 0.030303031
vt 0.9259259 0.060606062
vt 0.962963 0.060606062
vt 0.9259259 0.030303031
vt 0.962963 0.030303031
vt 0.9259259 0.060606062
vt 0.962963 0.060606062
vt 0.9259259 0.030303031
vt 0.962963 0.030303031
vt 0.9259259 0.060606062
vt 0.962963 0.060606062
vt 0.037037037 0.030303031
vt 0.074074075 0.030303031
vt 0.037037037 0.48484847
vt 0.074074075 0.48484847
vt 0.4814815 0.5454545
vt 0.5555556 0.5454545
vt 0.4814815 0.969697
vt 0.5555556 0.969697
vt 0.9259259 0.121212125
vt 0.962963 0.121212125
vt 0.9259259 0.15151516
vt 0.962963 0.15151516
vt 0.9259259 0.121212125
vt 0.962963 0.121212125
vt 0.9259259 0.15151516
vt 0.962963 0.15151516
vt 0.9259259 0.121212125
vt 0.962963 0.121212125
vt 0.9259259 0.15151516
vt 0.962963 0.15151516
vt 0.9259259 0.121212125
vt 0.962963 0.121212125
vt 0.9259259 0.15151516
vt 0.962963 0.15151516
vt 0.9259259 0.121212125
vt 0.962963 0.121212125
vt 0.9259259 0.15151516
vt 0.962963 0.15151516
vt 0.9259259 0.030303031
vt 0.962963 0.030303031
vt 0.9259259 0.060606062
vt 0.962963 0.060606062
vt 0.25925925 0.030303031
vt 0.2962963 0.030303031
vt 0.25925925 0.48484847
vt 0.2962963 0.48484847
vt 0.1851852 0.5454545
vt 0.25925925 0.5454545
vt 0.1851852 0.969697
vt 0.25925925 0.969697
vt 0.9259259 0.121212125
vt 0.962963 0.121212125
vt 0.9259259 0.15151516
vt 0.962963 0.15151516
vt 0.9259259 0.030303031
vt 0.962963 0.030303031
vt 0.9259259 0.060606062
vt 0.962963 0.060606062
vt 0.9259259 0.030303031
vt 0.962963 0.030303031
vt 0.9259259 0.060606062
vt 0.962963 0.060606062
vt 0.9259259 0.030303031
vt 0.962963 0.030303031
vt 0.9259259 0.060606062
vt 0.962963 0.060606062
vt 0.9259259 0.030303031
vt 0.962963 0.030303031
vt 0.9259259 0.060606062
vt 0.962963 0.060606062
vt 0.9259259 0.030303031
vt 0.962963 0.030303031
vt 0.9259259 0.060606062
vt 0.962963 0.060606062
vt 0.9259259 0.030303031
vt 0.962963 0.030303031
vt 0.9259259 0.060606062
vt 0.962963 0.060606062
vt 0.3703704 0.030303031
vt 0.4074074 0.030303031
vt 0.3703704 0.48484847
vt 0.4074074 0.48484847
vt 0.9259259 0.121212125
vt 0.962963 0.121212125
vt 0.9259259 0.15151516
vt 0.962963 0.15151516
vt 0.4814815 0.030303031
vt 0.51851857 0.030303031
vt 0.4814815 0.48484847
vt 0.51851857 0.48484847
vt 0.9259259 0.030303031
vt 0.962963 0.030303031
vt 0.9259259 0.060606062
vt 0.962963 0.060606062
vt 0.8148148 0.030303031
vt 0.8518519 0.030303031
vt 0.8148148 0.48484847
vt 0.8518519 0.48484847
vt 0.037037037 0.5454545
vt 0.11111111 0.5454545
vt 0.037037037 0.969697
vt 0.11111111 0.969697
vt 0.9259259 0.121212125
vt 0.962963 0.121212125
vt 0.9259259 0.15151516
vt 0.962963 0.15151516
vt 0.5925926 0.030303031
vt 0.6296297 0.030303031
vt 0.5925926 0.48484847
vt 0.6296297 0.48484847
vt 0.9259259 0.030303031
vt 0.962963 0.030303031
vt 0.9259259 0.060606062
vt 0.962963 0.060606062
vt 0.9259259 0.030303031
vt 0.962963 0.030303031
vt 0.9259259 0.060606062
vt 0.962963 0.060606062
vt 0.9259259 0.030303031
vt 0.962963 0.030303031
vt 0.9259259 0.060606062
vt 0.962963 0.060606062
vt 0.9259259 0.030303031
vt 0.962963 0.030303031
vt 0.9259259 0.060606062
vt 0.962963 0.060606062
vt 0.9259259 0.030303031
vt 0.962963 0.030303031
vt 0.9259259 0.060606062
vt 0.962963 0.060606062
vt 0.9259259 0.030303031
vt 0.962963 0.030303031
vt 0.9259259 0.060606062
vt 0.962963 0.060606062
vn -0 -1 0
vn -0 -1 0
vn -0 -1 0
vn -0 -1 0
vn -0 0 -1
vn -0 0 -1
vn -0 0 -1
vn -0 0 -1
vn 0.99999994 0 0
vn 0.99999994 0 0
vn 0.99999994 0 0
vn 0.99999994 0 0
vn -0.99999994 0 0
vn -0.99999994 0 0
vn -0.99999994 0 0
vn -0.99999994 0 0
vn -0 1 0
vn -0 1 0
vn -0 1 0
vn -0 1 0
vn -0 0 1
vn -0 0 1
vn -0 0 1
vn -0 0 1
vn -0 -0.99999994 0
vn -0 -0.99999994 0
vn -0 -0.99999994 0
vn -0 -0.99999994 0
vn -0 0 -0.99999994
vn -0 0 -0.99999994
vn -0 0 -0.99999994
vn -0 0 -0.99999994
vn 0.99999994 0 0
vn 0.99999994 0 0
vn 0.99999994 0 0
vn 0.99999994 0 0
vn -0 0.99999994 0
vn -0 0.99999994 0
vn -0 0.99999994 0
vn -0 0.99999994 0
vn -0 0 0.99999994
vn -0 0 0.99999994
vn -0 0 0.99999994
vn -0 0 0.99999994
vn -0 -1 0
vn -0 -1 0
vn -0 -1 0
vn -0 -1 0
vn -0 0 -0.99999994
vn -0 0 -0.99999994
vn -0 0 -0.99999994
vn -0 0 -0.99999994
vn -0 0 0.99999994
vn -0 0 0.99999994
vn -0 0 0.99999994
vn -0 0 0.99999994
vn 1 0 0
vn 1 0 0
vn 1 0 0
vn 1 0 0
vn -0 1 0
vn -0 1 0
vn -0 1 0
vn -0 1 0
vn -0 -0.99999994 0
vn -0 -0.99999994 0
vn -0 -0.99999994 0
vn -0 -0.99999994 0
vn 0.99999994 0 0
vn 0.99999994 0 0
vn 0.99999994 0 0
vn 0.99999994 0 0
vn -0 0 -0.99999994
vn -0 0 -0.99999994
vn -0 0 -0.99999994
vn -0 0 -0.99999994
vn -0 0.99999994 0
vn -0 0.99999994 0
vn -0 0.99999994 0
vn -0 0.99999994 0
vn -0 0.99999994 0
vn -0 0.99999994 0
vn -0 0.99999994 0
vn -0 0.99999994 0
vn -0 0 -1
vn -0 0 -1
vn -0 0 -1
vn -0 0 -1
vn 1 0 0
vn 1 0 0
vn 1 0 0
vn 1 0 0
vn -0 0 1
vn -0 0 1
vn -0 0 1
vn -0 0 1
vn -0 -0.99999994 0
vn -0 -0.99999994 0
vn -0 -0.99999994 0
vn -0 -0.99999994 0
vn 0.99999994 0 0
vn 0.99999994 0 0
vn 0.99999994 0 0
vn 0.99999994 0 0
vn -0 0 0.99999994
vn -0 0 0.99999994
vn -0 0 0.99999994
vn -0 0 0.99999994
vn -0 0.99999994 0
vn -0 0.99999994 0
vn -0 0.99999994 0
vn -0 0.99999994 0
vn -0 -1 0
vn -0 -1 0
vn -0 -1 0
vn -0 -1 0
vn -0 0 -0.99999994
vn -0 0 -0.99999994
vn -0 0 -0.99999994
vn -0 0 -0.99999994
vn -0 0 0.99999994
vn -0 0 0.99999994
vn -0 0 0.99999994
vn -0 0 0.99999994
vn 1 0 0
vn 1 0 0
vn 1 0 0
vn 1 0 0
vn -0 1 0
vn -0 1 0
vn -0 1 0
vn -0 1 0
vn -1 0 0
vn -1 0 0
vn -1 0 0
vn -1 0 0
vn -0.99999994 0 0
vn -0.99999994 0 0
vn -0.99999994 0 0
vn -0.99999994 0 0
vn -1 0 0
vn -1 0 0
vn -1 0 0
vn -1 0 0
vn -0.99999994 0 0
vn -0.99999994 0 0
vn -0.99999994 0 0
vn -0.99999994 0 0
vn -1 0 0
vn -1 0 0
vn -1 0 0
vn -1 0 0
vn -0 0 -0.99999994
vn -0 0 -0.99999994
vn -0 0 -0.99999994
vn -0 0 -0.99999994
vn -0.99999994 0 0
vn -0.99999994 0 0
vn -0.99999994 0 0
vn -0.99999994 0 0
vn -0 0.99999994 0
vn -0 0.99999994 0
vn -0 0.99999994 0
vn -0 0.99999994 0
vn -0 0 0.99999994
vn -0 0 0.99999994
vn -0 0 0.99999994
vn -0 0 0.99999994
vn -0 -1 0
vn -0 -1 0
vn -0 -1 0
vn -0 -1 0
vn -0 0 -1
vn -0 0 -1
vn -0 0 -1
vn -0 0 -1
vn 0.99999994 0 0
vn 0.99999994 0 0
vn 0.99999994 0 0
vn 0.99999994 0 0
vn -0.99999994 0 0
vn -0.99999994 0 0
vn -0.99999994 0 0
vn -0.99999994 0 0
vn -0 1 0
vn -0 1 0
vn -0 1 0
vn -0 1 0
vn -0 0 1
vn -0 0 1
vn -0 0 1
vn -0 0 1
g Mesh_0
f 2/2/2 1/1/1 3/3/3
f 2/2/2 3/3/3 4/4/4
f 5/5/5 6/6/6 7/7/7
f 7/7/7 6/6/6 8/8/8
f 10/10/10 9/9/9 11/11/11
f 10/10/10 11/11/11 12/12/12
f 13/13/13 14/14/14 15/15/15
f 15/15/15 14/14/14 16/16/16
f 17/17/17 18/18/18 19/19/19
f 19/19/19 18/18/18 20/20/20
f 22/22/22 21/21/21 23/23/23
f 22/22/22 23/23/23 24/24/24
f 26/26/26 25/25/25 27/27/27
f 26/26/26 27/27/27 28/28/28
f 29/29/29 30/30/30 31/31/31
f 31/31/31 30/30/30 32/32/32
f 34/34/34 33/33/33 35/35/35
f 34/34/34 35/35/35 36/36/36
f 37/37/37 38/38/38 39/39/39
f 39/39/39 38/38/38 40/40/40
f 42/42/42 41/41/41 43/43/43
f 42/42/42 43/43/43 44/44/44
f 46/46/46 45/45/45 47/47/47
f 46/46/46 47/47/47 48/48/48
f 49/49/49 50/50/50 51/51/51
f 51/51/51 50/50/50 52/52/52
f 54/54/54 53/53/53 55/55/55
f 54/54/54 55/55/55 56/56/56
f 58/58/58 57/57/57 59/59/59
f 58/58/58 59/59/59 60/60/60
f 61/61/61 62/62/62 63/63/63
f 63/63/63 62/62/62 64/64/64
f 66/66/66 65/65/65 67/67/67
f 66/66/66 67/67/67 68/68/68
f 70/70/70 69/69/69 71/71/71
f 70/70/70 71/71/71 72/72/72
f 73/73/73 74/74/74 75/75/75
f 75/75/75 74/74/74 76/76/76
f 77/77/77 78/78/78 79/79/79
f 79/79/79 78/78/78 80/80/80
f 81/81/81 82/82/82 83/83/83
f 83/83/83 82/82/82 84/84/84
f 85/85/85 86/86/86 87/87/87
f 87/87/87 86/86/86 88/88/88
f 90/90/90 89/89/89 91/91/91
f 90/90/90 91/91/91 92/92/92
f 94/94/94 93/93/93 95/95/95
f 94/94/94 95/95/95 96/96/96
f 98/98/98 97/97/97 99/99/99
f 98/98/98 99/99/99 100/100/100
f 102/102/102 101/101/101 103/103/103
f 102/102/102 103/103/103 104/104/104
f 106/106/106 105/105/105 107/107/107
f 106/106/106 107/107/107 108/108/108
f 109/109/109 110/110/110 111/111/111
f 111/111/111 110/110/110 112/112/112
f 114/114/114 113/113/113 115/115/115
f 114/114/114 115/115/115 116/116/116
f 117/117/117 118/118/118 119/119/119
f 119/119/119 118/118/118 120/120/120
f 122/122/122 121/121/121 123/123/123
f 122/122/122 123/123/123 124/124/124
f 126/126/126 125/125/125 127/127/127
f 126/126/126 127/127/127 128/128/128
f 129/129/129 130/130/130 131/131/131
f 131/131/131 130/130/130 132/132/132
f 133/133/133 134/134/134 135/135/135
f 135/135/135 134/134/134 136/136/136
f 137/137/137 138/138/138 139/139/139
f 139/139/139 138/138/138 140/140/140
f 141/141/141 142/142/142 143/143/143
f 143/143/143 142/142/142 144/144/144
f 145/145/145 146/146/146 147/147/147
f 147/147/147 146/146/146 148/148/148
f 149/149/149 150/150/150 151/151/151
f 151/151/151 150/150/150 152/152/152
f 153/153/153 154/154/154 155/155/155
f 155/155/155 154/154/154 156/156/156
f 157/157/157 158/158/158 159/159/159
f 159/159/159 158/158/158 160/160/160
f 161/161/161 162/162/162 163/163/163
f 163/163/163 162/162/162 164/164/164
f 166/166/166 165/165/165 167/167/167
f 166/166/166 167/167/167 168/168/168
f 170/170/170 169/169/169 171/171/171
f 170/170/170 171/171/171 172/172/172
f 173/173/173 174/174/174 175/175/175
f 175/175/175 174/174/174 176/176/176
f 178/178/178 177/177/177 179/179/179
f 178/178/178 179/179/179 180/180/180
f 181/181/181 182/182/182 183/183/183
f 183/183/183 182/182/182 184/184/184
f 185/185/185 186/186/186 187/187/187
f 187/187/187 186/186/186 188/188/188
f 190/190/190 189/189/189 191/191/191
f 190/190/190 191/191/191 192/192/192
