g Mesh_0
v 0.1 0.1 -0.15
v -0.1 0.1 -0.15
v 0.1 0.1 -0.05
v -0.1 0.1 -0.05
v 0.1 0 -0.15
v -0.1 0 -0.15
v 0.1 0 0.15
v -0.1 0 0.15
v 0.1 0 -0.15
v -0.1 0 -0.15
v 0.1 0.1 -0.15
v -0.1 0.1 -0.15
v 0.1 0 -0.15
v 0.1 0 0.15
v 0.1 0.1 -0.15
v 0.1 0.1 0.15
v 0.1 0.1 -0.05
v -0.1 0.1 -0.05
v 0.1 0.4 -0.05
v -0.1 0.4 -0.05
v 0.1 0.1 -0.05
v 0.1 0.1 0.15
v 0.1 0.4 -0.05
v 0.1 0.4 0.15
v 0.1 0.4 -0.05
v -0.1 0.4 -0.05
v 0.1 0.4 0.15
v -0.1 0.4 0.15
v 0.1 0 0.15
v -0.1 0 0.15
v 0.1 0.4 0.15
v -0.1 0.4 0.15
v -0.1 0 -0.15
v -0.1 0 0.15
v -0.1 0.1 -0.15
v -0.1 0.1 0.15
v -0.1 0.1 -0.05
v -0.1 0.1 0.15
v -0.1 0.4 -0.05
v -0.1 0.4 0.15
vt 0.8125 0.0625
vt 0.9375 0.0625
vt 0.8125 0.125
vt 0.9375 0.125
vt 0.0625 0.4375
vt 0.1875 0.4375
vt 0.0625 0.625
vt 0.1875 0.625
vt 0.625 0.375
vt 0.75 0.375
vt 0.625 0.4375
vt 0.75 0.4375
vt 0.875 0.375
vt 0.9375 0.375
vt 0.875 0.4375
vt 0.9375 0.4375
vt 0.0625 0.75
vt 0.1875 0.75
vt 0.0625 0.9375
vt 0.1875 0.9375
vt 0.3125 0.0625
vt 0.4375 0.0625
vt 0.3125 0.25
vt 0.4375 0.25
vt 0.3125 0.5625
vt 0.375 0.5625
vt 0.3125 0.625
vt 0.375 0.625
vt 0.0625 0.0625
vt 0.1875 0.0625
vt 0.0625 0.3125
vt 0.1875 0.3125
vt 0.3125 0.375
vt 0.5 0.375
vt 0.3125 0.4375
vt 0.5 0.4375
vt 0.5625 0.0625
vt 0.6875 0.0625
vt 0.5625 0.25
vt 0.6875 0.25
vn -0 1 0
vn -0 1 0
vn -0 1 0
vn -0 1 0
vn -0 -1 0
vn -0 -1 0
vn -0 -1 0
vn -0 -1 0
vn -0 0 -1
vn -0 0 -1
vn -0 0 -1
vn -0 0 -1
vn 1 0 0
vn 1 0 0
vn 1 0 0
vn 1 0 0
vn -0 0 -1
vn -0 0 -1
vn -0 0 -1
vn -0 0 -1
vn 1 0 0
vn 1 0 0
vn 1 0 0
vn 1 0 0
vn -0 1 0
vn -0 1 0
vn -0 1 0
vn -0 1 0
vn -0 0 1
vn -0 0 1
vn -0 0 1
vn -0 0 1
vn -1 0 0
vn -1 0 0
vn -1 0 0
vn -1 0 0
vn -1 0 0
vn -1 0 0
vn -1 0 0
vn -1 0 0
g Mesh_0_0
f 1/1/1 2/2/2 3/3/3
f 3/3/3 2/2/2 4/4/4
f 6/6/6 5/5/5 7/7/7
f 6/6/6 7/7/7 8/8/8
f 9/9/9 10/10/10 11/11/11
f 11/11/11 10/10/10 12/12/12
f 14/14/14 13/13/13 15/15/15
f 14/14/14 15/15/15 16/16/16
f 17/17/17 18/18/18 19/19/19
f 19/19/19 18/18/18 20/20/20
f 22/22/22 21/21/21 23/23/23
f 22/22/22 23/23/23 24/24/24
f 25/25/25 26/26/26 27/27/27
f 27/27/27 26/26/26 28/28/28
f 30/30/30 29/29/29 31/31/31
f 30/30/30 31/31/31 32/32/32
f 33/33/33 34/34/34 35/35/35
f 35/35/35 34/34/34 36/36/36
f 37/37/37 38/38/38 39/39/39
f 39/39/39 38/38/38 40/40/40
