g Mesh_0
v 0.2 0.1 -0.15
v 0.1 0.1 -0.15
v 0.2 0.1 -0.05
v 0.1 0.1 -0.05
v 0.2 0.1 -0.15
v 0.1 0.1 -0.15
v 0.2 0.3 -0.15
v 0.1 0.3 -0.15
v 0.2 0.1 -0.15
v 0.2 0.1 0.25
v 0.2 0.3 -0.15
v 0.2 0.3 0.25
v 0.2 0.3 -0.15
v -0.2 0.3 -0.15
v 0.2 0.3 0.25
v -0.2 0.3 0.25
v 0.2 0 -0.05
v -0.2 0 -0.05
v 0.2 0 0.15
v -0.2 0 0.15
v 0.2 0 -0.05
v 0.1 0 -0.05
v 0.2 0.1 -0.05
v 0.1 0.1 -0.05
v 0.2 0 -0.05
v 0.2 0 0.15
v 0.2 0.1 -0.05
v 0.2 0.1 0.15
v 0.2 0 0.15
v 0.1 0 0.15
v 0.2 0.1 0.15
v 0.1 0.1 0.15
v 0.2 0.1 0.15
v 0.1 0.1 0.15
v 0.2 0.1 0.25
v 0.1 0.1 0.25
v 0.2 0.1 0.25
v -0.2 0.1 0.25
v 0.2 0.3 0.25
v -0.2 0.3 0.25
v 0.1 0.1 -0.25
v -0.1 0.1 -0.25
v 0.1 0.1 -0.15
v -0.1 0.1 -0.15
v 0.1 0.1 -0.25
v -0.1 0.1 -0.25
v 0.1 0.3 -0.25
v -0.1 0.3 -0.25
v 0.1 0.1 -0.25
v 0.1 0.1 -0.15
v 0.1 0.3 -0.25
v 0.1 0.3 -0.15
v 0.1 0.3 -0.25
v -0.1 0.3 -0.25
v 0.1 0.3 -0.15
v -0.1 0.3 -0.15
v 0.1 0 -0.15
v -0.1 0 -0.15
v 0.1 0 -0.05
v -0.1 0 -0.05
v 0.1 0 -0.15
v -0.1 0 -0.15
v 0.1 0.1 -0.15
v -0.1 0.1 -0.15
v 0.1 0 -0.15
v 0.1 0 -0.05
v 0.1 0.1 -0.15
v 0.1 0.1 -0.05
v 0.1 0 0.15
v -0.1 0 0.15
v 0.1 0 0.25
v -0.1 0 0.25
v 0.1 0 0.25
v -0.1 0 0.25
v 0.1 0.1 0.25
v -0.1 0.1 0.25
v 0.1 0 0.15
v 0.1 0 0.25
v 0.1 0.1 0.15
v 0.1 0.1 0.25
v -0.1 0.1 -0.25
v -0.1 0.1 -0.15
v -0.1 0.3 -0.25
v -0.1 0.3 -0.15
v -0.1 0 -0.15
v -0.1 0 -0.05
v -0.1 0.1 -0.15
v -0.1 0.1 -0.05
v -0.1 0 0.15
v -0.1 0 0.25
v -0.1 0.1 0.15
v -0.1 0.1 0.25
v -0.1 0.1 -0.15
v -0.2 0.1 -0.15
v -0.1 0.1 -0.05
v -0.2 0.1 -0.05
v -0.1 0.1 -0.15
v -0.2 0.1 -0.15
v -0.1 0.3 -0.15
v -0.2 0.3 -0.15
v -0.2 0.1 -0.15
v -0.2 0.1 0.25
v -0.2 0.3 -0.15
v -0.2 0.3 0.25
v -0.1 0 -0.05
v -0.2 0 -0.05
v -0.1 0.1 -0.05
v -0.2 0.1 -0.05
v -0.2 0 -0.05
v -0.2 0 0.15
v -0.2 0.1 -0.05
v -0.2 0.1 0.15
v -0.1 0 0.15
v -0.2 0 0.15
v -0.1 0.1 0.15
v -0.2 0.1 0.15
v -0.1 0.1 0.15
v -0.2 0.1 0.15
v -0.1 0.1 0.25
v -0.2 0.1 0.25
vt 0.8666667 0.125
vt 0.93333334 0.125
vt 0.8666667 0.25
vt 0.93333334 0.25
vt 0.8666667 0.125
vt 0.93333334 0.125
vt 0.8666667 0.25
vt 0.93333334 0.25
vt 0.46666667 0.125
vt 0.73333335 0.125
vt 0.46666667 0.375
vt 0.73333335 0.375
vt 0.06666667 0.125
vt 0.33333334 0.125
vt 0.06666667 0.625
vt 0.33333334 0.625
vt 0.8666667 0.125
vt 0.93333334 0.125
vt 0.8666667 0.25
vt 0.93333334 0.25
vt 0.8666667 0.125
vt 0.93333334 0.125
vt 0.8666667 0.25
vt 0.93333334 0.25
vt 0.8666667 0.125
vt 0.93333334 0.125
vt 0.8666667 0.25
vt 0.93333334 0.25
vt 0.8666667 0.125
vt 0.93333334 0.125
vt 0.8666667 0.25
vt 0.93333334 0.25
vt 0.8666667 0.125
vt 0.93333334 0.125
vt 0.8666667 0.25
vt 0.93333334 0.25
vt 0.46666667 0.625
vt 0.73333335 0.625
vt 0.46666667 0.875
vt 0.73333335 0.875
vt 0.8666667 0.125
vt 0.93333334 0.125
vt 0.8666667 0.25
vt 0.93333334 0.25
vt 0.8666667 0.125
vt 0.93333334 0.125
vt 0.8666667 0.25
vt 0.93333334 0.25
vt 0.8666667 0.125
vt 0.93333334 0.125
vt 0.8666667 0.25
vt 0.93333334 0.25
vt 0.8666667 0.125
vt 0.93333334 0.125
vt 0.8666667 0.25
vt 0.93333334 0.25
vt 0.8666667 0.125
vt 0.93333334 0.125
vt 0.8666667 0.25
vt 0.93333334 0.25
vt 0.8666667 0.125
vt 0.93333334 0.125
vt 0.8666667 0.25
vt 0.93333334 0.25
vt 0.8666667 0.125
vt 0.93333334 0.125
vt 0.8666667 0.25
vt 0.93333334 0.25
vt 0.8666667 0.125
vt 0.93333334 0.125
vt 0.8666667 0.25
vt 0.93333334 0.25
vt 0.8666667 0.125
vt 0.93333334 0.125
vt 0.8666667 0.25
vt 0.93333334 0.25
vt 0.8666667 0.125
vt 0.93333334 0.125
vt 0.8666667 0.25
vt 0.93333334 0.25
vt 0.8666667 0.125
vt 0.93333334 0.125
vt 0.8666667 0.25
vt 0.93333334 0.25
vt 0.8666667 0.125
vt 0.93333334 0.125
vt 0.8666667 0.25
vt 0.93333334 0.25
vt 0.8666667 0.125
vt 0.93333334 0.125
vt 0.8666667 0.25
vt 0.93333334 0.25
vt 0.8666667 0.125
vt 0.93333334 0.125
vt 0.8666667 0.25
vt 0.93333334 0.25
vt 0.8666667 0.125
vt 0.93333334 0.125
vt 0.8666667 0.25
vt 0.93333334 0.25
vt 0.8666667 0.125
vt 0.93333334 0.125
vt 0.8666667 0.25
vt 0.93333334 0.25
vt 0.8666667 0.125
vt 0.93333334 0.125
vt 0.8666667 0.25
vt 0.93333334 0.25
vt 0.8666667 0.125
vt 0.93333334 0.125
vt 0.8666667 0.25
vt 0.93333334 0.25
vt 0.8666667 0.125
vt 0.93333334 0.125
vt 0.8666667 0.25
vt 0.93333334 0.25
vt 0.8666667 0.125
vt 0.93333334 0.125
vt 0.8666667 0.25
vt 0.93333334 0.25
vn -0 -1 0
vn -0 -1 0
vn -0 -1 0
vn -0 -1 0
vn -0 0 -1
vn -0 0 -1
vn -0 0 -1
vn -0 0 -1
vn 1 0 0
vn 1 0 0
vn 1 0 0
vn 1 0 0
vn -0 1 0
vn -0 1 0
vn -0 1 0
vn -0 1 0
vn -0 -1 0
vn -0 -1 0
vn -0 -1 0
vn -0 -1 0
vn -0 0 -1
vn -0 0 -1
vn -0 0 -1
vn -0 0 -1
vn 1 0 0
vn 1 0 0
vn 1 0 0
vn 1 0 0
vn -0 0 1
vn -0 0 1
vn -0 0 1
vn -0 0 1
vn -0 -1 0
vn -0 -1 0
vn -0 -1 0
vn -0 -1 0
vn -0 0 1
vn -0 0 1
vn -0 0 1
vn -0 0 1
vn -0 -1 0
vn -0 -1 0
vn -0 -1 0
vn -0 -1 0
vn -0 0 -1
vn -0 0 -1
vn -0 0 -1
vn -0 0 -1
vn 1 0 0
vn 1 0 0
vn 1 0 0
vn 1 0 0
vn -0 1 0
vn -0 1 0
vn -0 1 0
vn -0 1 0
vn -0 -1 0
vn -0 -1 0
vn -0 -1 0
vn -0 -1 0
vn -0 0 -1
vn -0 0 -1
vn -0 0 -1
vn -0 0 -1
vn 1 0 0
vn 1 0 0
vn 1 0 0
vn 1 0 0
vn -0 -1 0
vn -0 -1 0
vn -0 -1 0
vn -0 -1 0
vn -0 0 1
vn -0 0 1
vn -0 0 1
vn -0 0 1
vn 1 0 0
vn 1 0 0
vn 1 0 0
vn 1 0 0
vn -1 0 0
vn -1 0 0
vn -1 0 0
vn -1 0 0
vn -1 0 0
vn -1 0 0
vn -1 0 0
vn -1 0 0
vn -1 0 0
vn -1 0 0
vn -1 0 0
vn -1 0 0
vn -0 -1 0
vn -0 -1 0
vn -0 -1 0
vn -0 -1 0
vn -0 0 -1
vn -0 0 -1
vn -0 0 -1
vn -0 0 -1
vn -1 0 0
vn -1 0 0
vn -1 0 0
vn -1 0 0
vn -0 0 -1
vn -0 0 -1
vn -0 0 -1
vn -0 0 -1
vn -1 0 0
vn -1 0 0
vn -1 0 0
vn -1 0 0
vn -0 0 1
vn -0 0 1
vn -0 0 1
vn -0 0 1
vn -0 -1 0
vn -0 -1 0
vn -0 -1 0
vn -0 -1 0
g Mesh_0_0
f 2/2/2 1/1/1 3/3/3
f 2/2/2 3/3/3 4/4/4
f 5/5/5 6/6/6 7/7/7
f 7/7/7 6/6/6 8/8/8
f 10/10/10 9/9/9 11/11/11
f 10/10/10 11/11/11 12/12/12
f 13/13/13 14/14/14 15/15/15
f 15/15/15 14/14/14 16/16/16
f 18/18/18 17/17/17 19/19/19
f 18/18/18 19/19/19 20/20/20
f 21/21/21 22/22/22 23/23/23
f 23/23/23 22/22/22 24/24/24
f 26/26/26 25/25/25 27/27/27
f 26/26/26 27/27/27 28/28/28
f 30/30/30 29/29/29 31/31/31
f 30/30/30 31/31/31 32/32/32
f 34/34/34 33/33/33 35/35/35
f 34/34/34 35/35/35 36/36/36
f 38/38/38 37/37/37 39/39/39
f 38/38/38 39/39/39 40/40/40
f 42/42/42 41/41/41 43/43/43
f 42/42/42 43/43/43 44/44/44
f 45/45/45 46/46/46 47/47/47
f 47/47/47 46/46/46 48/48/48
f 50/50/50 49/49/49 51/51/51
f 50/50/50 51/51/51 52/52/52
f 53/53/53 54/54/54 55/55/55
f 55/55/55 54/54/54 56/56/56
f 58/58/58 57/57/57 59/59/59
f 58/58/58 59/59/59 60/60/60
f 61/61/61 62/62/62 63/63/63
f 63/63/63 62/62/62 64/64/64
f 66/66/66 65/65/65 67/67/67
f 66/66/66 67/67/67 68/68/68
f 70/70/70 69/69/69 71/71/71
f 70/70/70 71/71/71 72/72/72
f 74/74/74 73/73/73 75/75/75
f 74/74/74 75/75/75 76/76/76
f 78/78/78 77/77/77 79/79/79
f 78/78/78 79/79/79 80/80/80
f 81/81/81 82/82/82 83/83/83
f 83/83/83 82/82/82 84/84/84
f 85/85/85 86/86/86 87/87/87
f 87/87/87 86/86/86 88/88/88
f 89/89/89 90/90/90 91/91/91
f 91/91/91 90/90/90 92/92/92
f 94/94/94 93/93/93 95/95/95
f 94/94/94 95/95/95 96/96/96
f 97/97/97 98/98/98 99/99/99
f 99/99/99 98/98/98 100/100/100
f 101/101/101 102/102/102 103/103/103
f 103/103/103 102/102/102 104/104/104
f 105/105/105 106/106/106 107/107/107
f 107/107/107 106/106/106 108/108/108
f 109/109/109 110/110/110 111/111/111
f 111/111/111 110/110/110 112/112/112
f 114/114/114 113/113/113 115/115/115
f 114/114/114 115/115/115 116/116/116
f 118/118/118 117/117/117 119/119/119
f 118/118/118 119/119/119 120/120/120
