g Mesh_0
v 0.1485 1.60776 -0.10394997
v 0.0495 1.60776 -0.10394997
v 0.1485 1.60776 -0.0049499716
v 0.0495 1.60776 -0.0049499716
v 0.1485 1.50876 -0.10394997
v 0.0495 1.50876 -0.10394997
v 0.1485 1.50876 -0.0049499716
v 0.0495 1.50876 -0.0049499716
v 0.1485 1.50876 -0.10394997
v 0.0495 1.50876 -0.10394997
v 0.1485 1.60776 -0.10394997
v 0.0495 1.60776 -0.10394997
v 0.1485 1.50876 -0.10394997
v 0.1485 1.50876 0.29205003
v 0.1485 1.60776 -0.10394997
v 0.1485 1.60776 0.29205003
v 0.1485 1.40976 -0.0049499716
v 0.0495 1.40976 -0.0049499716
v 0.1485 1.40976 0.19305003
v 0.0495 1.40976 0.19305003
v 0.1485 1.40976 -0.0049499716
v 0.0495 1.40976 -0.0049499716
v 0.1485 1.50876 -0.0049499716
v 0.0495 1.50876 -0.0049499716
v 0.1485 1.40976 -0.0049499716
v 0.1485 1.40976 0.19305003
v 0.1485 1.50876 -0.0049499716
v 0.1485 1.50876 0.19305003
v 0.1485 1.7067599 -0.0049499716
v 0.0495 1.7067599 -0.0049499716
v 0.1485 1.7067599 0.19305003
v 0.0495 1.7067599 0.19305003
v 0.1485 1.60776 -0.0049499716
v 0.0495 1.60776 -0.0049499716
v 0.1485 1.7067599 -0.0049499716
v 0.0495 1.7067599 -0.0049499716
v 0.1485 1.60776 -0.0049499716
v 0.1485 1.60776 0.19305003
v 0.1485 1.7067599 -0.0049499716
v 0.1485 1.7067599 0.19305003
v 0.1485 1.40976 0.19305003
v 0.0495 1.40976 0.19305003
v 0.1485 1.50876 0.19305003
v 0.0495 1.50876 0.19305003
v 0.1485 1.60776 0.19305003
v 0.0495 1.60776 0.19305003
v 0.1485 1.7067599 0.19305003
v 0.0495 1.7067599 0.19305003
v 0.1485 1.60776 0.19305003
v 0.0495 1.60776 0.19305003
v 0.1485 1.60776 0.29205003
v 0.0495 1.60776 0.29205003
v 0.1485 1.50876 0.19305003
v 0.0495 1.50876 0.19305003
v 0.1485 1.50876 0.29205003
v 0.0495 1.50876 0.29205003
v 0.1485 1.50876 0.29205003
v -0.1485 1.50876 0.29205003
v 0.1485 1.60776 0.29205003
v -0.1485 1.60776 0.29205003
v 0.0495 1.40976 -0.40094995
v -0.0495 1.40976 -0.40094995
v 0.0495 1.40976 -0.30194998
v -0.0495 1.40976 -0.30194998
v 0.0495 1.40976 -0.40094995
v -0.0495 1.40976 -0.40094995
v 0.0495 1.7067599 -0.40094995
v -0.0495 1.7067599 -0.40094995
v 0.0495 1.40976 -0.40094995
v 0.0495 1.40976 -0.10394997
v 0.0495 1.7067599 -0.40094995
v 0.0495 1.7067599 -0.10394997
v -0.0495 1.40976 -0.40094995
v -0.0495 1.40976 -0.10394997
v -0.0495 1.7067599 -0.40094995
v -0.0495 1.7067599 -0.10394997
v 0.0495 1.7067599 -0.40094995
v -0.0495 1.7067599 -0.40094995
v 0.0495 1.7067599 -0.30194998
v -0.0495 1.7067599 -0.30194998
v 0.0495 1.31076 -0.30194998
v -0.0495 1.31076 -0.30194998
v 0.0495 1.31076 -0.10394997
v -0.0495 1.31076 -0.10394997
v 0.0495 1.31076 -0.30194998
v -0.0495 1.31076 -0.30194998
v 0.0495 1.40976 -0.30194998
v -0.0495 1.40976 -0.30194998
v 0.0495 1.31076 -0.30194998
v 0.0495 1.31076 -0.10394997
v 0.0495 1.40976 -0.30194998
v 0.0495 1.40976 -0.10394997
v -0.0495 1.31076 -0.30194998
v -0.0495 1.31076 -0.10394997
v -0.0495 1.40976 -0.30194998
v -0.0495 1.40976 -0.10394997
v 0.0495 1.80576 -0.30194998
v -0.0495 1.80576 -0.30194998
v 0.0495 1.80576 -0.10394997
v -0.0495 1.80576 -0.10394997
v 0.0495 1.7067599 -0.30194998
v -0.0495 1.7067599 -0.30194998
v 0.0495 1.80576 -0.30194998
v -0.0495 1.80576 -0.30194998
v 0.0495 1.7067599 -0.30194998
v 0.0495 1.7067599 -0.10394997
v 0.0495 1.80576 -0.30194998
v 0.0495 1.80576 -0.10394997
v -0.0495 1.7067599 -0.30194998
v -0.0495 1.7067599 -0.10394997
v -0.0495 1.80576 -0.30194998
v -0.0495 1.80576 -0.10394997
v 0.0495 1.31076 -0.10394997
v -0.0495 1.31076 -0.10394997
v 0.0495 1.40976 -0.10394997
v -0.0495 1.40976 -0.10394997
v 0.0495 1.7067599 -0.10394997
v -0.0495 1.7067599 -0.10394997
v 0.0495 1.80576 -0.10394997
v -0.0495 1.80576 -0.10394997
v 0.0495 1.40976 -0.10394997
v -0.0495 1.40976 -0.10394997
v 0.0495 1.40976 -0.0049499716
v -0.0495 1.40976 -0.0049499716
v 0.0495 1.40976 -0.10394997
v 0.0495 1.40976 -0.0049499716
v 0.0495 1.50876 -0.10394997
v 0.0495 1.50876 -0.0049499716
v -0.0495 1.40976 -0.10394997
v -0.0495 1.40976 -0.0049499716
v -0.0495 1.50876 -0.10394997
v -0.0495 1.50876 -0.0049499716
v 0.0495 1.7067599 -0.10394997
v -0.0495 1.7067599 -0.10394997
v 0.0495 1.7067599 -0.0049499716
v -0.0495 1.7067599 -0.0049499716
v 0.0495 1.60776 -0.10394997
v 0.0495 1.60776 -0.0049499716
v 0.0495 1.7067599 -0.10394997
v 0.0495 1.7067599 -0.0049499716
v -0.0495 1.60776 -0.10394997
v -0.0495 1.60776 -0.0049499716
v -0.0495 1.7067599 -0.10394997
v -0.0495 1.7067599 -0.0049499716
v 0.0495 -0.57023996 -0.0049499716
v -0.0495 -0.57023996 -0.0049499716
v 0.0495 -0.57023996 0.09405003
v -0.0495 -0.57023996 0.09405003
v 0.0495 -0.57023996 -0.0049499716
v -0.0495 -0.57023996 -0.0049499716
v 0.0495 1.40976 -0.0049499716
v -0.0495 1.40976 -0.0049499716
v 0.0495 -0.57023996 0.09405003
v -0.0495 -0.57023996 0.09405003
v 0.0495 1.40976 0.09405003
v -0.0495 1.40976 0.09405003
v 0.0495 -0.57023996 -0.0049499716
v 0.0495 -0.57023996 0.09405003
v 0.0495 1.40976 -0.0049499716
v 0.0495 1.40976 0.09405003
v -0.0495 -0.57023996 -0.0049499716
v -0.0495 -0.57023996 0.09405003
v -0.0495 1.40976 -0.0049499716
v -0.0495 1.40976 0.09405003
v 0.0495 1.80576 -0.0049499716
v -0.0495 1.80576 -0.0049499716
v 0.0495 1.80576 0.09405003
v -0.0495 1.80576 0.09405003
v 0.0495 1.7067599 -0.0049499716
v -0.0495 1.7067599 -0.0049499716
v 0.0495 1.80576 -0.0049499716
v -0.0495 1.80576 -0.0049499716
v 0.0495 1.7067599 0.09405003
v -0.0495 1.7067599 0.09405003
v 0.0495 1.80576 0.09405003
v -0.0495 1.80576 0.09405003
v 0.0495 1.7067599 -0.0049499716
v 0.0495 1.7067599 0.09405003
v 0.0495 1.80576 -0.0049499716
v 0.0495 1.80576 0.09405003
v -0.0495 1.7067599 -0.0049499716
v -0.0495 1.7067599 0.09405003
v -0.0495 1.80576 -0.0049499716
v -0.0495 1.80576 0.09405003
v 0.0495 1.40976 0.09405003
v -0.0495 1.40976 0.09405003
v 0.0495 1.40976 0.29205003
v -0.0495 1.40976 0.29205003
v 0.0495 1.7067599 0.09405003
v -0.0495 1.7067599 0.09405003
v 0.0495 1.7067599 0.29205003
v -0.0495 1.7067599 0.29205003
v 0.0495 1.40976 0.29205003
v -0.0495 1.40976 0.29205003
v 0.0495 1.50876 0.29205003
v -0.0495 1.50876 0.29205003
v 0.0495 1.40976 0.19305003
v 0.0495 1.40976 0.29205003
v 0.0495 1.50876 0.19305003
v 0.0495 1.50876 0.29205003
v -0.0495 1.40976 0.19305003
v -0.0495 1.40976 0.29205003
v -0.0495 1.50876 0.19305003
v -0.0495 1.50876 0.29205003
v 0.0495 1.60776 0.29205003
v -0.0495 1.60776 0.29205003
v 0.0495 1.7067599 0.29205003
v -0.0495 1.7067599 0.29205003
v 0.0495 1.60776 0.19305003
v 0.0495 1.60776 0.29205003
v 0.0495 1.7067599 0.19305003
v 0.0495 1.7067599 0.29205003
v -0.0495 1.60776 0.19305003
v -0.0495 1.60776 0.29205003
v -0.0495 1.7067599 0.19305003
v -0.0495 1.7067599 0.29205003
v -0.0495 1.60776 -0.10394997
v -0.1485 1.60776 -0.10394997
v -0.0495 1.60776 -0.0049499716
v -0.1485 1.60776 -0.0049499716
v -0.0495 1.50876 -0.10394997
v -0.1485 1.50876 -0.10394997
v -0.0495 1.50876 -0.0049499716
v -0.1485 1.50876 -0.0049499716
v -0.0495 1.50876 -0.10394997
v -0.1485 1.50876 -0.10394997
v -0.0495 1.60776 -0.10394997
v -0.1485 1.60776 -0.10394997
v -0.1485 1.50876 -0.10394997
v -0.1485 1.50876 0.29205003
v -0.1485 1.60776 -0.10394997
v -0.1485 1.60776 0.29205003
v -0.0495 1.40976 -0.0049499716
v -0.1485 1.40976 -0.0049499716
v -0.0495 1.40976 0.19305003
v -0.1485 1.40976 0.19305003
v -0.0495 1.40976 -0.0049499716
v -0.1485 1.40976 -0.0049499716
v -0.0495 1.50876 -0.0049499716
v -0.1485 1.50876 -0.0049499716
v -0.1485 1.40976 -0.0049499716
v -0.1485 1.40976 0.19305003
v -0.1485 1.50876 -0.0049499716
v -0.1485 1.50876 0.19305003
v -0.0495 1.7067599 -0.0049499716
v -0.1485 1.7067599 -0.0049499716
v -0.0495 1.7067599 0.19305003
v -0.1485 1.7067599 0.19305003
v -0.0495 1.60776 -0.0049499716
v -0.1485 1.60776 -0.0049499716
v -0.0495 1.7067599 -0.0049499716
v -0.1485 1.7067599 -0.0049499716
v -0.1485 1.60776 -0.0049499716
v -0.1485 1.60776 0.19305003
v -0.1485 1.7067599 -0.0049499716
v -0.1485 1.7067599 0.19305003
v -0.0495 1.40976 0.19305003
v -0.1485 1.40976 0.19305003
v -0.0495 1.50876 0.19305003
v -0.1485 1.50876 0.19305003
v -0.0495 1.60776 0.19305003
v -0.1485 1.60776 0.19305003
v -0.0495 1.7067599 0.19305003
v -0.1485 1.7067599 0.19305003
v -0.0495 1.60776 0.19305003
v -0.1485 1.60776 0.19305003
v -0.0495 1.60776 0.29205003
v -0.1485 1.60776 0.29205003
v -0.0495 1.50876 0.19305003
v -0.1485 1.50876 0.19305003
v -0.0495 1.50876 0.29205003
v -0.1485 1.50876 0.29205003
vt 0.3125 0.7419355
vt 0.34375 0.7419355
vt 0.3125 0.7741935
vt 0.34375 0.7741935
vt 0.3125 0.7419355
vt 0.34375 0.7419355
vt 0.3125 0.7741935
vt 0.34375 0.7741935
vt 0.3125 0.7419355
vt 0.34375 0.7419355
vt 0.3125 0.7741935
vt 0.34375 0.7741935
vt 0.71875 0.032258064
vt 0.84375 0.032258064
vt 0.71875 0.06451613
vt 0.84375 0.06451613
vt 0.03125 0.7419355
vt 0.0625 0.7419355
vt 0.03125 0.80645156
vt 0.0625 0.80645156
vt 0.3125 0.7419355
vt 0.34375 0.7419355
vt 0.3125 0.7741935
vt 0.34375 0.7741935
vt 0.90625 0.032258064
vt 0.96875 0.032258064
vt 0.90625 0.06451613
vt 0.96875 0.06451613
vt 0.03125 0.87096775
vt 0.0625 0.87096775
vt 0.03125 0.9354838
vt 0.0625 0.9354838
vt 0.3125 0.7419355
vt 0.34375 0.7419355
vt 0.3125 0.7741935
vt 0.34375 0.7741935
vt 0.59375 0.19354838
vt 0.65625 0.19354838
vt 0.59375 0.22580644
vt 0.65625 0.22580644
vt 0.3125 0.8387097
vt 0.34375 0.8387097
vt 0.3125 0.87096775
vt 0.34375 0.87096775
vt 0.3125 0.8387097
vt 0.34375 0.8387097
vt 0.3125 0.87096775
vt 0.34375 0.87096775
vt 0.3125 0.8387097
vt 0.34375 0.8387097
vt 0.3125 0.87096775
vt 0.34375 0.87096775
vt 0.3125 0.8387097
vt 0.34375 0.8387097
vt 0.3125 0.87096775
vt 0.34375 0.87096775
vt 0.3125 0.8387097
vt 0.34375 0.8387097
vt 0.3125 0.87096775
vt 0.34375 0.87096775
vt 0.3125 0.9354838
vt 0.34375 0.9354838
vt 0.3125 0.96774197
vt 0.34375 0.96774197
vt 0.3125 0.9354838
vt 0.34375 0.9354838
vt 0.3125 0.96774197
vt 0.34375 0.96774197
vt 0.40625 0.032258064
vt 0.5 0.032258064
vt 0.40625 0.12903225
vt 0.5 0.12903225
vt 0.5625 0.032258064
vt 0.65625 0.032258064
vt 0.5625 0.12903225
vt 0.65625 0.12903225
vt 0.3125 0.9354838
vt 0.34375 0.9354838
vt 0.3125 0.96774197
vt 0.34375 0.96774197
vt 0.125 0.7419355
vt 0.15625 0.7419355
vt 0.125 0.80645156
vt 0.15625 0.80645156
vt 0.3125 0.9354838
vt 0.34375 0.9354838
vt 0.3125 0.96774197
vt 0.34375 0.96774197
vt 0.71875 0.19354838
vt 0.78125 0.19354838
vt 0.71875 0.22580644
vt 0.78125 0.22580644
vt 0.84375 0.19354838
vt 0.90625 0.19354838
vt 0.84375 0.22580644
vt 0.90625 0.22580644
vt 0.125 0.87096775
vt 0.15625 0.87096775
vt 0.125 0.9354838
vt 0.15625 0.9354838
vt 0.3125 0.9354838
vt 0.34375 0.9354838
vt 0.3125 0.96774197
vt 0.34375 0.96774197
vt 0.40625 0.29032257
vt 0.46875 0.29032257
vt 0.40625 0.32258064
vt 0.46875 0.32258064
vt 0.53125 0.29032257
vt 0.59375 0.29032257
vt 0.53125 0.32258064
vt 0.59375 0.32258064
vt 0.3125 0.7419355
vt 0.34375 0.7419355
vt 0.3125 0.7741935
vt 0.34375 0.7741935
vt 0.3125 0.7419355
vt 0.34375 0.7419355
vt 0.3125 0.7741935
vt 0.34375 0.7741935
vt 0.3125 0.7419355
vt 0.34375 0.7419355
vt 0.3125 0.7741935
vt 0.34375 0.7741935
vt 0.3125 0.7419355
vt 0.34375 0.7419355
vt 0.3125 0.7741935
vt 0.34375 0.7741935
vt 0.3125 0.7419355
vt 0.34375 0.7419355
vt 0.3125 0.7741935
vt 0.34375 0.7741935
vt 0.3125 0.7419355
vt 0.34375 0.7419355
vt 0.3125 0.7741935
vt 0.34375 0.7741935
vt 0.3125 0.7419355
vt 0.34375 0.7419355
vt 0.3125 0.7741935
vt 0.34375 0.7741935
vt 0.3125 0.7419355
vt 0.34375 0.7419355
vt 0.3125 0.7741935
vt 0.34375 0.7741935
vt 0.90625 0.29032257
vt 0.9375 0.29032257
vt 0.90625 0.32258064
vt 0.9375 0.32258064
vt 0.03125 0.032258064
vt 0.0625 0.032258064
vt 0.03125 0.6774193
vt 0.0625 0.6774193
vt 0.125 0.032258064
vt 0.15625 0.032258064
vt 0.125 0.6774193
vt 0.15625 0.6774193
vt 0.21875 0.032258064
vt 0.25 0.032258064
vt 0.21875 0.6774193
vt 0.25 0.6774193
vt 0.3125 0.032258064
vt 0.34375 0.032258064
vt 0.3125 0.6774193
vt 0.34375 0.6774193
vt 0.90625 0.29032257
vt 0.9375 0.29032257
vt 0.90625 0.32258064
vt 0.9375 0.32258064
vt 0.90625 0.29032257
vt 0.9375 0.29032257
vt 0.90625 0.32258064
vt 0.9375 0.32258064
vt 0.90625 0.29032257
vt 0.9375 0.29032257
vt 0.90625 0.32258064
vt 0.9375 0.32258064
vt 0.90625 0.29032257
vt 0.9375 0.29032257
vt 0.90625 0.32258064
vt 0.9375 0.32258064
vt 0.90625 0.29032257
vt 0.9375 0.29032257
vt 0.90625 0.32258064
vt 0.9375 0.32258064
vt 0.3125 0.8387097
vt 0.34375 0.8387097
vt 0.3125 0.87096775
vt 0.34375 0.87096775
vt 0.3125 0.8387097
vt 0.34375 0.8387097
vt 0.3125 0.87096775
vt 0.34375 0.87096775
vt 0.3125 0.8387097
vt 0.34375 0.8387097
vt 0.3125 0.87096775
vt 0.34375 0.87096775
vt 0.3125 0.8387097
vt 0.34375 0.8387097
vt 0.3125 0.87096775
vt 0.34375 0.87096775
vt 0.3125 0.8387097
vt 0.34375 0.8387097
vt 0.3125 0.87096775
vt 0.34375 0.87096775
vt 0.3125 0.8387097
vt 0.34375 0.8387097
vt 0.3125 0.87096775
vt 0.34375 0.87096775
vt 0.3125 0.8387097
vt 0.34375 0.8387097
vt 0.3125 0.87096775
vt 0.34375 0.87096775
vt 0.3125 0.8387097
vt 0.34375 0.8387097
vt 0.3125 0.87096775
vt 0.34375 0.87096775
vt 0.3125 0.7419355
vt 0.34375 0.7419355
vt 0.3125 0.7741935
vt 0.34375 0.7741935
vt 0.3125 0.7419355
vt 0.34375 0.7419355
vt 0.3125 0.7741935
vt 0.34375 0.7741935
vt 0.3125 0.7419355
vt 0.34375 0.7419355
vt 0.3125 0.7741935
vt 0.34375 0.7741935
vt 0.40625 0.19354838
vt 0.53125 0.19354838
vt 0.40625 0.22580644
vt 0.53125 0.22580644
vt 0.21875 0.7419355
vt 0.25 0.7419355
vt 0.21875 0.80645156
vt 0.25 0.80645156
vt 0.3125 0.7419355
vt 0.34375 0.7419355
vt 0.3125 0.7741935
vt 0.34375 0.7741935
vt 0.65625 0.29032257
vt 0.71875 0.29032257
vt 0.65625 0.32258064
vt 0.71875 0.32258064
vt 0.21875 0.87096775
vt 0.25 0.87096775
vt 0.21875 0.9354838
vt 0.25 0.9354838
vt 0.3125 0.7419355
vt 0.34375 0.7419355
vt 0.3125 0.7741935
vt 0.34375 0.7741935
vt 0.78125 0.29032257
vt 0.84375 0.29032257
vt 0.78125 0.32258064
vt 0.84375 0.32258064
vt 0.3125 0.8387097
vt 0.34375 0.8387097
vt 0.3125 0.87096775
vt 0.34375 0.87096775
vt 0.3125 0.8387097
vt 0.34375 0.8387097
vt 0.3125 0.87096775
vt 0.34375 0.87096775
vt 0.3125 0.8387097
vt 0.34375 0.8387097
vt 0.3125 0.87096775
vt 0.34375 0.87096775
vt 0.3125 0.8387097
vt 0.34375 0.8387097
vt 0.3125 0.87096775
vt 0.34375 0.87096775
vn -0 1 0
vn -0 1 0
vn -0 1 0
vn -0 1 0
vn -0 -1 0
vn -0 -1 0
vn -0 -1 0
vn -0 -1 0
vn -0 0 -1
vn -0 0 -1
vn -0 0 -1
vn -0 0 -1
vn 1 0 0
vn 1 0 0
vn 1 0 0
vn 1 0 0
vn -0 -1 0
vn -0 -1 0
vn -0 -1 0
vn -0 -1 0
vn -0 0 -1
vn -0 0 -1
vn -0 0 -1
vn -0 0 -1
vn 1 0 0
vn 1 0 0
vn 1 0 0
vn 1 0 0
vn -0 1 0
vn -0 1 0
vn -0 1 0
vn -0 1 0
vn -0 0 -1
vn -0 0 -1
vn -0 0 -1
vn -0 0 -1
vn 1 0 0
vn 1 0 0
vn 1 0 0
vn 1 0 0
vn -0 0 1
vn -0 0 1
vn -0 0 1
vn -0 0 1
vn -0 0 1
vn -0 0 1
vn -0 0 1
vn -0 0 1
vn -0 1 0
vn -0 1 0
vn -0 1 0
vn -0 1 0
vn -0 -1 0
vn -0 -1 0
vn -0 -1 0
vn -0 -1 0
vn -0 0 0.99999994
vn -0 0 0.99999994
vn -0 0 0.99999994
vn -0 0 0.99999994
vn -0 -1 0
vn -0 -1 0
vn -0 -1 0
vn -0 -1 0
vn -0 0 -1
vn -0 0 -1
vn -0 0 -1
vn -0 0 -1
vn 0.99999994 0 0
vn 0.99999994 0 0
vn 0.99999994 0 0
vn 0.99999994 0 0
vn -0.99999994 0 0
vn -0.99999994 0 0
vn -0.99999994 0 0
vn -0.99999994 0 0
vn -0 1 0
vn -0 1 0
vn -0 1 0
vn -0 1 0
vn -0 -1 0
vn -0 -1 0
vn -0 -1 0
vn -0 -1 0
vn -0 0 -1
vn -0 0 -1
vn -0 0 -1
vn -0 0 -1
vn 1 0 0
vn 1 0 0
vn 1 0 0
vn 1 0 0
vn -1 0 0
vn -1 0 0
vn -1 0 0
vn -1 0 0
vn -0 1 0
vn -0 1 0
vn -0 1 0
vn -0 1 0
vn -0 0 -1
vn -0 0 -1
vn -0 0 -1
vn -0 0 -1
vn 1 0 0
vn 1 0 0
vn 1 0 0
vn 1 0 0
vn -1 0 0
vn -1 0 0
vn -1 0 0
vn -1 0 0
vn -0 0 1
vn -0 0 1
vn -0 0 1
vn -0 0 1
vn -0 0 1
vn -0 0 1
vn -0 0 1
vn -0 0 1
vn -0 -1 0
vn -0 -1 0
vn -0 -1 0
vn -0 -1 0
vn 1 0 0
vn 1 0 0
vn 1 0 0
vn 1 0 0
vn -1 0 0
vn -1 0 0
vn -1 0 0
vn -1 0 0
vn -0 1 0
vn -0 1 0
vn -0 1 0
vn -0 1 0
vn 1 0 0
vn 1 0 0
vn 1 0 0
vn 1 0 0
vn -1 0 0
vn -1 0 0
vn -1 0 0
vn -1 0 0
vn -0 -1 0
vn -0 -1 0
vn -0 -1 0
vn -0 -1 0
vn -0 0 -1
vn -0 0 -1
vn -0 0 -1
vn -0 0 -1
vn -0 0 1
vn -0 0 1
vn -0 0 1
vn -0 0 1
vn 1 0 0
vn 1 0 0
vn 1 0 0
vn 1 0 0
vn -1 0 0
vn -1 0 0
vn -1 0 0
vn -1 0 0
vn -0 1 0
vn -0 1 0
vn -0 1 0
vn -0 1 0
vn -0 0 -1
vn -0 0 -1
vn -0 0 -1
vn -0 0 -1
vn -0 0 1
vn -0 0 1
vn -0 0 1
vn -0 0 1
vn 1 0 0
vn 1 0 0
vn 1 0 0
vn 1 0 0
vn -1 0 0
vn -1 0 0
vn -1 0 0
vn -1 0 0
vn -0 -1 0
vn -0 -1 0
vn -0 -1 0
vn -0 -1 0
vn -0 1 0
vn -0 1 0
vn -0 1 0
vn -0 1 0
vn -0 0 1
vn -0 0 1
vn -0 0 1
vn -0 0 1
vn 1 0 0
vn 1 0 0
vn 1 0 0
vn 1 0 0
vn -1 0 0
vn -1 0 0
vn -1 0 0
vn -1 0 0
vn -0 0 1
vn -0 0 1
vn -0 0 1
vn -0 0 1
vn 1 0 0
vn 1 0 0
vn 1 0 0
vn 1 0 0
vn -1 0 0
vn -1 0 0
vn -1 0 0
vn -1 0 0
vn -0 1 0
vn -0 1 0
vn -0 1 0
vn -0 1 0
vn -0 -1 0
vn -0 -1 0
vn -0 -1 0
vn -0 -1 0
vn -0 0 -1
vn -0 0 -1
vn -0 0 -1
vn -0 0 -1
vn -1 0 0
vn -1 0 0
vn -1 0 0
vn -1 0 0
vn -0 -1 0
vn -0 -1 0
vn -0 -1 0
vn -0 -1 0
vn -0 0 -1
vn -0 0 -1
vn -0 0 -1
vn -0 0 -1
vn -1 0 0
vn -1 0 0
vn -1 0 0
vn -1 0 0
vn -0 1 0
vn -0 1 0
vn -0 1 0
vn -0 1 0
vn -0 0 -1
vn -0 0 -1
vn -0 0 -1
vn -0 0 -1
vn -1 0 0
vn -1 0 0
vn -1 0 0
vn -1 0 0
vn -0 0 1
vn -0 0 1
vn -0 0 1
vn -0 0 1
vn -0 0 1
vn -0 0 1
vn -0 0 1
vn -0 0 1
vn -0 1 0
vn -0 1 0
vn -0 1 0
vn -0 1 0
vn -0 -1 0
vn -0 -1 0
vn -0 -1 0
vn -0 -1 0
g Mesh_0_0
f 1/1/1 2/2/2 3/3/3
f 3/3/3 2/2/2 4/4/4
f 6/6/6 5/5/5 7/7/7
f 6/6/6 7/7/7 8/8/8
f 9/9/9 10/10/10 11/11/11
f 11/11/11 10/10/10 12/12/12
f 14/14/14 13/13/13 15/15/15
f 14/14/14 15/15/15 16/16/16
f 18/18/18 17/17/17 19/19/19
f 18/18/18 19/19/19 20/20/20
f 21/21/21 22/22/22 23/23/23
f 23/23/23 22/22/22 24/24/24
f 26/26/26 25/25/25 27/27/27
f 26/26/26 27/27/27 28/28/28
f 29/29/29 30/30/30 31/31/31
f 31/31/31 30/30/30 32/32/32
f 33/33/33 34/34/34 35/35/35
f 35/35/35 34/34/34 36/36/36
f 38/38/38 37/37/37 39/39/39
f 38/38/38 39/39/39 40/40/40
f 42/42/42 41/41/41 43/43/43
f 42/42/42 43/43/43 44/44/44
f 46/46/46 45/45/45 47/47/47
f 46/46/46 47/47/47 48/48/48
f 49/49/49 50/50/50 51/51/51
f 51/51/51 50/50/50 52/52/52
f 54/54/54 53/53/53 55/55/55
f 54/54/54 55/55/55 56/56/56
f 58/58/58 57/57/57 59/59/59
f 58/58/58 59/59/59 60/60/60
f 62/62/62 61/61/61 63/63/63
f 62/62/62 63/63/63 64/64/64
f 65/65/65 66/66/66 67/67/67
f 67/67/67 66/66/66 68/68/68
f 70/70/70 69/69/69 71/71/71
f 70/70/70 71/71/71 72/72/72
f 73/73/73 74/74/74 75/75/75
f 75/75/75 74/74/74 76/76/76
f 77/77/77 78/78/78 79/79/79
f 79/79/79 78/78/78 80/80/80
f 82/82/82 81/81/81 83/83/83
f 82/82/82 83/83/83 84/84/84
f 85/85/85 86/86/86 87/87/87
f 87/87/87 86/86/86 88/88/88
f 90/90/90 89/89/89 91/91/91
f 90/90/90 91/91/91 92/92/92
f 93/93/93 94/94/94 95/95/95
f 95/95/95 94/94/94 96/96/96
f 97/97/97 98/98/98 99/99/99
f 99/99/99 98/98/98 100/100/100
f 101/101/101 102/102/102 103/103/103
f 103/103/103 102/102/102 104/104/104
f 106/106/106 105/105/105 107/107/107
f 106/106/106 107/107/107 108/108/108
f 109/109/109 110/110/110 111/111/111
f 111/111/111 110/110/110 112/112/112
f 114/114/114 113/113/113 115/115/115
f 114/114/114 115/115/115 116/116/116
f 118/118/118 117/117/117 119/119/119
f 118/118/118 119/119/119 120/120/120
f 122/122/122 121/121/121 123/123/123
f 122/122/122 123/123/123 124/124/124
f 126/126/126 125/125/125 127/127/127
f 126/126/126 127/127/127 128/128/128
f 129/129/129 130/130/130 131/131/131
f 131/131/131 130/130/130 132/132/132
f 133/133/133 134/134/134 135/135/135
f 135/135/135 134/134/134 136/136/136
f 138/138/138 137/137/137 139/139/139
f 138/138/138 139/139/139 140/140/140
f 141/141/141 142/142/142 143/143/143
f 143/143/143 142/142/142 144/144/144
f 146/146/146 145/145/145 147/147/147
f 146/146/146 147/147/147 148/148/148
f 149/149/149 150/150/150 151/151/151
f 151/151/151 150/150/150 152/152/152
f 154/154/154 153/153/153 155/155/155
f 154/154/154 155/155/155 156/156/156
f 158/158/158 157/157/157 159/159/159
f 158/158/158 159/159/159 160/160/160
f 161/161/161 162/162/162 163/163/163
f 163/163/163 162/162/162 164/164/164
f 165/165/165 166/166/166 167/167/167
f 167/167/167 166/166/166 168/168/168
f 169/169/169 170/170/170 171/171/171
f 171/171/171 170/170/170 172/172/172
f 174/174/174 173/173/173 175/175/175
f 174/174/174 175/175/175 176/176/176
f 178/178/178 177/177/177 179/179/179
f 178/178/178 179/179/179 180/180/180
f 181/181/181 182/182/182 183/183/183
f 183/183/183 182/182/182 184/184/184
f 186/186/186 185/185/185 187/187/187
f 186/186/186 187/187/187 188/188/188
f 189/189/189 190/190/190 191/191/191
f 191/191/191 190/190/190 192/192/192
f 194/194/194 193/193/193 195/195/195
f 194/194/194 195/195/195 196/196/196
f 198/198/198 197/197/197 199/199/199
f 198/198/198 199/199/199 200/200/200
f 201/201/201 202/202/202 203/203/203
f 203/203/203 202/202/202 204/204/204
f 206/206/206 205/205/205 207/207/207
f 206/206/206 207/207/207 208/208/208
f 210/210/210 209/209/209 211/211/211
f 210/210/210 211/211/211 212/212/212
f 213/213/213 214/214/214 215/215/215
f 215/215/215 214/214/214 216/216/216
f 217/217/217 218/218/218 219/219/219
f 219/219/219 218/218/218 220/220/220
f 222/222/222 221/221/221 223/223/223
f 222/222/222 223/223/223 224/224/224
f 225/225/225 226/226/226 227/227/227
f 227/227/227 226/226/226 228/228/228
f 229/229/229 230/230/230 231/231/231
f 231/231/231 230/230/230 232/232/232
f 234/234/234 233/233/233 235/235/235
f 234/234/234 235/235/235 236/236/236
f 237/237/237 238/238/238 239/239/239
f 239/239/239 238/238/238 240/240/240
f 241/241/241 242/242/242 243/243/243
f 243/243/243 242/242/242 244/244/244
f 245/245/245 246/246/246 247/247/247
f 247/247/247 246/246/246 248/248/248
f 249/249/249 250/250/250 251/251/251
f 251/251/251 250/250/250 252/252/252
f 253/253/253 254/254/254 255/255/255
f 255/255/255 254/254/254 256/256/256
f 258/258/258 257/257/257 259/259/259
f 258/258/258 259/259/259 260/260/260
f 262/262/262 261/261/261 263/263/263
f 262/262/262 263/263/263 264/264/264
f 265/265/265 266/266/266 267/267/267
f 267/267/267 266/266/266 268/268/268
f 270/270/270 269/269/269 271/271/271
f 270/270/270 271/271/271 272/272/272
