g Mesh_0
v 0.25 0.2 0
v 0.15 0.2 0
v 0.25 0.2 0.1
v 0.15 0.2 0.1
v 0.25 0.2 0
v 0.15 0.2 0
v 0.25 0.4 0
v 0.15 0.4 0
v 0.25 0.2 0.1
v -0.25 0.2 0.1
v 0.25 0.3 0.1
v -0.25 0.3 0.1
v 0.25 0.2 0
v 0.25 0.2 0.1
v 0.25 0.4 0
v 0.25 0.4 0.1
v 0.25 0.4 0
v 0.15 0.4 0
v 0.25 0.4 0.2
v 0.15 0.4 0.2
v 0.15 0.3 0
v 0.15 0.3 0.2
v 0.15 0.4 0
v 0.15 0.4 0.2
v 0.25 0.3 0.1
v 0.15 0.3 0.1
v 0.25 0.3 0.2
v 0.15 0.3 0.2
v 0.25 0.3 0.2
v 0.15 0.3 0.2
v 0.25 0.4 0.2
v 0.15 0.4 0.2
v 0.25 0.3 0.1
v 0.25 0.3 0.2
v 0.25 0.4 0.1
v 0.25 0.4 0.2
v 0.15 0.1 -0.2
v 0.05 0.1 -0.2
v 0.15 0.1 -0.1
v 0.05 0.1 -0.1
v 0.15 0.1 -0.2
v -0.15 0.1 -0.2
v 0.15 0.3 -0.2
v -0.15 0.3 -0.2
v 0.15 0.1 -0.2
v 0.15 0.1 0
v 0.15 0.3 -0.2
v 0.15 0.3 0
v 0.15 0.3 -0.2
v -0.15 0.3 -0.2
v 0.15 0.3 0.1
v -0.15 0.3 0.1
v 0.15 0 -0.1
v -0.15 0 -0.1
v 0.15 0 0
v -0.15 0 0
v 0.15 0 -0.1
v 0.05 0 -0.1
v 0.15 0.1 -0.1
v 0.05 0.1 -0.1
v 0.15 0 0
v -0.15 0 0
v 0.15 0.1 0
v -0.15 0.1 0
v 0.15 0 -0.1
v 0.15 0 0
v 0.15 0.1 -0.1
v 0.15 0.1 0
v 0.15 0.1 0
v -0.15 0.1 0
v 0.15 0.1 0.1
v -0.15 0.1 0.1
v 0.15 0.1 0.1
v -0.15 0.1 0.1
v 0.15 0.2 0.1
v -0.15 0.2 0.1
v 0.15 0.1 0
v 0.15 0.1 0.1
v 0.15 0.2 0
v 0.15 0.2 0.1
v 0.05 0 -0.2
v -0.05 0 -0.2
v 0.05 0 -0.1
v -0.05 0 -0.1
v 0.05 0 -0.2
v -0.05 0 -0.2
v 0.05 0.1 -0.2
v -0.05 0.1 -0.2
v 0.05 0 -0.2
v 0.05 0 -0.1
v 0.05 0.1 -0.2
v 0.05 0.1 -0.1
v -0.05 0 -0.2
v -0.05 0 -0.1
v -0.05 0.1 -0.2
v -0.05 0.1 -0.1
v -0.05 0.1 -0.2
v -0.15 0.1 -0.2
v -0.05 0.1 -0.1
v -0.15 0.1 -0.1
v -0.15 0.1 -0.2
v -0.15 0.1 0
v -0.15 0.3 -0.2
v -0.15 0.3 0
v -0.05 0 -0.1
v -0.15 0 -0.1
v -0.05 0.1 -0.1
v -0.15 0.1 -0.1
v -0.15 0 -0.1
v -0.15 0 0
v -0.15 0.1 -0.1
v -0.15 0.1 0
v -0.15 0.1 0
v -0.15 0.1 0.1
v -0.15 0.2 0
v -0.15 0.2 0.1
v -0.15 0.2 0
v -0.25 0.2 0
v -0.15 0.2 0.1
v -0.25 0.2 0.1
v -0.15 0.2 0
v -0.25 0.2 0
v -0.15 0.4 0
v -0.25 0.4 0
v -0.25 0.2 0
v -0.25 0.2 0.1
v -0.25 0.4 0
v -0.25 0.4 0.1
v -0.15 0.4 0
v -0.25 0.4 0
v -0.15 0.4 0.2
v -0.25 0.4 0.2
v -0.15 0.3 0
v -0.15 0.3 0.2
v -0.15 0.4 0
v -0.15 0.4 0.2
v -0.15 0.3 0.1
v -0.25 0.3 0.1
v -0.15 0.3 0.2
v -0.25 0.3 0.2
v -0.15 0.3 0.2
v -0.25 0.3 0.2
v -0.15 0.4 0.2
v -0.25 0.4 0.2
v -0.25 0.3 0.1
v -0.25 0.3 0.2
v -0.25 0.4 0.1
v -0.25 0.4 0.2
vt 0.5 0.06666667
vt 0.5625 0.06666667
vt 0.5 0.13333333
vt 0.5625 0.13333333
vt 0.5 0.06666667
vt 0.5625 0.06666667
vt 0.5 0.13333333
vt 0.5625 0.13333333
vt 0.0625 0.06666667
vt 0.375 0.06666667
vt 0.0625 0.13333333
vt 0.375 0.13333333
vt 0.5 0.06666667
vt 0.5625 0.06666667
vt 0.5 0.13333333
vt 0.5625 0.13333333
vt 0.5 0.06666667
vt 0.5625 0.06666667
vt 0.5 0.13333333
vt 0.5625 0.13333333
vt 0.5 0.06666667
vt 0.5625 0.06666667
vt 0.5 0.13333333
vt 0.5625 0.13333333
vt 0.5 0.06666667
vt 0.5625 0.06666667
vt 0.5 0.13333333
vt 0.5625 0.13333333
vt 0.5 0.06666667
vt 0.5625 0.06666667
vt 0.5 0.13333333
vt 0.5625 0.13333333
vt 0.5 0.06666667
vt 0.5625 0.06666667
vt 0.5 0.13333333
vt 0.5625 0.13333333
vt 0.6875 0.06666667
vt 0.75 0.06666667
vt 0.6875 0.13333333
vt 0.75 0.13333333
vt 0.0625 0.26666668
vt 0.25 0.26666668
vt 0.0625 0.40000004
vt 0.25 0.40000004
vt 0.0625 0.53333336
vt 0.1875 0.53333336
vt 0.0625 0.6666667
vt 0.1875 0.6666667
vt 0.875 0.06666667
vt 0.9375 0.06666667
vt 0.875 0.13333333
vt 0.9375 0.13333333
vt 0.875 0.06666667
vt 0.9375 0.06666667
vt 0.875 0.13333333
vt 0.9375 0.13333333
vt 0.875 0.06666667
vt 0.9375 0.06666667
vt 0.875 0.13333333
vt 0.9375 0.13333333
vt 0.875 0.06666667
vt 0.9375 0.06666667
vt 0.875 0.13333333
vt 0.9375 0.13333333
vt 0.875 0.06666667
vt 0.9375 0.06666667
vt 0.875 0.13333333
vt 0.9375 0.13333333
vt 0.875 0.06666667
vt 0.9375 0.06666667
vt 0.875 0.13333333
vt 0.9375 0.13333333
vt 0.875 0.06666667
vt 0.9375 0.06666667
vt 0.875 0.13333333
vt 0.9375 0.13333333
vt 0.875 0.06666667
vt 0.9375 0.06666667
vt 0.875 0.13333333
vt 0.9375 0.13333333
vt 0.875 0.06666667
vt 0.9375 0.06666667
vt 0.875 0.13333333
vt 0.9375 0.13333333
vt 0.875 0.06666667
vt 0.9375 0.06666667
vt 0.875 0.13333333
vt 0.9375 0.13333333
vt 0.875 0.06666667
vt 0.9375 0.06666667
vt 0.875 0.13333333
vt 0.9375 0.13333333
vt 0.875 0.06666667
vt 0.9375 0.06666667
vt 0.875 0.13333333
vt 0.9375 0.13333333
vt 0.6875 0.06666667
vt 0.75 0.06666667
vt 0.6875 0.13333333
vt 0.75 0.13333333
vt 0.0625 0.8
vt 0.1875 0.8
vt 0.0625 0.93333334
vt 0.1875 0.93333334
vt 0.875 0.06666667
vt 0.9375 0.06666667
vt 0.875 0.13333333
vt 0.9375 0.13333333
vt 0.875 0.06666667
vt 0.9375 0.06666667
vt 0.875 0.13333333
vt 0.9375 0.13333333
vt 0.875 0.06666667
vt 0.9375 0.06666667
vt 0.875 0.13333333
vt 0.9375 0.13333333
vt 0.5 0.06666667
vt 0.5625 0.06666667
vt 0.5 0.13333333
vt 0.5625 0.13333333
vt 0.5 0.06666667
vt 0.5625 0.06666667
vt 0.5 0.13333333
vt 0.5625 0.13333333
vt 0.5 0.06666667
vt 0.5625 0.06666667
vt 0.5 0.13333333
vt 0.5625 0.13333333
vt 0.5 0.06666667
vt 0.5625 0.06666667
vt 0.5 0.13333333
vt 0.5625 0.13333333
vt 0.5 0.06666667
vt 0.5625 0.06666667
vt 0.5 0.13333333
vt 0.5625 0.13333333
vt 0.5 0.06666667
vt 0.5625 0.06666667
vt 0.5 0.13333333
vt 0.5625 0.13333333
vt 0.5 0.06666667
vt 0.5625 0.06666667
vt 0.5 0.13333333
vt 0.5625 0.13333333
vt 0.5 0.06666667
vt 0.5625 0.06666667
vt 0.5 0.13333333
vt 0.5625 0.13333333
vn -0 -1 0
vn -0 -1 0
vn -0 -1 0
vn -0 -1 0
vn -0 0 -1
vn -0 0 -1
vn -0 0 -1
vn -0 0 -1
vn -0 0 1
vn -0 0 1
vn -0 0 1
vn -0 0 1
vn 1 0 0
vn 1 0 0
vn 1 0 0
vn 1 0 0
vn -0 1 0
vn -0 1 0
vn -0 1 0
vn -0 1 0
vn -1 0 0
vn -1 0 0
vn -1 0 0
vn -1 0 0
vn -0 -1 0
vn -0 -1 0
vn -0 -1 0
vn -0 -1 0
vn -0 0 1
vn -0 0 1
vn -0 0 1
vn -0 0 1
vn 1 0 0
vn 1 0 0
vn 1 0 0
vn 1 0 0
vn -0 -1 0
vn -0 -1 0
vn -0 -1 0
vn -0 -1 0
vn -0 0 -0.99999994
vn -0 0 -0.99999994
vn -0 0 -0.99999994
vn -0 0 -0.99999994
vn 1 0 0
vn 1 0 0
vn 1 0 0
vn 1 0 0
vn -0 1 0
vn -0 1 0
vn -0 1 0
vn -0 1 0
vn -0 -1 0
vn -0 -1 0
vn -0 -1 0
vn -0 -1 0
vn -0 0 -1
vn -0 0 -1
vn -0 0 -1
vn -0 0 -1
vn -0 0 1
vn -0 0 1
vn -0 0 1
vn -0 0 1
vn 1 0 0
vn 1 0 0
vn 1 0 0
vn 1 0 0
vn -0 -1 0
vn -0 -1 0
vn -0 -1 0
vn -0 -1 0
vn -0 0 1
vn -0 0 1
vn -0 0 1
vn -0 0 1
vn 1 0 0
vn 1 0 0
vn 1 0 0
vn 1 0 0
vn -0 -1 0
vn -0 -1 0
vn -0 -1 0
vn -0 -1 0
vn -0 0 -1
vn -0 0 -1
vn -0 0 -1
vn -0 0 -1
vn 1 0 0
vn 1 0 0
vn 1 0 0
vn 1 0 0
vn -1 0 0
vn -1 0 0
vn -1 0 0
vn -1 0 0
vn -0 -1 0
vn -0 -1 0
vn -0 -1 0
vn -0 -1 0
vn -1 0 0
vn -1 0 0
vn -1 0 0
vn -1 0 0
vn -0 0 -1
vn -0 0 -1
vn -0 0 -1
vn -0 0 -1
vn -1 0 0
vn -1 0 0
vn -1 0 0
vn -1 0 0
vn -1 0 0
vn -1 0 0
vn -1 0 0
vn -1 0 0
vn -0 -1 0
vn -0 -1 0
vn -0 -1 0
vn -0 -1 0
vn -0 0 -1
vn -0 0 -1
vn -0 0 -1
vn -0 0 -1
vn -1 0 0
vn -1 0 0
vn -1 0 0
vn -1 0 0
vn -0 1 0
vn -0 1 0
vn -0 1 0
vn -0 1 0
vn 1 0 0
vn 1 0 0
vn 1 0 0
vn 1 0 0
vn -0 -1 0
vn -0 -1 0
vn -0 -1 0
vn -0 -1 0
vn -0 0 1
vn -0 0 1
vn -0 0 1
vn -0 0 1
vn -1 0 0
vn -1 0 0
vn -1 0 0
vn -1 0 0
g Mesh_0_0
f 2/2/2 1/1/1 3/3/3
f 2/2/2 3/3/3 4/4/4
f 5/5/5 6/6/6 7/7/7
f 7/7/7 6/6/6 8/8/8
f 10/10/10 9/9/9 11/11/11
f 10/10/10 11/11/11 12/12/12
f 14/14/14 13/13/13 15/15/15
f 14/14/14 15/15/15 16/16/16
f 17/17/17 18/18/18 19/19/19
f 19/19/19 18/18/18 20/20/20
f 21/21/21 22/22/22 23/23/23
f 23/23/23 22/22/22 24/24/24
f 26/26/26 25/25/25 27/27/27
f 26/26/26 27/27/27 28/28/28
f 30/30/30 29/29/29 31/31/31
f 30/30/30 31/31/31 32/32/32
f 34/34/34 33/33/33 35/35/35
f 34/34/34 35/35/35 36/36/36
f 38/38/38 37/37/37 39/39/39
f 38/38/38 39/39/39 40/40/40
f 41/41/41 42/42/42 43/43/43
f 43/43/43 42/42/42 44/44/44
f 46/46/46 45/45/45 47/47/47
f 46/46/46 47/47/47 48/48/48
f 49/49/49 50/50/50 51/51/51
f 51/51/51 50/50/50 52/52/52
f 54/54/54 53/53/53 55/55/55
f 54/54/54 55/55/55 56/56/56
f 57/57/57 58/58/58 59/59/59
f 59/59/59 58/58/58 60/60/60
f 62/62/62 61/61/61 63/63/63
f 62/62/62 63/63/63 64/64/64
f 66/66/66 65/65/65 67/67/67
f 66/66/66 67/67/67 68/68/68
f 70/70/70 69/69/69 71/71/71
f 70/70/70 71/71/71 72/72/72
f 74/74/74 73/73/73 75/75/75
f 74/74/74 75/75/75 76/76/76
f 78/78/78 77/77/77 79/79/79
f 78/78/78 79/79/79 80/80/80
f 82/82/82 81/81/81 83/83/83
f 82/82/82 83/83/83 84/84/84
f 85/85/85 86/86/86 87/87/87
f 87/87/87 86/86/86 88/88/88
f 90/90/90 89/89/89 91/91/91
f 90/90/90 91/91/91 92/92/92
f 93/93/93 94/94/94 95/95/95
f 95/95/95 94/94/94 96/96/96
f 98/98/98 97/97/97 99/99/99
f 98/98/98 99/99/99 100/100/100
f 101/101/101 102/102/102 103/103/103
f 103/103/103 102/102/102 104/104/104
f 105/105/105 106/106/106 107/107/107
f 107/107/107 106/106/106 108/108/108
f 109/109/109 110/110/110 111/111/111
f 111/111/111 110/110/110 112/112/112
f 113/113/113 114/114/114 115/115/115
f 115/115/115 114/114/114 116/116/116
f 118/118/118 117/117/117 119/119/119
f 118/118/118 119/119/119 120/120/120
f 121/121/121 122/122/122 123/123/123
f 123/123/123 122/122/122 124/124/124
f 125/125/125 126/126/126 127/127/127
f 127/127/127 126/126/126 128/128/128
f 129/129/129 130/130/130 131/131/131
f 131/131/131 130/130/130 132/132/132
f 134/134/134 133/133/133 135/135/135
f 134/134/134 135/135/135 136/136/136
f 138/138/138 137/137/137 139/139/139
f 138/138/138 139/139/139 140/140/140
f 142/142/142 141/141/141 143/143/143
f 142/142/142 143/143/143 144/144/144
f 145/145/145 146/146/146 147/147/147
f 147/147/147 146/146/146 148/148/148
