g default
v -0.24 0.64 0.08
v -0.24 0.56 0.08
v -0.24 0.56 -0.08
v -0.24 0.64 0
v -0.24 0.71999997 0
v -0.24 0.71999997 -0.08
v -0.24 0.71999997 0.08
v -0.24 0.64 0.08
v -0.24 0.64 0
v -0.24 0.71999997 0
v -0.16 0.64 0.08
v -0.16 0.56 0.16
v -0.16 0.56 0.08
v -0.16 0.71999997 0.08
v -0.16 0.79999995 0.16
v -0.16 0.71999997 0
v -0.16 0.71999997 -0.08
v -0.16 0.79999995 -0.16
v -0.16 0.56 -0.16
v -0.16 0.56 -0.08
v -0.08 0.32 0.16
v -0.08 0.24 0.16
v -0.08 0.24 0.08
v -0.08 0.32 0.08
v -0.08 0.32 0.08
v -0.08 0.24 0.08
v -0.08 0.24 -0.08
v -0.08 0.32 -0.08
v -0.08 0.56 0.16
v -0.08 0.32 0.16
v -0.08 0.32 -0.16
v -0.08 0.56 -0.16
v -0.08 0.32 -0.08
v -0.08 0.24 -0.08
v -0.08 0.24 -0.16
v -0.08 0.32 -0.16
v -0.08 0.79999995 0.24
v -0.08 0.64 0.24
v -0.08 0.64 0.16
v -0.08 0.79999995 0.16
v -0.08 0.88 0.16
v -0.08 0.79999995 -0.16
v -0.08 0.88 -0.16
v -0.08 0.64 -0.16
v -0.08 0.64 -0.24
v -0.08 0.79999995 -0.24
v -0 0.16 0.16
v -0 0 0.16
v -0 0 0.08
v -0 0.16 0.08
v -0 0.16 -0.08
v -0 0 -0.08
v -0 0 -0.16
v -0 0.16 -0.16
v -0 0.24 0.16
v -0 0.16 0.16
v -0 0.16 0.08
v -0 0.24 0.08
v -0 0.24 -0.08
v -0 0.16 -0.08
v -0 0.16 -0.16
v -0 0.24 -0.16
v 0.08 0 0.16
v 0.08 0.16 0.16
v 0.08 0 0.08
v 0.08 0.16 0.08
v 0.08 0 -0.08
v 0.08 0.16 -0.08
v 0.08 0 -0.16
v 0.08 0.16 -0.16
v 0.08 0.16 0.16
v 0.08 0.24 0.16
v 0.08 0.16 0.08
v 0.08 0.24 0.08
v 0.08 0.16 -0.08
v 0.08 0.24 -0.08
v 0.08 0.16 -0.16
v 0.08 0.24 -0.16
v 0.16 0.24 0.16
v 0.16 0.32 0.16
v 0.16 0.24 0.08
v 0.16 0.32 0.08
v 0.16 0.24 0.08
v 0.16 0.32 0.08
v 0.16 0.24 -0.08
v 0.16 0.32 -0.08
v 0.16 0.64 0.16
v 0.16 0.32 0.16
v 0.16 0.32 -0.16
v 0.16 0.64 -0.16
v 0.16 0.24 -0.08
v 0.16 0.32 -0.08
v 0.16 0.24 -0.16
v 0.16 0.32 -0.16
v 0.16 0.64 0.16
v 0.16 0.71999997 0.16
v 0.16 0.64 -0.16
v 0.16 0.71999997 0.08
v 0.16 0.71999997 -0.08
v 0.16 0.71999997 -0.16
v 0.16 0.79999995 0.08
v 0.16 0.79999995 -0.08
v 0.16 0.64 0.24
v 0.16 0.71999997 0.16
v 0.16 0.64 0.16
v 0.16 0.79999995 0.24
v 0.16 0.79999995 0.16
v 0.16 0.88 0.16
v 0.16 0.79999995 0.08
v 0.16 0.79999995 -0.08
v 0.16 0.79999995 -0.16
v 0.16 0.88 -0.16
v 0.16 0.79999995 -0.24
v 0.16 0.64 -0.24
v 0.16 0.71999997 -0.16
v 0.16 0.64 -0.16
v 0.16 0.71999997 0.16
v 0.16 0.79999995 0.16
v 0.16 0.71999997 0.08
v 0.16 0.79999995 0.08
v 0.16 0.71999997 -0.08
v 0.16 0.79999995 -0.08
v 0.16 0.71999997 -0.16
v 0.16 0.79999995 -0.16
v 0.16 0.64 0.24
v -0.08 0.64 0.24
v -0.08 0.79999995 0.24
v 0.16 0.79999995 0.24
v -0.08 0.56 0.16
v -0.16 0.56 0.16
v -0.16 0.79999995 0.16
v -0.08 0.64 0.16
v -0.08 0.79999995 0.16
v 0.16 0.79999995 0.16
v -0.08 0.88 0.16
v 0.16 0.88 0.16
v -0 0.24 0.16
v -0.08 0.24 0.16
v -0.08 0.32 0.16
v -0 0.32 0.16
v -0 0.32 0.16
v -0.08 0.32 0.16
v -0.08 0.56 0.16
v -0.08 0.64 0.16
v 0.08 0.32 0.16
v 0.08 0.24 0.16
v -0 0.24 0.16
v 0.16 0.32 0.16
v 0.16 0.64 0.16
v 0.08 0 0.16
v -0 0 0.16
v -0 0.16 0.16
v 0.08 0.16 0.16
v 0.08 0.16 0.16
v -0 0.16 0.16
v -0 0.24 0.16
v 0.08 0.24 0.16
v 0.16 0.24 0.16
v 0.08 0.24 0.16
v 0.08 0.32 0.16
v 0.16 0.32 0.16
v -0.16 0.56 0.08
v -0.24 0.56 0.08
v -0.24 0.64 0.08
v -0.16 0.64 0.08
v -0.16 0.64 0.08
v -0.24 0.64 0.08
v -0.24 0.71999997 0.08
v -0.16 0.71999997 0.08
v 0.08 0 -0.08
v -0 0 -0.08
v -0 0.16 -0.08
v 0.08 0.16 -0.08
v 0.08 0.16 -0.08
v -0 0.16 -0.08
v -0 0.24 -0.08
v 0.08 0.24 -0.08
v -0 0 0.08
v 0.08 0 0.08
v -0 0.16 0.08
v 0.08 0.16 0.08
v -0 0.16 0.08
v 0.08 0.16 0.08
v -0 0.24 0.08
v 0.08 0.24 0.08
v -0.24 0.56 -0.08
v -0.16 0.56 -0.08
v -0.24 0.71999997 -0.08
v -0.16 0.71999997 -0.08
v -0.16 0.56 -0.16
v -0.08 0.56 -0.16
v -0.16 0.79999995 -0.16
v -0.08 0.64 -0.16
v -0.08 0.79999995 -0.16
v 0.16 0.79999995 -0.16
v -0.08 0.88 -0.16
v 0.16 0.88 -0.16
v -0.08 0.24 -0.16
v -0 0.24 -0.16
v -0.08 0.32 -0.16
v -0 0.32 -0.16
v -0.08 0.32 -0.16
v -0 0.32 -0.16
v -0.08 0.56 -0.16
v -0.08 0.64 -0.16
v 0.08 0.32 -0.16
v 0.08 0.24 -0.16
v -0 0.24 -0.16
v 0.16 0.32 -0.16
v 0.16 0.64 -0.16
v -0 0 -0.16
v 0.08 0 -0.16
v -0 0.16 -0.16
v 0.08 0.16 -0.16
v -0 0.16 -0.16
v 0.08 0.16 -0.16
v -0 0.24 -0.16
v 0.08 0.24 -0.16
v 0.08 0.24 -0.16
v 0.16 0.24 -0.16
v 0.08 0.32 -0.16
v 0.16 0.32 -0.16
v -0.08 0.64 -0.24
v 0.16 0.64 -0.24
v -0.08 0.79999995 -0.24
v 0.16 0.79999995 -0.24
v -0 0 0.08
v -0 0 0.16
v 0.08 0 0.16
v 0.08 0 0.08
v -0 0 -0.16
v -0 0 -0.08
v 0.08 0 -0.08
v 0.08 0 -0.16
v -0.08 0.24 0.08
v -0.08 0.24 0.16
v -0 0.24 0.16
v -0 0.24 0.08
v 0.08 0.24 0.08
v 0.08 0.24 0.16
v 0.16 0.24 0.16
v 0.16 0.24 0.08
v -0.08 0.24 -0.08
v -0.08 0.24 0.08
v -0 0.24 0.08
v 0.08 0.24 0.08
v 0.16 0.24 0.08
v -0 0.24 -0.08
v 0.08 0.24 -0.08
v 0.16 0.24 -0.08
v -0.08 0.24 -0.16
v -0.08 0.24 -0.08
v -0 0.24 -0.08
v -0 0.24 -0.16
v 0.08 0.24 -0.16
v 0.08 0.24 -0.08
v 0.16 0.24 -0.08
v 0.16 0.24 -0.16
v -0.16 0.56 0.08
v -0.16 0.56 0.16
v -0.08 0.56 0.16
v -0.16 0.56 -0.08
v -0.24 0.56 -0.08
v -0.24 0.56 0.08
v -0.16 0.56 -0.16
v -0.08 0.56 -0.16
v -0.08 0.64 0.16
v -0.08 0.64 0.24
v 0.16 0.64 0.24
v 0.16 0.64 0.16
v -0.08 0.64 -0.24
v -0.08 0.64 -0.16
v 0.16 0.64 -0.16
v 0.16 0.64 -0.24
v -0.24 0.71999997 0.08
v -0.24 0.71999997 0
v -0.16 0.71999997 0.08
v -0.16 0.71999997 0
v -0.24 0.71999997 0
v -0.24 0.71999997 -0.08
v -0.16 0.71999997 0
v -0.16 0.71999997 -0.08
v -0.08 0.79999995 0.24
v -0.08 0.79999995 0.16
v 0.16 0.79999995 0.24
v 0.16 0.79999995 0.16
v -0.16 0.79999995 0.16
v -0.16 0.79999995 -0.16
v -0.08 0.79999995 -0.16
v -0.08 0.79999995 -0.24
v 0.16 0.79999995 -0.16
v 0.16 0.79999995 -0.24
v -0.08 0.88 0.16
v -0.08 0.88 -0.16
v 0.16 0.88 0.16
v 0.16 0.88 -0.16
vt 0.0214844 0.5
vt 0.0214844 0.5
vt 0.0214844 0.5
vt 0.0214844 0.5
vt 0.0214844 0.5
vt 0.0214844 0.5
vt 0.841797 0.5
vt 0.841797 0.5
vt 0.841797 0.5
vt 0.841797 0.5
vt 0.0214844 0.5
vt 0.0214844 0.5
vt 0.0214844 0.5
vt 0.0214844 0.5
vt 0.0214844 0.5
vt 0.0214844 0.5
vt 0.0214844 0.5
vt 0.0214844 0.5
vt 0.0214844 0.5
vt 0.0214844 0.5
vt 0.841797 0.5
vt 0.841797 0.5
vt 0.841797 0.5
vt 0.841797 0.5
vt 0.958984 0.5
vt 0.958984 0.5
vt 0.958984 0.5
vt 0.958984 0.5
vt 0.958984 0.5
vt 0.958984 0.5
vt 0.958984 0.5
vt 0.958984 0.5
vt 0.841797 0.5
vt 0.841797 0.5
vt 0.841797 0.5
vt 0.841797 0.5
vt 0.0214844 0.5
vt 0.0214844 0.5
vt 0.0214844 0.5
vt 0.0214844 0.5
vt 0.0214844 0.5
vt 0.0214844 0.5
vt 0.0214844 0.5
vt 0.0214844 0.5
vt 0.0214844 0.5
vt 0.0214844 0.5
vt 0.994141 0.5
vt 0.994141 0.5
vt 0.994141 0.5
vt 0.994141 0.5
vt 0.994141 0.5
vt 0.994141 0.5
vt 0.994141 0.5
vt 0.994141 0.5
vt 0.0332031 0.5
vt 0.0332031 0.5
vt 0.0332031 0.5
vt 0.0332031 0.5
vt 0.0332031 0.5
vt 0.0332031 0.5
vt 0.0332031 0.5
vt 0.0332031 0.5
vt 0.994141 0.5
vt 0.994141 0.5
vt 0.994141 0.5
vt 0.994141 0.5
vt 0.994141 0.5
vt 0.994141 0.5
vt 0.994141 0.5
vt 0.994141 0.5
vt 0.0332031 0.5
vt 0.0332031 0.5
vt 0.0332031 0.5
vt 0.0332031 0.5
vt 0.0332031 0.5
vt 0.0332031 0.5
vt 0.0332031 0.5
vt 0.0332031 0.5
vt 0.841797 0.5
vt 0.841797 0.5
vt 0.841797 0.5
vt 0.841797 0.5
vt 0.958984 0.5
vt 0.958984 0.5
vt 0.958984 0.5
vt 0.958984 0.5
vt 0.958984 0.5
vt 0.958984 0.5
vt 0.958984 0.5
vt 0.958984 0.5
vt 0.841797 0.5
vt 0.841797 0.5
vt 0.841797 0.5
vt 0.841797 0.5
vt 0.0332031 0.5
vt 0.0332031 0.5
vt 0.0332031 0.5
vt 0.0332031 0.5
vt 0.0332031 0.5
vt 0.0332031 0.5
vt 0.0332031 0.5
vt 0.0332031 0.5
vt 0.0214844 0.5
vt 0.0214844 0.5
vt 0.0214844 0.5
vt 0.0214844 0.5
vt 0.0214844 0.5
vt 0.0214844 0.5
vt 0.0214844 0.5
vt 0.0214844 0.5
vt 0.0214844 0.5
vt 0.0214844 0.5
vt 0.0214844 0.5
vt 0.0214844 0.5
vt 0.0214844 0.5
vt 0.0214844 0.5
vt 0.994141 0.5
vt 0.994141 0.5
vt 0.994141 0.5
vt 0.994141 0.5
vt 0.994141 0.5
vt 0.994141 0.5
vt 0.994141 0.5
vt 0.994141 0.5
vt 0.0214844 0.5
vt 0.0214844 0.5
vt 0.0214844 0.5
vt 0.0214844 0.5
vt 0.0214844 0.5
vt 0.0214844 0.5
vt 0.0214844 0.5
vt 0.0214844 0.5
vt 0.0214844 0.5
vt 0.0214844 0.5
vt 0.0214844 0.5
vt 0.0214844 0.5
vt 0.841797 0.5
vt 0.841797 0.5
vt 0.841797 0.5
vt 0.841797 0.5
vt 0.958984 0.5
vt 0.958984 0.5
vt 0.958984 0.5
vt 0.958984 0.5
vt 0.958984 0.5
vt 0.958984 0.5
vt 0.958984 0.5
vt 0.958984 0.5
vt 0.958984 0.5
vt 0.994141 0.5
vt 0.994141 0.5
vt 0.994141 0.5
vt 0.994141 0.5
vt 0.0332031 0.5
vt 0.0332031 0.5
vt 0.0332031 0.5
vt 0.0332031 0.5
vt 0.841797 0.5
vt 0.841797 0.5
vt 0.841797 0.5
vt 0.841797 0.5
vt 0.0214844 0.5
vt 0.0214844 0.5
vt 0.0214844 0.5
vt 0.0214844 0.5
vt 0.841797 0.5
vt 0.841797 0.5
vt 0.841797 0.5
vt 0.841797 0.5
vt 0.994141 0.5
vt 0.994141 0.5
vt 0.994141 0.5
vt 0.994141 0.5
vt 0.0332031 0.5
vt 0.0332031 0.5
vt 0.0332031 0.5
vt 0.0332031 0.5
vt 0.994141 0.5
vt 0.994141 0.5
vt 0.994141 0.5
vt 0.994141 0.5
vt 0.0332031 0.5
vt 0.0332031 0.5
vt 0.0332031 0.5
vt 0.0332031 0.5
vt 0.0214844 0.5
vt 0.0214844 0.5
vt 0.0214844 0.5
vt 0.0214844 0.5
vt 0.0214844 0.5
vt 0.0214844 0.5
vt 0.0214844 0.5
vt 0.0214844 0.5
vt 0.0214844 0.5
vt 0.0214844 0.5
vt 0.0214844 0.5
vt 0.0214844 0.5
vt 0.841797 0.5
vt 0.841797 0.5
vt 0.841797 0.5
vt 0.841797 0.5
vt 0.958984 0.5
vt 0.958984 0.5
vt 0.958984 0.5
vt 0.958984 0.5
vt 0.958984 0.5
vt 0.958984 0.5
vt 0.958984 0.5
vt 0.958984 0.5
vt 0.958984 0.5
vt 0.994141 0.5
vt 0.994141 0.5
vt 0.994141 0.5
vt 0.994141 0.5
vt 0.0332031 0.5
vt 0.0332031 0.5
vt 0.0332031 0.5
vt 0.0332031 0.5
vt 0.841797 0.5
vt 0.841797 0.5
vt 0.841797 0.5
vt 0.841797 0.5
vt 0.0214844 0.5
vt 0.0214844 0.5
vt 0.0214844 0.5
vt 0.0214844 0.5
vt 0.994141 0.5
vt 0.994141 0.5
vt 0.994141 0.5
vt 0.994141 0.5
vt 0.994141 0.5
vt 0.994141 0.5
vt 0.994141 0.5
vt 0.994141 0.5
vt 0.841797 0.5
vt 0.841797 0.5
vt 0.841797 0.5
vt 0.841797 0.5
vt 0.841797 0.5
vt 0.841797 0.5
vt 0.841797 0.5
vt 0.841797 0.5
vt 0.958984 0.5
vt 0.958984 0.5
vt 0.958984 0.5
vt 0.958984 0.5
vt 0.958984 0.5
vt 0.958984 0.5
vt 0.958984 0.5
vt 0.958984 0.5
vt 0.841797 0.5
vt 0.841797 0.5
vt 0.841797 0.5
vt 0.841797 0.5
vt 0.841797 0.5
vt 0.841797 0.5
vt 0.841797 0.5
vt 0.841797 0.5
vt 0.0214844 0.5
vt 0.0214844 0.5
vt 0.0214844 0.5
vt 0.0214844 0.5
vt 0.0214844 0.5
vt 0.0214844 0.5
vt 0.0214844 0.5
vt 0.0214844 0.5
vt 0.0214844 0.5
vt 0.0214844 0.5
vt 0.0214844 0.5
vt 0.0214844 0.5
vt 0.0214844 0.5
vt 0.0214844 0.5
vt 0.0214844 0.5
vt 0.0214844 0.5
vt 0.841797 0.5
vt 0.841797 0.5
vt 0.841797 0.5
vt 0.841797 0.5
vt 0.0214844 0.5
vt 0.0214844 0.5
vt 0.0214844 0.5
vt 0.0214844 0.5
vt 0.0214844 0.5
vt 0.0214844 0.5
vt 0.0214844 0.5
vt 0.0214844 0.5
vt 0.0214844 0.5
vt 0.0214844 0.5
vt 0.0214844 0.5
vt 0.0214844 0.5
vt 0.0214844 0.5
vt 0.0214844 0.5
vt 0.0214844 0.5
vt 0.0214844 0.5
vt 0.0214844 0.5
vt 0.0214844 0.5
vn -1 0 0
vn -1 0 0
vn -1 0 0
vn -1 0 0
vn -1 0 0
vn -1 0 0
vn -1 0 0
vn -1 0 0
vn -1 0 0
vn -1 0 0
vn -1 0 0
vn -1 0 0
vn -1 0 0
vn -1 0 0
vn -1 0 0
vn -1 0 0
vn -1 0 0
vn -1 0 0
vn -1 0 0
vn -1 0 0
vn -1 0 0
vn -1 0 0
vn -1 0 0
vn -1 0 0
vn -1 0 0
vn -1 0 0
vn -1 0 0
vn -1 0 0
vn -1 0 0
vn -1 0 0
vn -1 0 0
vn -1 0 0
vn -1 0 0
vn -1 0 0
vn -1 0 0
vn -1 0 0
vn -1 0 0
vn -1 0 0
vn -1 0 0
vn -1 0 0
vn -1 0 0
vn -1 0 0
vn -1 0 0
vn -1 0 0
vn -1 0 0
vn -1 0 0
vn -1 0 0
vn -1 0 0
vn -1 0 0
vn -1 0 0
vn -1 0 0
vn -1 0 0
vn -1 0 0
vn -1 0 0
vn -1 0 0
vn -1 0 0
vn -1 0 0
vn -1 0 0
vn -1 0 0
vn -1 0 0
vn -1 0 0
vn -1 0 0
vn 1 0 0
vn 1 0 0
vn 1 0 0
vn 1 0 0
vn 1 0 0
vn 1 0 0
vn 1 0 0
vn 1 0 0
vn 1 0 0
vn 1 0 0
vn 1 0 0
vn 1 0 0
vn 1 0 0
vn 1 0 0
vn 1 0 0
vn 1 0 0
vn 1 0 0
vn 1 0 0
vn 1 0 0
vn 1 0 0
vn 1 0 0
vn 1 0 0
vn 1 0 0
vn 1 0 0
vn 1 0 0
vn 1 0 0
vn 1 0 0
vn 1 0 0
vn 1 0 0
vn 1 0 0
vn 1 0 0
vn 1 0 0
vn 1 0 0
vn 1 0 0
vn 1 0 0
vn 1 0 0
vn 1 0 0
vn 1 0 0
vn 1 0 0
vn 1 0 0
vn 1 0 0
vn 1 0 0
vn 1 0 0
vn 1 0 0
vn 1 0 0
vn 1 0 0
vn 1 0 0
vn 1 0 0
vn 1 0 0
vn 1 0 0
vn 1 0 0
vn 1 0 0
vn 1 0 0
vn 1 0 0
vn 1 0 0
vn 1 0 0
vn 1 0 0
vn 1 0 0
vn 1 0 0
vn 1 0 0
vn 1 0 0
vn 1 0 0
vn -0 0 1
vn -0 0 1
vn -0 0 1
vn -0 0 1
vn -0 0 1
vn -0 0 1
vn -0 0 1
vn -0 0 1
vn -0 0 1
vn -0 0 1
vn -0 0 1
vn -0 0 1
vn -0 0 1
vn -0 0 1
vn -0 0 1
vn -0 0 1
vn -0 0 1
vn -0 0 1
vn -0 0 1
vn -0 0 1
vn -0 0 1
vn -0 0 1
vn -0 0 1
vn -0 0 1
vn -0 0 1
vn -0 0 1
vn -0 0 1
vn -0 0 1
vn -0 0 1
vn -0 0 1
vn -0 0 1
vn -0 0 1
vn -0 0 1
vn -0 0 1
vn -0 0 1
vn -0 0 1
vn -0 0 1
vn -0 0 1
vn -0 0 1
vn -0 0 1
vn -0 0 1
vn -0 0 1
vn -0 0 1
vn -0 0 1
vn -0 0 1
vn -0 0 1
vn -0 0 1
vn -0 0 1
vn -0 0 1
vn -0 0 1
vn -0 0 1
vn -0 0 1
vn -0 0 1
vn -0 0 -1
vn -0 0 -1
vn -0 0 -1
vn -0 0 -1
vn -0 0 -1
vn -0 0 -1
vn -0 0 -1
vn -0 0 -1
vn -0 0 -1
vn -0 0 -1
vn -0 0 -1
vn -0 0 -1
vn -0 0 -1
vn -0 0 -1
vn -0 0 -1
vn -0 0 -1
vn -0 0 -1
vn -0 0 -1
vn -0 0 -1
vn -0 0 -1
vn -0 0 -1
vn -0 0 -1
vn -0 0 -1
vn -0 0 -1
vn -0 0 -1
vn -0 0 -1
vn -0 0 -1
vn -0 0 -1
vn -0 0 -1
vn -0 0 -1
vn -0 0 -1
vn -0 0 -1
vn -0 0 -1
vn -0 0 -1
vn -0 0 -1
vn -0 0 -1
vn -0 0 -1
vn -0 0 -1
vn -0 0 -1
vn -0 0 -1
vn -0 0 -1
vn -0 0 -1
vn -0 0 -1
vn -0 0 -1
vn -0 0 -1
vn -0 0 -1
vn -0 0 -1
vn -0 0 -1
vn -0 0 -1
vn -0 -1 0
vn -0 -1 0
vn -0 -1 0
vn -0 -1 0
vn -0 -1 0
vn -0 -1 0
vn -0 -1 0
vn -0 -1 0
vn -0 -1 0
vn -0 -1 0
vn -0 -1 0
vn -0 -1 0
vn -0 -1 0
vn -0 -1 0
vn -0 -1 0
vn -0 -1 0
vn -0 -1 0
vn -0 -1 0
vn -0 -1 0
vn -0 -1 0
vn -0 -1 0
vn -0 -1 0
vn -0 -1 0
vn -0 -1 0
vn -0 -1 0
vn -0 -1 0
vn -0 -1 0
vn -0 -1 0
vn -0 -1 0
vn -0 -1 0
vn -0 -1 0
vn -0 -1 0
vn -0 -1 0
vn -0 -1 0
vn -0 -1 0
vn -0 -1 0
vn -0 -1 0
vn -0 -1 0
vn -0 -1 0
vn -0 -1 0
vn -0 -1 0
vn -0 -1 0
vn -0 -1 0
vn -0 -1 0
vn -0 -1 0
vn -0 -1 0
vn -0 -1 0
vn -0 -1 0
vn -0 1 0
vn -0 1 0
vn -0 1 0
vn -0 1 0
vn -0 1 0
vn -0 1 0
vn -0 1 0
vn -0 1 0
vn -0 1 0
vn -0 1 0
vn -0 1 0
vn -0 1 0
vn -0 1 0
vn -0 1 0
vn -0 1 0
vn -0 1 0
vn -0 1 0
vn -0 1 0
vn -0 1 0
vn -0 1 0
vn -0 1 0
vn -0 1 0
g default_0
f 3/3/3 2/2/2 1/1/1
f 3/3/3 1/1/1 4/4/4
f 3/3/3 4/4/4 5/5/5
f 3/3/3 5/5/5 6/6/6
f 9/9/9 8/8/8 7/7/7
f 9/9/9 7/7/7 10/10/10
f 13/13/13 12/12/12 11/11/11
f 11/11/11 12/12/12 14/14/14
f 14/14/14 12/12/12 15/15/15
f 16/16/16 14/14/14 15/15/15
f 17/17/17 16/16/16 15/15/15
f 17/17/17 15/15/15 18/18/18
f 19/19/19 17/17/17 18/18/18
f 19/19/19 20/20/20 17/17/17
f 23/23/23 22/22/22 21/21/21
f 23/23/23 21/21/21 24/24/24
f 27/27/27 26/26/26 25/25/25
f 27/27/27 25/25/25 28/28/28
f 28/28/28 25/25/25 29/29/29
f 25/25/25 30/30/30 29/29/29
f 31/31/31 28/28/28 29/29/29
f 31/31/31 29/29/29 32/32/32
f 35/35/35 34/34/34 33/33/33
f 35/35/35 33/33/33 36/36/36
f 39/39/39 38/38/38 37/37/37
f 39/39/39 37/37/37 40/40/40
f 42/42/42 40/40/40 41/41/41
f 42/42/42 41/41/41 43/43/43
f 45/45/45 44/44/44 42/42/42
f 45/45/45 42/42/42 46/46/46
f 49/49/49 48/48/48 47/47/47
f 49/49/49 47/47/47 50/50/50
f 53/53/53 52/52/52 51/51/51
f 53/53/53 51/51/51 54/54/54
f 57/57/57 56/56/56 55/55/55
f 57/57/57 55/55/55 58/58/58
f 61/61/61 60/60/60 59/59/59
f 61/61/61 59/59/59 62/62/62
f 65/65/65 64/64/64 63/63/63
f 65/65/65 66/66/66 64/64/64
f 69/69/69 68/68/68 67/67/67
f 69/69/69 70/70/70 68/68/68
f 73/73/73 72/72/72 71/71/71
f 73/73/73 74/74/74 72/72/72
f 77/77/77 76/76/76 75/75/75
f 77/77/77 78/78/78 76/76/76
f 81/81/81 80/80/80 79/79/79
f 81/81/81 82/82/82 80/80/80
f 85/85/85 84/84/84 83/83/83
f 85/85/85 86/86/86 84/84/84
f 86/86/86 87/87/87 84/84/84
f 84/84/84 87/87/87 88/88/88
f 89/89/89 87/87/87 86/86/86
f 89/89/89 90/90/90 87/87/87
f 93/93/93 92/92/92 91/91/91
f 93/93/93 94/94/94 92/92/92
f 97/97/97 96/96/96 95/95/95
f 97/97/97 98/98/98 96/96/96
f 97/97/97 99/99/99 98/98/98
f 97/97/97 100/100/100 99/99/99
f 99/99/99 101/101/101 98/98/98
f 99/99/99 102/102/102 101/101/101
f 105/105/105 104/104/104 103/103/103
f 104/104/104 106/106/106 103/103/103
f 104/104/104 107/107/107 106/106/106
f 109/109/109 108/108/108 107/107/107
f 110/110/110 108/108/108 109/109/109
f 111/111/111 108/108/108 110/110/110
f 111/111/111 112/112/112 108/108/108
f 114/114/114 113/113/113 111/111/111
f 114/114/114 111/111/111 115/115/115
f 114/114/114 115/115/115 116/116/116
f 119/119/119 118/118/118 117/117/117
f 119/119/119 120/120/120 118/118/118
f 123/123/123 122/122/122 121/121/121
f 123/123/123 124/124/124 122/122/122
f 127/127/127 126/126/126 125/125/125
f 127/127/127 125/125/125 128/128/128
f 131/131/131 130/130/130 129/129/129
f 131/131/131 129/129/129 132/132/132
f 131/131/131 132/132/132 133/133/133
f 135/135/135 133/133/133 134/134/134
f 135/135/135 134/134/134 136/136/136
f 139/139/139 138/138/138 137/137/137
f 139/139/139 137/137/137 140/140/140
f 143/143/143 142/142/142 141/141/141
f 144/144/144 143/143/143 141/141/141
f 144/144/144 141/141/141 145/145/145
f 141/141/141 146/146/146 145/145/145
f 141/141/141 147/147/147 146/146/146
f 144/144/144 145/145/145 148/148/148
f 144/144/144 148/148/148 149/149/149
f 152/152/152 151/151/151 150/150/150
f 152/152/152 150/150/150 153/153/153
f 156/156/156 155/155/155 154/154/154
f 156/156/156 154/154/154 157/157/157
f 160/160/160 159/159/159 158/158/158
f 160/160/160 158/158/158 161/161/161
f 164/164/164 163/163/163 162/162/162
f 164/164/164 162/162/162 165/165/165
f 168/168/168 167/167/167 166/166/166
f 168/168/168 166/166/166 169/169/169
f 172/172/172 171/171/171 170/170/170
f 172/172/172 170/170/170 173/173/173
f 176/176/176 175/175/175 174/174/174
f 176/176/176 174/174/174 177/177/177
f 180/180/180 179/179/179 178/178/178
f 180/180/180 181/181/181 179/179/179
f 184/184/184 183/183/183 182/182/182
f 184/184/184 185/185/185 183/183/183
f 188/188/188 187/187/187 186/186/186
f 188/188/188 189/189/189 187/187/187
f 192/192/192 191/191/191 190/190/190
f 192/192/192 193/193/193 191/191/191
f 192/192/192 194/194/194 193/193/193
f 196/196/196 195/195/195 194/194/194
f 196/196/196 197/197/197 195/195/195
f 200/200/200 199/199/199 198/198/198
f 200/200/200 201/201/201 199/199/199
f 204/204/204 203/203/203 202/202/202
f 205/205/205 203/203/203 204/204/204
f 205/205/205 206/206/206 203/203/203
f 203/203/203 206/206/206 207/207/207
f 203/203/203 207/207/207 208/208/208
f 205/205/205 209/209/209 206/206/206
f 205/205/205 210/210/210 209/209/209
f 213/213/213 212/212/212 211/211/211
f 213/213/213 214/214/214 212/212/212
f 217/217/217 216/216/216 215/215/215
f 217/217/217 218/218/218 216/216/216
f 221/221/221 220/220/220 219/219/219
f 221/221/221 222/222/222 220/220/220
f 225/225/225 224/224/224 223/223/223
f 225/225/225 226/226/226 224/224/224
f 229/229/229 228/228/228 227/227/227
f 229/229/229 227/227/227 230/230/230
f 233/233/233 232/232/232 231/231/231
f 233/233/233 231/231/231 234/234/234
f 237/237/237 236/236/236 235/235/235
f 237/237/237 235/235/235 238/238/238
f 241/241/241 240/240/240 239/239/239
f 241/241/241 239/239/239 242/242/242
f 245/245/245 244/244/244 243/243/243
f 246/246/246 245/245/245 243/243/243
f 247/247/247 246/246/246 243/243/243
f 247/247/247 243/243/243 248/248/248
f 247/247/247 248/248/248 249/249/249
f 247/247/247 249/249/249 250/250/250
f 253/253/253 252/252/252 251/251/251
f 253/253/253 251/251/251 254/254/254
f 257/257/257 256/256/256 255/255/255
f 257/257/257 255/255/255 258/258/258
f 261/261/261 260/260/260 259/259/259
f 261/261/261 259/259/259 262/262/262
f 259/259/259 263/263/263 262/262/262
f 259/259/259 264/264/264 263/263/263
f 261/261/261 262/262/262 265/265/265
f 261/261/261 265/265/265 266/266/266
f 269/269/269 268/268/268 267/267/267
f 269/269/269 267/267/267 270/270/270
f 273/273/273 272/272/272 271/271/271
f 273/273/273 271/271/271 274/274/274
f 277/277/277 276/276/276 275/275/275
f 277/277/277 278/278/278 276/276/276
f 281/281/281 280/280/280 279/279/279
f 281/281/281 282/282/282 280/280/280
f 285/285/285 284/284/284 283/283/283
f 285/285/285 286/286/286 284/284/284
f 284/284/284 288/288/288 287/287/287
f 284/284/284 289/289/289 288/288/288
f 291/291/291 290/290/290 289/289/289
f 291/291/291 292/292/292 290/290/290
f 295/295/295 294/294/294 293/293/293
f 295/295/295 296/296/296 294/294/294
