g default
v -0.39999998 0.79999995 -0.16
v -0.39999998 0.71999997 -0.16
v -0.39999998 0.71999997 -0.48
v -0.39999998 0.79999995 -0.48
v -0.32 0.71999997 -0.16
v -0.32 0.48 -0.16
v -0.32 0.48 -0.39999998
v -0.32 0.71999997 -0.39999998
v -0.24 0.08 -0.24
v -0.24 0 -0.24
v -0.24 0 -0.32
v -0.24 0.08 -0.32
v -0.24 0.24 -0.24
v -0.24 0.08 -0.24
v -0.24 0.08 -0.32
v -0.24 0.24 -0.32
v -0.24 0.39999998 -0.16
v -0.24 0.24 -0.16
v -0.24 0.24 -0.39999998
v -0.24 0.39999998 -0.24
v -0.24 0.39999998 -0.39999998
v -0.24 0.48 -0.16
v -0.24 0.39999998 -0.16
v -0.24 0.39999998 -0.24
v -0.24 0.48 -0.24
v -0.24 0.48 -0.24
v -0.24 0.39999998 -0.24
v -0.24 0.39999998 -0.39999998
v -0.24 0.48 -0.39999998
v -0.24 0.71999997 -0.39999998
v -0.24 0.48 -0.39999998
v -0.24 0.48 -0.48
v -0.24 0.71999997 -0.48
v -0.24 0.88 -0.16
v -0.24 0.79999995 -0.16
v -0.24 0.79999995 -0.48
v -0.24 0.88 -0.48
v -0 0.08 -0.24
v -0 0 -0.24
v -0 0 -0.32
v -0 0.08 -0.32
v -0 0.24 -0.24
v -0 0.08 -0.24
v -0 0.08 -0.32
v -0 0.24 -0.32
v -0.16 0 -0.24
v -0.16 0.08 -0.24
v -0.16 0 -0.32
v -0.16 0.08 -0.32
v -0.16 0.08 -0.24
v -0.16 0.24 -0.24
v -0.16 0.08 -0.32
v -0.16 0.24 -0.32
v 0.08 0 -0.24
v 0.08 0.08 -0.24
v 0.08 0 -0.32
v 0.08 0.08 -0.32
v 0.08 0.08 -0.24
v 0.08 0.24 -0.24
v 0.08 0.08 -0.32
v 0.08 0.24 -0.32
v 0.08 0.39999998 -0.16
v 0.08 0.24 -0.16
v 0.08 0.24 -0.39999998
v 0.08 0.39999998 -0.24
v 0.08 0.39999998 -0.39999998
v 0.08 0.39999998 -0.16
v 0.08 0.48 -0.16
v 0.08 0.39999998 -0.24
v 0.08 0.48 -0.24
v 0.08 0.39999998 -0.24
v 0.08 0.48 -0.24
v 0.08 0.39999998 -0.39999998
v 0.08 0.48 -0.39999998
v 0.08 0.48 -0.39999998
v 0.08 0.71999997 -0.39999998
v 0.08 0.48 -0.48
v 0.08 0.71999997 -0.48
v 0.08 0.79999995 -0.16
v 0.08 0.88 -0.16
v 0.08 0.79999995 -0.48
v 0.08 0.88 -0.48
v 0.16 0.48 -0.16
v 0.16 0.71999997 -0.16
v 0.16 0.48 -0.39999998
v 0.16 0.71999997 -0.39999998
v 0.24 0.71999997 -0.16
v 0.24 0.79999995 -0.16
v 0.24 0.71999997 -0.48
v 0.24 0.79999995 -0.48
v -0.32 0.71999997 -0.16
v -0.39999998 0.71999997 -0.16
v -0.39999998 0.79999995 -0.16
v -0.24 0.71999997 -0.16
v -0.24 0.79999995 -0.16
v -0.16 0.71999997 -0.16
v -0.24 0.88 -0.16
v -0 0.71999997 -0.16
v 0.08 0.71999997 -0.16
v 0.08 0.79999995 -0.16
v 0.08 0.88 -0.16
v 0.16 0.71999997 -0.16
v 0.24 0.71999997 -0.16
v 0.24 0.79999995 -0.16
v -0.24 0.48 -0.16
v -0.32 0.48 -0.16
v -0.32 0.71999997 -0.16
v -0.24 0.56 -0.16
v -0.24 0.64 -0.16
v -0.24 0.71999997 -0.16
v -0.16 0.39999998 -0.16
v -0.24 0.24 -0.16
v -0.24 0.39999998 -0.16
v -0 0.39999998 -0.16
v 0.08 0.24 -0.16
v 0.08 0.39999998 -0.16
v -0.16 0.39999998 -0.16
v -0.24 0.39999998 -0.16
v -0.24 0.48 -0.16
v -0.24 0.56 -0.16
v -0.16 0.56 -0.16
v -0.16 0.56 -0.16
v -0.24 0.56 -0.16
v -0.24 0.64 -0.16
v -0.16 0.64 -0.16
v -0 0.56 -0.16
v -0.16 0.71999997 -0.16
v -0 0.64 -0.16
v -0 0.71999997 -0.16
v 0.08 0.56 -0.16
v 0.08 0.64 -0.16
v -0.16 0.64 -0.16
v -0.24 0.64 -0.16
v -0.24 0.71999997 -0.16
v -0.16 0.71999997 -0.16
v -0 0.39999998 -0.16
v -0.16 0.39999998 -0.16
v -0.16 0.56 -0.16
v -0 0.56 -0.16
v 0.08 0.39999998 -0.16
v -0 0.39999998 -0.16
v -0 0.56 -0.16
v 0.08 0.48 -0.16
v 0.08 0.56 -0.16
v 0.08 0.64 -0.16
v -0 0.64 -0.16
v -0 0.71999997 -0.16
v 0.08 0.71999997 -0.16
v 0.16 0.48 -0.16
v 0.08 0.48 -0.16
v 0.08 0.56 -0.16
v 0.08 0.64 -0.16
v 0.08 0.71999997 -0.16
v 0.16 0.71999997 -0.16
v -0.16 0 -0.24
v -0.24 0 -0.24
v -0.24 0.08 -0.24
v -0.16 0.08 -0.24
v -0.16 0.08 -0.24
v -0.24 0.08 -0.24
v -0.24 0.24 -0.24
v -0.16 0.24 -0.24
v 0.08 0 -0.24
v -0 0 -0.24
v -0 0.08 -0.24
v 0.08 0.08 -0.24
v 0.08 0.08 -0.24
v -0 0.08 -0.24
v -0 0.24 -0.24
v 0.08 0.24 -0.24
v -0.24 0 -0.32
v -0.16 0 -0.32
v -0.24 0.08 -0.32
v -0.16 0.08 -0.32
v -0.24 0.08 -0.32
v -0.16 0.08 -0.32
v -0.24 0.24 -0.32
v -0.16 0.24 -0.32
v -0 0 -0.32
v 0.08 0 -0.32
v -0 0.08 -0.32
v 0.08 0.08 -0.32
v -0 0.08 -0.32
v 0.08 0.08 -0.32
v -0 0.24 -0.32
v 0.08 0.24 -0.32
v -0.32 0.48 -0.39999998
v -0.24 0.48 -0.39999998
v -0.32 0.71999997 -0.39999998
v -0.24 0.71999997 -0.39999998
v -0.24 0.24 -0.39999998
v 0.08 0.24 -0.39999998
v -0.24 0.39999998 -0.39999998
v 0.08 0.39999998 -0.39999998
v -0.24 0.39999998 -0.39999998
v 0.08 0.39999998 -0.39999998
v -0.24 0.48 -0.39999998
v 0.08 0.48 -0.39999998
v 0.08 0.48 -0.39999998
v 0.16 0.48 -0.39999998
v 0.08 0.71999997 -0.39999998
v 0.16 0.71999997 -0.39999998
v -0.39999998 0.71999997 -0.48
v -0.24 0.71999997 -0.48
v -0.39999998 0.79999995 -0.48
v -0.24 0.79999995 -0.48
v 0.08 0.71999997 -0.48
v -0.24 0.88 -0.48
v 0.08 0.79999995 -0.48
v 0.08 0.88 -0.48
v 0.24 0.71999997 -0.48
v 0.24 0.79999995 -0.48
v -0.24 0.48 -0.48
v 0.08 0.48 -0.48
v -0.24 0.71999997 -0.48
v 0.08 0.71999997 -0.48
v -0.24 0 -0.32
v -0.24 0 -0.24
v -0.16 0 -0.24
v -0.16 0 -0.32
v -0 0 -0.32
v -0 0 -0.24
v 0.08 0 -0.24
v 0.08 0 -0.32
v -0.24 0.24 -0.24
v -0.24 0.24 -0.16
v 0.08 0.24 -0.16
v -0.16 0.24 -0.24
v -0 0.24 -0.24
v 0.08 0.24 -0.24
v -0.16 0.24 -0.32
v -0 0.24 -0.32
v -0.24 0.24 -0.39999998
v -0.24 0.24 -0.32
v 0.08 0.24 -0.32
v 0.08 0.24 -0.39999998
v -0.24 0.48 -0.24
v -0.32 0.48 -0.16
v -0.24 0.48 -0.16
v -0.32 0.48 -0.39999998
v -0.24 0.48 -0.39999998
v -0.24 0.48 -0.48
v 0.08 0.48 -0.39999998
v 0.08 0.48 -0.48
v 0.16 0.48 -0.39999998
v 0.16 0.48 -0.16
v 0.08 0.48 -0.24
v 0.08 0.48 -0.16
v -0.32 0.71999997 -0.39999998
v -0.39999998 0.71999997 -0.16
v -0.32 0.71999997 -0.16
v -0.39999998 0.71999997 -0.48
v -0.24 0.71999997 -0.39999998
v -0.24 0.71999997 -0.48
v 0.16 0.71999997 -0.39999998
v 0.16 0.71999997 -0.16
v 0.24 0.71999997 -0.16
v 0.24 0.71999997 -0.48
v 0.08 0.71999997 -0.48
v 0.08 0.71999997 -0.39999998
v -0.39999998 0.79999995 -0.16
v -0.39999998 0.79999995 -0.48
v -0.24 0.79999995 -0.16
v -0.24 0.79999995 -0.48
v 0.08 0.79999995 -0.16
v 0.08 0.79999995 -0.48
v 0.24 0.79999995 -0.16
v 0.24 0.79999995 -0.48
v -0.24 0.88 -0.16
v -0.24 0.88 -0.48
v 0.08 0.88 -0.16
v 0.08 0.88 -0.48
vt 0.396484 0.5
vt 0.396484 0.5
vt 0.396484 0.5
vt 0.396484 0.5
vt 0.0214844 0.5
vt 0.0214844 0.5
vt 0.0214844 0.5
vt 0.0214844 0.5
vt 0.396484 0.5
vt 0.396484 0.5
vt 0.396484 0.5
vt 0.396484 0.5
vt 0.826172 0.5
vt 0.826172 0.5
vt 0.826172 0.5
vt 0.826172 0.5
vt 0.826172 0.5
vt 0.826172 0.5
vt 0.826172 0.5
vt 0.826172 0.5
vt 0.826172 0.5
vt 0.841797 0.5
vt 0.841797 0.5
vt 0.841797 0.5
vt 0.841797 0.5
vt 0.958984 0.5
vt 0.958984 0.5
vt 0.958984 0.5
vt 0.958984 0.5
vt 0.0214844 0.5
vt 0.0214844 0.5
vt 0.0214844 0.5
vt 0.0214844 0.5
vt 0.396484 0.5
vt 0.396484 0.5
vt 0.396484 0.5
vt 0.396484 0.5
vt 0.396484 0.5
vt 0.396484 0.5
vt 0.396484 0.5
vt 0.396484 0.5
vt 0.826172 0.5
vt 0.826172 0.5
vt 0.826172 0.5
vt 0.826172 0.5
vt 0.396484 0.5
vt 0.396484 0.5
vt 0.396484 0.5
vt 0.396484 0.5
vt 0.826172 0.5
vt 0.826172 0.5
vt 0.826172 0.5
vt 0.826172 0.5
vt 0.396484 0.5
vt 0.396484 0.5
vt 0.396484 0.5
vt 0.396484 0.5
vt 0.826172 0.5
vt 0.826172 0.5
vt 0.826172 0.5
vt 0.826172 0.5
vt 0.826172 0.5
vt 0.826172 0.5
vt 0.826172 0.5
vt 0.826172 0.5
vt 0.826172 0.5
vt 0.841797 0.5
vt 0.841797 0.5
vt 0.841797 0.5
vt 0.841797 0.5
vt 0.958984 0.5
vt 0.958984 0.5
vt 0.958984 0.5
vt 0.958984 0.5
vt 0.0214844 0.5
vt 0.0214844 0.5
vt 0.0214844 0.5
vt 0.0214844 0.5
vt 0.396484 0.5
vt 0.396484 0.5
vt 0.396484 0.5
vt 0.396484 0.5
vt 0.0214844 0.5
vt 0.0214844 0.5
vt 0.0214844 0.5
vt 0.0214844 0.5
vt 0.396484 0.5
vt 0.396484 0.5
vt 0.396484 0.5
vt 0.396484 0.5
vt 0.396484 0.5
vt 0.396484 0.5
vt 0.396484 0.5
vt 0.396484 0.5
vt 0.396484 0.5
vt 0.396484 0.5
vt 0.396484 0.5
vt 0.396484 0.5
vt 0.396484 0.5
vt 0.396484 0.5
vt 0.396484 0.5
vt 0.396484 0.5
vt 0.396484 0.5
vt 0.396484 0.5
vt 0.0214844 0.5
vt 0.0214844 0.5
vt 0.0214844 0.5
vt 0.0214844 0.5
vt 0.0214844 0.5
vt 0.0214844 0.5
vt 0.826172 0.5
vt 0.826172 0.5
vt 0.826172 0.5
vt 0.826172 0.5
vt 0.826172 0.5
vt 0.826172 0.5
vt 0.841797 0.5
vt 0.841797 0.5
vt 0.841797 0.5
vt 0.841797 0.5
vt 0.841797 0.5
vt 0.0332031 0.5
vt 0.0332031 0.5
vt 0.0332031 0.5
vt 0.0332031 0.5
vt 0.0332031 0.5
vt 0.0332031 0.5
vt 0.0332031 0.5
vt 0.0332031 0.5
vt 0.0332031 0.5
vt 0.0332031 0.5
vt 0.994141 0.5
vt 0.994141 0.5
vt 0.994141 0.5
vt 0.994141 0.5
vt 0.958984 0.5
vt 0.958984 0.5
vt 0.958984 0.5
vt 0.958984 0.5
vt 0.841797 0.5
vt 0.841797 0.5
vt 0.841797 0.5
vt 0.841797 0.5
vt 0.841797 0.5
vt 0.994141 0.5
vt 0.994141 0.5
vt 0.994141 0.5
vt 0.994141 0.5
vt 0.0214844 0.5
vt 0.0214844 0.5
vt 0.0214844 0.5
vt 0.0214844 0.5
vt 0.0214844 0.5
vt 0.0214844 0.5
vt 0.396484 0.5
vt 0.396484 0.5
vt 0.396484 0.5
vt 0.396484 0.5
vt 0.826172 0.5
vt 0.826172 0.5
vt 0.826172 0.5
vt 0.826172 0.5
vt 0.396484 0.5
vt 0.396484 0.5
vt 0.396484 0.5
vt 0.396484 0.5
vt 0.826172 0.5
vt 0.826172 0.5
vt 0.826172 0.5
vt 0.826172 0.5
vt 0.396484 0.5
vt 0.396484 0.5
vt 0.396484 0.5
vt 0.396484 0.5
vt 0.826172 0.5
vt 0.826172 0.5
vt 0.826172 0.5
vt 0.826172 0.5
vt 0.396484 0.5
vt 0.396484 0.5
vt 0.396484 0.5
vt 0.396484 0.5
vt 0.826172 0.5
vt 0.826172 0.5
vt 0.826172 0.5
vt 0.826172 0.5
vt 0.0214844 0.5
vt 0.0214844 0.5
vt 0.0214844 0.5
vt 0.0214844 0.5
vt 0.826172 0.5
vt 0.826172 0.5
vt 0.826172 0.5
vt 0.826172 0.5
vt 0.958984 0.5
vt 0.958984 0.5
vt 0.958984 0.5
vt 0.958984 0.5
vt 0.0214844 0.5
vt 0.0214844 0.5
vt 0.0214844 0.5
vt 0.0214844 0.5
vt 0.396484 0.5
vt 0.396484 0.5
vt 0.396484 0.5
vt 0.396484 0.5
vt 0.396484 0.5
vt 0.396484 0.5
vt 0.396484 0.5
vt 0.396484 0.5
vt 0.396484 0.5
vt 0.396484 0.5
vt 0.0214844 0.5
vt 0.0214844 0.5
vt 0.0214844 0.5
vt 0.0214844 0.5
vt 0.396484 0.5
vt 0.396484 0.5
vt 0.396484 0.5
vt 0.396484 0.5
vt 0.396484 0.5
vt 0.396484 0.5
vt 0.396484 0.5
vt 0.396484 0.5
vt 0.826172 0.5
vt 0.826172 0.5
vt 0.826172 0.5
vt 0.826172 0.5
vt 0.826172 0.5
vt 0.826172 0.5
vt 0.826172 0.5
vt 0.826172 0.5
vt 0.826172 0.5
vt 0.826172 0.5
vt 0.826172 0.5
vt 0.826172 0.5
vt 0.0214844 0.5
vt 0.0214844 0.5
vt 0.0214844 0.5
vt 0.0214844 0.5
vt 0.0214844 0.5
vt 0.0214844 0.5
vt 0.0214844 0.5
vt 0.0214844 0.5
vt 0.0214844 0.5
vt 0.0214844 0.5
vt 0.0214844 0.5
vt 0.0214844 0.5
vt 0.396484 0.5
vt 0.396484 0.5
vt 0.396484 0.5
vt 0.396484 0.5
vt 0.396484 0.5
vt 0.396484 0.5
vt 0.396484 0.5
vt 0.396484 0.5
vt 0.396484 0.5
vt 0.396484 0.5
vt 0.396484 0.5
vt 0.396484 0.5
vt 0.396484 0.5
vt 0.396484 0.5
vt 0.396484 0.5
vt 0.396484 0.5
vt 0.396484 0.5
vt 0.396484 0.5
vt 0.396484 0.5
vt 0.396484 0.5
vt 0.396484 0.5
vt 0.396484 0.5
vt 0.396484 0.5
vt 0.396484 0.5
vn -1 0 0
vn -1 0 0
vn -1 0 0
vn -1 0 0
vn -1 0 0
vn -1 0 0
vn -1 0 0
vn -1 0 0
vn -1 0 0
vn -1 0 0
vn -1 0 0
vn -1 0 0
vn -1 0 0
vn -1 0 0
vn -1 0 0
vn -1 0 0
vn -1 0 0
vn -1 0 0
vn -1 0 0
vn -1 0 0
vn -1 0 0
vn -1 0 0
vn -1 0 0
vn -1 0 0
vn -1 0 0
vn -1 0 0
vn -1 0 0
vn -1 0 0
vn -1 0 0
vn -1 0 0
vn -1 0 0
vn -1 0 0
vn -1 0 0
vn -1 0 0
vn -1 0 0
vn -1 0 0
vn -1 0 0
vn -1 0 0
vn -1 0 0
vn -1 0 0
vn -1 0 0
vn -1 0 0
vn -1 0 0
vn -1 0 0
vn -1 0 0
vn 1 0 0
vn 1 0 0
vn 1 0 0
vn 1 0 0
vn 1 0 0
vn 1 0 0
vn 1 0 0
vn 1 0 0
vn 1 0 0
vn 1 0 0
vn 1 0 0
vn 1 0 0
vn 1 0 0
vn 1 0 0
vn 1 0 0
vn 1 0 0
vn 1 0 0
vn 1 0 0
vn 1 0 0
vn 1 0 0
vn 1 0 0
vn 1 0 0
vn 1 0 0
vn 1 0 0
vn 1 0 0
vn 1 0 0
vn 1 0 0
vn 1 0 0
vn 1 0 0
vn 1 0 0
vn 1 0 0
vn 1 0 0
vn 1 0 0
vn 1 0 0
vn 1 0 0
vn 1 0 0
vn 1 0 0
vn 1 0 0
vn 1 0 0
vn 1 0 0
vn 1 0 0
vn 1 0 0
vn 1 0 0
vn 1 0 0
vn 1 0 0
vn -0 0 1
vn -0 0 1
vn -0 0 1
vn -0 0 1
vn -0 0 1
vn -0 0 1
vn -0 0 1
vn -0 0 1
vn -0 0 1
vn -0 0 1
vn -0 0 1
vn -0 0 1
vn -0 0 1
vn -0 0 1
vn -0 0 1
vn -0 0 1
vn -0 0 1
vn -0 0 1
vn -0 0 1
vn -0 0 1
vn -0 0 1
vn -0 0 1
vn -0 0 1
vn -0 0 1
vn -0 0 1
vn -0 0 1
vn -0 0 1
vn -0 0 1
vn -0 0 1
vn -0 0 1
vn -0 0 1
vn -0 0 1
vn -0 0 1
vn -0 0 1
vn -0 0 1
vn -0 0 1
vn -0 0 1
vn -0 0 1
vn -0 0 1
vn -0 0 1
vn -0 0 1
vn -0 0 1
vn -0 0 1
vn -0 0 1
vn -0 0 1
vn -0 0 1
vn -0 0 1
vn -0 0 1
vn -0 0 1
vn -0 0 1
vn -0 0 1
vn -0 0 1
vn -0 0 1
vn -0 0 1
vn -0 0 1
vn -0 0 1
vn -0 0 1
vn -0 0 1
vn -0 0 1
vn -0 0 1
vn -0 0 1
vn -0 0 1
vn -0 0 1
vn -0 0 1
vn -0 0 1
vn -0 0 1
vn -0 0 1
vn -0 0 1
vn -0 0 1
vn -0 0 1
vn -0 0 1
vn -0 0 1
vn -0 0 1
vn -0 0 1
vn -0 0 1
vn -0 0 1
vn -0 0 1
vn -0 0 1
vn -0 0 1
vn -0 0 1
vn -0 0 -1
vn -0 0 -1
vn -0 0 -1
vn -0 0 -1
vn -0 0 -1
vn -0 0 -1
vn -0 0 -1
vn -0 0 -1
vn -0 0 -1
vn -0 0 -1
vn -0 0 -1
vn -0 0 -1
vn -0 0 -1
vn -0 0 -1
vn -0 0 -1
vn -0 0 -1
vn -0 0 -1
vn -0 0 -1
vn -0 0 -1
vn -0 0 -1
vn -0 0 -1
vn -0 0 -1
vn -0 0 -1
vn -0 0 -1
vn -0 0 -1
vn -0 0 -1
vn -0 0 -1
vn -0 0 -1
vn -0 0 -1
vn -0 0 -1
vn -0 0 -1
vn -0 0 -1
vn -0 0 -1
vn -0 0 -1
vn -0 0 -1
vn -0 0 -1
vn -0 0 -1
vn -0 0 -1
vn -0 0 -1
vn -0 0 -1
vn -0 0 -1
vn -0 0 -1
vn -0 0 -1
vn -0 0 -1
vn -0 0 -1
vn -0 0 -1
vn -0 -1 0
vn -0 -1 0
vn -0 -1 0
vn -0 -1 0
vn -0 -1 0
vn -0 -1 0
vn -0 -1 0
vn -0 -1 0
vn -0 -1 0
vn -0 -1 0
vn -0 -1 0
vn -0 -1 0
vn -0 -1 0
vn -0 -1 0
vn -0 -1 0
vn -0 -1 0
vn -0 -1 0
vn -0 -1 0
vn -0 -1 0
vn -0 -1 0
vn -0 -1 0
vn -0 -1 0
vn -0 -1 0
vn -0 -1 0
vn -0 -1 0
vn -0 -1 0
vn -0 -1 0
vn -0 -1 0
vn -0 -1 0
vn -0 -1 0
vn -0 -1 0
vn -0 -1 0
vn -0 -1 0
vn -0 -1 0
vn -0 -1 0
vn -0 -1 0
vn -0 -1 0
vn -0 -1 0
vn -0 -1 0
vn -0 -1 0
vn -0 -1 0
vn -0 -1 0
vn -0 -1 0
vn -0 -1 0
vn -0 1 0
vn -0 1 0
vn -0 1 0
vn -0 1 0
vn -0 1 0
vn -0 1 0
vn -0 1 0
vn -0 1 0
vn -0 1 0
vn -0 1 0
vn -0 1 0
vn -0 1 0
g default_0
f 3/3/3 2/2/2 1/1/1
f 3/3/3 1/1/1 4/4/4
f 7/7/7 6/6/6 5/5/5
f 7/7/7 5/5/5 8/8/8
f 11/11/11 10/10/10 9/9/9
f 11/11/11 9/9/9 12/12/12
f 15/15/15 14/14/14 13/13/13
f 15/15/15 13/13/13 16/16/16
f 16/16/16 13/13/13 17/17/17
f 13/13/13 18/18/18 17/17/17
f 19/19/19 16/16/16 17/17/17
f 19/19/19 17/17/17 20/20/20
f 19/19/19 20/20/20 21/21/21
f 24/24/24 23/23/23 22/22/22
f 24/24/24 22/22/22 25/25/25
f 28/28/28 27/27/27 26/26/26
f 28/28/28 26/26/26 29/29/29
f 32/32/32 31/31/31 30/30/30
f 32/32/32 30/30/30 33/33/33
f 36/36/36 35/35/35 34/34/34
f 36/36/36 34/34/34 37/37/37
f 40/40/40 39/39/39 38/38/38
f 40/40/40 38/38/38 41/41/41
f 44/44/44 43/43/43 42/42/42
f 44/44/44 42/42/42 45/45/45
f 48/48/48 47/47/47 46/46/46
f 48/48/48 49/49/49 47/47/47
f 52/52/52 51/51/51 50/50/50
f 52/52/52 53/53/53 51/51/51
f 56/56/56 55/55/55 54/54/54
f 56/56/56 57/57/57 55/55/55
f 60/60/60 59/59/59 58/58/58
f 60/60/60 61/61/61 59/59/59
f 61/61/61 62/62/62 59/59/59
f 59/59/59 62/62/62 63/63/63
f 64/64/64 62/62/62 61/61/61
f 64/64/64 65/65/65 62/62/62
f 64/64/64 66/66/66 65/65/65
f 69/69/69 68/68/68 67/67/67
f 69/69/69 70/70/70 68/68/68
f 73/73/73 72/72/72 71/71/71
f 73/73/73 74/74/74 72/72/72
f 77/77/77 76/76/76 75/75/75
f 77/77/77 78/78/78 76/76/76
f 81/81/81 80/80/80 79/79/79
f 81/81/81 82/82/82 80/80/80
f 85/85/85 84/84/84 83/83/83
f 85/85/85 86/86/86 84/84/84
f 89/89/89 88/88/88 87/87/87
f 89/89/89 90/90/90 88/88/88
f 93/93/93 92/92/92 91/91/91
f 93/93/93 91/91/91 94/94/94
f 93/93/93 94/94/94 95/95/95
f 95/95/95 94/94/94 96/96/96
f 97/97/97 95/95/95 96/96/96
f 97/97/97 96/96/96 98/98/98
f 97/97/97 98/98/98 99/99/99
f 97/97/97 99/99/99 100/100/100
f 97/97/97 100/100/100 101/101/101
f 100/100/100 99/99/99 102/102/102
f 100/100/100 102/102/102 103/103/103
f 100/100/100 103/103/103 104/104/104
f 107/107/107 106/106/106 105/105/105
f 107/107/107 105/105/105 108/108/108
f 107/107/107 108/108/108 109/109/109
f 107/107/107 109/109/109 110/110/110
f 113/113/113 112/112/112 111/111/111
f 111/111/111 112/112/112 114/114/114
f 114/114/114 112/112/112 115/115/115
f 114/114/114 115/115/115 116/116/116
f 119/119/119 118/118/118 117/117/117
f 120/120/120 119/119/119 117/117/117
f 120/120/120 117/117/117 121/121/121
f 124/124/124 123/123/123 122/122/122
f 124/124/124 122/122/122 125/125/125
f 125/125/125 122/122/122 126/126/126
f 127/127/127 125/125/125 126/126/126
f 127/127/127 126/126/126 128/128/128
f 127/127/127 128/128/128 129/129/129
f 128/128/128 126/126/126 130/130/130
f 128/128/128 130/130/130 131/131/131
f 134/134/134 133/133/133 132/132/132
f 134/134/134 132/132/132 135/135/135
f 138/138/138 137/137/137 136/136/136
f 138/138/138 136/136/136 139/139/139
f 142/142/142 141/141/141 140/140/140
f 142/142/142 140/140/140 143/143/143
f 142/142/142 143/143/143 144/144/144
f 147/147/147 146/146/146 145/145/145
f 147/147/147 145/145/145 148/148/148
f 151/151/151 150/150/150 149/149/149
f 152/152/152 151/151/151 149/149/149
f 153/153/153 152/152/152 149/149/149
f 153/153/153 149/149/149 154/154/154
f 157/157/157 156/156/156 155/155/155
f 157/157/157 155/155/155 158/158/158
f 161/161/161 160/160/160 159/159/159
f 161/161/161 159/159/159 162/162/162
f 165/165/165 164/164/164 163/163/163
f 165/165/165 163/163/163 166/166/166
f 169/169/169 168/168/168 167/167/167
f 169/169/169 167/167/167 170/170/170
f 173/173/173 172/172/172 171/171/171
f 173/173/173 174/174/174 172/172/172
f 177/177/177 176/176/176 175/175/175
f 177/177/177 178/178/178 176/176/176
f 181/181/181 180/180/180 179/179/179
f 181/181/181 182/182/182 180/180/180
f 185/185/185 184/184/184 183/183/183
f 185/185/185 186/186/186 184/184/184
f 189/189/189 188/188/188 187/187/187
f 189/189/189 190/190/190 188/188/188
f 193/193/193 192/192/192 191/191/191
f 193/193/193 194/194/194 192/192/192
f 197/197/197 196/196/196 195/195/195
f 197/197/197 198/198/198 196/196/196
f 201/201/201 200/200/200 199/199/199
f 201/201/201 202/202/202 200/200/200
f 205/205/205 204/204/204 203/203/203
f 205/205/205 206/206/206 204/204/204
f 206/206/206 207/207/207 204/204/204
f 208/208/208 207/207/207 206/206/206
f 208/208/208 209/209/209 207/207/207
f 208/208/208 210/210/210 209/209/209
f 209/209/209 211/211/211 207/207/207
f 209/209/209 212/212/212 211/211/211
f 215/215/215 214/214/214 213/213/213
f 215/215/215 216/216/216 214/214/214
f 219/219/219 218/218/218 217/217/217
f 219/219/219 217/217/217 220/220/220
f 223/223/223 222/222/222 221/221/221
f 223/223/223 221/221/221 224/224/224
f 227/227/227 226/226/226 225/225/225
f 227/227/227 225/225/225 228/228/228
f 227/227/227 228/228/228 229/229/229
f 227/227/227 229/229/229 230/230/230
f 229/229/229 228/228/228 231/231/231
f 229/229/229 231/231/231 232/232/232
f 232/232/232 231/231/231 233/233/233
f 231/231/231 234/234/234 233/233/233
f 235/235/235 232/232/232 233/233/233
f 235/235/235 233/233/233 236/236/236
f 239/239/239 238/238/238 237/237/237
f 237/237/237 238/238/238 240/240/240
f 237/237/237 240/240/240 241/241/241
f 243/243/243 241/241/241 242/242/242
f 243/243/243 242/242/242 244/244/244
f 246/246/246 243/243/243 245/245/245
f 246/246/246 247/247/247 243/243/243
f 246/246/246 248/248/248 247/247/247
f 251/251/251 250/250/250 249/249/249
f 249/249/249 250/250/250 252/252/252
f 253/253/253 249/249/249 252/252/252
f 253/253/253 252/252/252 254/254/254
f 257/257/257 256/256/256 255/255/255
f 257/257/257 255/255/255 258/258/258
f 255/255/255 259/259/259 258/258/258
f 255/255/255 260/260/260 259/259/259
f 263/263/263 262/262/262 261/261/261
f 263/263/263 264/264/264 262/262/262
f 267/267/267 266/266/266 265/265/265
f 267/267/267 268/268/268 266/266/266
f 271/271/271 270/270/270 269/269/269
f 271/271/271 272/272/272 270/270/270
